<?xml version="1.0" encoding="UTF-8"?>
<svg viewBox="0 0 640 480" xmlns="http://www.w3.org/2000/svg">
 <g fill="#d4aaff" stroke-width="2">
  <path d="m221.5 238.05c9 11 31.5 25.5 31.5 25.5s25-16.5 30-25.5" stroke="#000"/>
  <path d="m206.5 98.05c0 1.3807-1.1193 2.5-2.5 2.5s-2.5-1.1193-2.5-2.5 1.1193-2.5 2.5-2.5 2.5 1.1193 2.5 2.5z"/>
  <path d="m293 98.05c0 1.3807-1.1193 2.5-2.5 2.5s-2.5-1.1193-2.5-2.5 1.1193-2.5 2.5-2.5 2.5 1.1193 2.5 2.5z"/>
  <g stroke="#000">
   <g fill-rule="evenodd">
    <path d="m272.71 12.019l4.4194 3.3588c-1.2374 3.7123-41.366 56.922-43.841 56.745l-2.6516-3.8891c2.2981-1.0607 41.366-52.326 42.073-56.215z"/>
    <path d="m207.66 15.024l4.9497-2.6517c-1.2374 4.2426 41.366 57.629 44.017 58.69l-2.8284 3.7123c-4.5962-0.17679-43.841-52.149-46.139-59.75h3.1e-5z"/>
    <path d="m276.42 12.373c-5.126 4.773-56.568 34.648-64.877 35.709l-3.358-4.2426c9.192-0.3536 61.695-31.82 66.998-35.886l1.237 4.4194z"/>
    <path d="m209.07 7.7767c2.8284 5.6568 65.761 39.952 69.473 40.482l-2.4749 3.0052c-7.0711-0.88388-65.938-34.825-68.943-39.244 0 0-1.186-4.6898 1.9446-4.2426z"/>
    <path d="m412 298.55c9 4.5 53.5 73 61.5 82.5 0 0 5 6-2.5 9-5.2932 2.1172-8.5-2-9.5 7.5-0.61041 5.7989-11 12-11 12l-90-109.5 51.5-1.5z"/>
    <path d="m48.5 336.05c-4.75 15.5-11.25 33.625-13 50 10.75 20.875 20.75 32 36 27.5 2.75-11 8.25-46.125 15-69.5-5.75-9.375-24.25-11.5-38-8z"/>
    <path d="m120 444.55c13-19.5 18.5-59.5 21.5-64l1 0.5-18.5-20-31 51 27 32.5z"/>
    <path d="m140.5 233.05c-71.009 67.848-79.873 172.15-80 199.5 52.767 43.765 69.389 9.0702 57.5-10.5-8.0351-13.226-2.4771-26.794 4.5-28 13.273-2.2941 18.215 10.966 24 21 7.638 13.248 15.322 31.816 26.5 45.5 10.231 12.524 19.125 19 30.5 15 9.6155-3.3813 9.875-22.125 7-31-4.2775-13.204-8.25-15.75-8.5-24.5 10.25 9.25 18.031 20.537 27.5 27.5 23.336 17.16 34.989 28.59 52 14 8.6708-7.4366 8.1439-10.609 18-12 9.1377-1.2896 24.25 8.5 37.5-1 14.189-10.173 26.51-13.617 23.5-33-1.6115-10.376 9.2662-35.033 20.5-34 10.875 1 13.637 14.501 23 22 13.093 10.486 40.875 18 56.5 7.5-11.375-18-34.125-38.875-52-59.5-37.48-43.246-44.977-71.395-83.5-125-16.36-22.765-165.17-11.971-184.5 6.5z"/>
   </g>
   <path d="m116.5 398.05c-0.5-10 20.5-74 26-79.5"/>
   <path d="m386.5 383.05c-4-11-39-74-45.5-78"/>
   <path d="m201.5 420.55c9-18.5 26.5-114 25.5-122.5"/>
   <path d="m198.5 2.55c4.1679 1.6584 9.5992 2.1242 12.5 3.5 0 1.7678-4.5968 26.616-3.5 33 11.88 10.097 35.517 37.772 39 38.5 2.7758-0.68568 18.968-21.121 31.5-37 0.33426-3.8578-5.3447-30.057-4.1768-33.138 2.6946 0.52449 7.9874-0.3787 11.146-0.22121 0.58948 2.7396 3.0999 28.411 5.5303 33.359 37.256 55.329 26.897 75.188 12.5 110-2.3765 0.16394-1.6679 3.7374-0.26257 4.3232 0.875 2 1.568 0.89645 2.7019 3.6768 0.25 2.25-1.9127 2.7123-2.9393 5.5-0.84988 2.0806 1.7494 6.0208 10.5 20.5 21.125 26.5 61.574 73.062 74 85.5 9.4206 6.2513 41.572 29.66 45 38.5-10.714 20.33-32.197 23.058-52.5 11-4.9237 5.0895-3.9372 12.09-7.5 23.5-12.225 11.587-16.857 10.744-31.5 8-15.173 8.3928-17.374 13.714-20 18.5-3.6863 7.9682-19.735 29.325-40 36-46.428 5.9676-61.451-20.1-73.586-39.177-9.8364-8.1161-14.2-3.1517-20.914 3.1768-4.7699 3.6768-9.1768 10.511-21.5 11-20.278-3.2233-27.998-24.518-28.5-34.5-0.50217-3.4415 0.042908-10.9-2.5-12.5-3.0732-1.2463-6.3713 4.4482-10.5 16-2.0074 5.1878-7.057 29.198-14.5 29.5-22.469 0.125-25.101-24.634-28-29-1.6612-2.4216-4.034 8.8949-14 8-11.38-1.9555-21.459-8.0554-19.5-33.5 19.757-40.063 122.55-143.18 139-157.5-2.6161-3.2374-3.5339-4.5761-3-6 0.53033-1.4142 5.6899-0.9588 4.5-2-0.70712-2.1213-1-12-1-12-19.672-28.53-0.51266-92.974 5-104.5 7.955-4.9497 4.2463-29.991 7-40z" fill-rule="evenodd"/>
   <path d="m80.5 349.05c-2-17 33-78.5 45.5-88"/>
   <path d="m130.5 334.05c4.5-16.5 41-84 55-97.5"/>
   <path d="m341.5 351.05c-26-5.5-65.5-69.5-66-77.5"/>
   <path d="m380 319.05c-18.5-4-56.5-62.5-56.5-71"/>
  </g>
  <g fill-rule="evenodd">
   <path d="m131.32 254.55l-31.414 42.793s-7.4393 18.418-10.586 24.707c-3.1663 6.329-3 7.125-5 12s-5.4429 17.745-2.8891 21.743l10.768 16.854 12.621-11.596 2.5-13 17.5-63 6.5-30.5h-1.5e-5z"/>
   <path d="m176.53 248.35l-22.336 37.356s-21.328 40.562-23.023 46.731c3.9324 2.2908 3.123 1.8314 4.613 2.0021-0.76001 7.1706 2.4115 23.819 6.3696 28.605 2.0605 4.2162 10.872 14.26 10.872 14.26l10.955-8.1425 3.45-15.122 23.388-126.79-14.288 21.104z"/>
   <path d="m237.48 261.58l-13.246 44.025s-8.5181 23.828-11.455 30.125c-3.0818 6.6067-7.4464 23.32-9.9329 26.196 3.2879 1.9804 7.1686 6.4847 9.3418 10.957 2.9232 3.9727 7.3212 10.696 7.3212 10.696l14.557-6.9048 3.4659-12.823 5.8756-62.144-5.9272-40.128z"/>
   <path d="m316.76 241.9l18.352 32.664s14.736 15.096 18.57 23.56c4.0227 8.8811 15.707 12.331 19.327 18.795 3.6194 6.4642 1.7857 17.937-4.4457 20.862l-16.323 7.6614-19.002-9.2819-4.5242-17.238-10.145-66.213-1.809-10.809z"/>
   <path d="m186.27 153.79l1.0607 5.4801c4.2426 6.7175 33.059 10.276 48.437 6.0104-5.6569-0.88388-40.659-2.8284-49.498-11.49z"/>
   <path d="m185.03 164.62l-0.8839 4.0659c4.2426 6.7175 33.059 10.276 48.437 6.0104-5.6569-0.88388-38.714-1.4142-47.553-10.076v3.1e-5z"/>
   <path d="m305.15 157.76l-0.4334 3.8891c-5.5565 6.7175-30.216 10.452-50.355 6.1872 7.4087-0.88388 43.102 0.53033 50.789-10.076v3.1e-5z"/>
  </g>
 </g>
</svg>
