<?xml version="1.0" encoding="UTF-8"?>
<svg viewBox="0 0 775.79718 804.08142" xmlns="http://www.w3.org/2000/svg">
 <g transform="translate(22.223 -56.352)" fill-rule="evenodd">
  <path d="m-22.223 56.352h775.8v804.08h-775.8z" fill="#3e976d"/>
  <path d="m86.665 667.29 20.156 1.8324 23.821 1.8324 21.989 12.827 25.654 20.156 9.162 3.6648 29.319 1.8325 16.492 7.3296 27.486 3.6648h10.994l7.3296 9.1621 23.821 18.324 10.994 9.162 7.3296 7.3296 31.151 3.6648 14.659 7.3296 27.486-1.8324 21.989-1.8324 9.162 3.6648 9.1621 16.492 10.994 7.3297 21.989-1.8324 20.156-7.3296 12.827 3.6648 18.324 1.8324 20.156 7.3296h29.319l16.492 7.3296 29.319 7.3296 34.816-3.6648 20.156 7.3296 12.827 12.827 9.1621-5.4972-18.324-64.134-14.659-87.956-20.156-153.92-12.827-78.794-9.1621-49.475-16.492-45.81-7.3297-12.827 20.156-40.313 14.659-31.151 16.492-38.481 16.492-45.81v-38.481l-3.6648-12.827-10.994-21.989v16.492l-5.4972-43.978-18.324 18.324-10.994 10.994-12.827 7.3296-12.827 1.8324-43.978 1.8324-31.151 5.4972-20.157 5.4972-20.156 10.994-9.162 10.994-10.994 10.994-5.4972 5.4972-14.659 1.8324-25.654 14.659-5.4972 3.6648 16.492 27.486 18.324 21.989 18.324 16.492 9.1621 32.983-1.8324 21.989h-25.654l-47.643 21.989-49.475 27.486-58.637 43.978-65.967 49.475-97.118 71.464-56.805 54.972-43.978 40.313 16.492 7.3296 27.486 9.162 14.659 12.827 14.659 18.324z" fill="#4d4d4d"/>
  <path d="m400.01 192.7h87.956l18.324-3.6648 18.324-12.827 9.162-16.492-18.324-29.319 23.821-7.3296 29.319-3.6648 23.821-1.8324 10.994 12.827 23.821 1.8324 21.989-14.659 12.827 25.654v36.648l-12.827 40.313-27.486 58.637-25.654 54.972-12.827-16.492-25.654-9.162-20.156-10.994v-23.821l16.492-14.659 25.654-12.827-10.994-5.4972-42.145 20.157-45.81 3.6648-14.659-1.8324-14.659-7.3296-25.654-27.486-14.659-14.659-10.994-20.156z" fill="#333"/>
  <path d="m458.64 311.8 31.151 5.4972 25.654 5.4972 27.486 9.1621 16.492 14.659 12.827 36.648 18.324 73.296 21.989 16.492 18.324 14.659 16.492 122.77 16.492 102.61 16.492 82.458 10.994 31.151-9.1621 7.3296-18.324-14.659-21.989-5.4972-29.318 3.6648-36.648-9.162-14.659-10.994-23.821 5.4972-31.151-9.162-16.492-5.4972-20.156 7.3296-21.989 3.6648-18.324-18.324-9.162-10.994-25.654 1.8324h-38.481l-3.6648-5.4972-31.151-3.6648-18.324-12.827-20.156-18.324-16.492-14.659h-36.648l-16.492-9.1621-5.4972-3.6648-18.324 1.8324-14.659-1.8324-27.486-20.156-12.827-10.994-10.994-3.6648-40.313-3.6648-9.162-9.1621-16.492-18.324-14.659-9.162-31.151-7.3296-1.8324-1.8324 62.302-54.972 58.637-53.14 47.643-32.983 131.93-100.78 73.296-43.978 51.307-23.821 10.994-1.8324 12.827 3.6648z" fill="#999"/>
  <path d="m500.79 322.8 45.81 18.324 10.994 16.492 7.3296 18.324 10.994 34.816 16.492 34.816 14.659 10.994 12.827 18.324 14.659 32.983 20.157 139.26 12.827 89.788 10.994 51.307 10.994 31.151v7.3296l-5.4972 3.6648-20.156-18.324-32.983-3.6648h-18.324l-45.81-5.4972-12.827-3.6648h-16.492l-60.469-16.492 29.319-20.156 47.643 3.6648 56.805 5.4972-3.6648-97.118-1.8324-100.78-27.486-36.648-36.648-14.659-12.827-20.156-27.486-16.492-45.81-40.313 7.3296-21.989 3.6648-9.162 16.492-7.3297 12.827-9.162 14.659-12.827 1.8324-10.994-7.3296-16.492-3.6648-12.827v-21.989z" fill="#333"/>
  <path d="m337.7 751.58 53.14-124.6 65.967-152.09 12.827-31.151 20.156 16.492v7.3296l-29.318 69.632-58.637 120.94-38.481 82.458-7.3296 12.827-18.324-1.8324z" fill="#333"/>
  <path d="m214.93 614.15 115.44-111.78 75.129-69.631 73.296-91.62 3.6648-18.324-9.162-3.6648-60.469 67.799-45.81 49.475-53.14 62.302-29.319 38.481-47.643 54.972-21.989 21.989z" fill="#666"/>
  <path d="m310.22 562.84 18.324-31.151 42.145-36.648 47.643-53.14 34.816-34.816 10.994-23.821 9.1621-9.1621 23.821-5.4972 9.162 9.1621-12.827 12.827-31.151 31.151-5.4972 34.816-9.162 20.156-47.643 40.313-51.307 32.983-38.481 12.827z" fill="#666"/>
  <path d="m462.31 758.91-12.827-76.961 25.654-69.632 31.151-49.475 12.827-1.8324 12.827 9.1621 9.162 14.659-23.821 38.481-14.659 31.151-18.324 20.156-14.659 36.648-3.6648 32.983-3.6648 14.659z" fill="#808080"/>
  <path d="m486.13 771.74 38.481-86.123 20.156-97.118 14.659-27.486 12.827 18.324-5.4972 177.74-20.156 1.8324-29.318 3.6648-18.324 1.8324-12.827 7.3296z" fill="#ccc"/>
  <path d="m493.46 762.58 27.486-64.134 40.313-115.44 7.3296-10.994v25.654l-18.324 51.307-36.648 87.956-20.156 25.654z" fill="#e6e6e6"/>
  <path d="m330.37 749.75-34.816-40.313 23.821-49.475 12.827-65.967 23.821-31.151-32.983 7.3296-18.324 38.481-25.654 29.318-16.492 9.1621-29.319-5.4972-12.827-16.492-3.6648-16.492 12.827-42.145 42.145-62.302 76.961-64.134 42.145-45.81 7.3296-10.994-42.145 21.989-27.486-9.162-38.481 3.6648-54.972 38.481-89.788 71.464-69.631 47.643-65.967 60.469 34.816 10.994 18.324 18.324 16.492 12.827 23.821 1.8324 18.324 1.8324 14.659 3.6648 21.989 20.156 10.994 7.3296 7.3296 3.6648 18.324-1.8324 27.486 7.3296 20.156 10.994 21.989 3.6648 31.151 32.983 23.821 7.3296 10.994-9.162z" fill="#f2f2f2"/>
 </g>
</svg>
