<?xml version="1.0" encoding="UTF-8"?>
<svg viewBox="0 0 327 294" xmlns="http://www.w3.org/2000/svg" xmlns:xlink="http://www.w3.org/1999/xlink">
 <defs>
  <filter id="b">
   <feGaussianBlur stdDeviation=".70411"/>
  </filter>
  <filter id="a">
   <feGaussianBlur stdDeviation=".62555"/>
  </filter>
  <filter id="d">
   <feGaussianBlur stdDeviation=".75525"/>
  </filter>
  <linearGradient id="c">
   <stop stop-color="#7c0000" offset="0"/>
   <stop stop-color="#ae0000" stop-opacity="0" offset="1"/>
  </linearGradient>
  <linearGradient id="f" x1="102.28" x2="340.67" gradientUnits="userSpaceOnUse" xlink:href="#c"/>
  <linearGradient id="e" x1="26.585" x2="237.64" gradientUnits="userSpaceOnUse" xlink:href="#c"/>
 </defs>
 <g transform="matrix(.99579 .09166 -.09166 .99579 34.247 -418.01)">
  <path d="m102.28 544.26 0.75761-19.951 6.8185-37.881 6.3134-25.254 10.354-17.93 4.2931-3.0305 9.3439-5.3033 18.435-11.869 23.739-11.364 25.759-5.5558 17.93-1.2627 19.698 3.7881 18.183 5.0508 16.668 9.849 15.405 14.142 15.152 16.162 13.89 23.739 11.112 29.8 4.5457 20.961-0.50508 25.759-8.5863 20.961-11.112 13.385-11.112 8.8388-13.637 8.0812-14.395 7.5761-24.496 9.3439-23.234 5.0508-22.223-2.5254-37.628-5.8084-18.94-4.7982-15.152-6.8185-16.415-11.112-11.112-14.142-6.3134-14.395-3.5355-23.486z" fill="#ae0000" fill-rule="evenodd"/>
  <path d="m227.14 626.29c28.065-80.139 24.274-147.25 10.714-210.36" fill="none" filter="url(#a)" stroke="#fff" stroke-width=".7"/>
  <path d="m212.14 624.51c19.84-57.294 20.064-130.28 11.429-210.36" fill="none" filter="url(#a)" stroke="#fff" stroke-width=".7"/>
  <path d="m231.43 414.86c14.336 117.71 2.6659 166.93-11.071 210.71" fill="none" filter="url(#a)" stroke="#fff" stroke-width=".7"/>
  <path d="m131.43 438.79c65.228 30.183 83.024 84.083 110.36 133.21" fill="none" filter="url(#b)" stroke="#fff" stroke-width=".7"/>
  <path d="m121.07 453.08c55.926 26.818 86.49 84.069 114.29 144.64" fill="none" filter="url(#b)" stroke="#fff" stroke-width=".7"/>
  <path d="m124.29 444.86c39.886 19.889 78.898 54.848 115 140" fill="none" filter="url(#b)" stroke="#fff" stroke-width=".7"/>
  <path transform="translate(3.5714 2.5)" d="m236.07 405.93a7.1429 3.9286 0 1 1 -14.286 0 7.1429 3.9286 0 1 1 14.286 0z" fill="#ffab00" fill-rule="evenodd" stroke="#000" stroke-linejoin="round" stroke-width="10"/>
  <path d="m102.28 544.26 0.75761-19.951 6.8185-37.881 6.3134-25.254 10.354-17.93 4.2931-3.0305 9.3439-5.3033 18.435-11.869 23.739-11.364 25.759-5.5558 17.93-1.2627 19.698 3.7881 18.183 5.0508 16.668 9.849 15.405 14.142 15.152 16.162 13.89 23.739 11.112 29.8 4.5457 20.961-0.50508 25.759-8.5863 20.961-11.112 13.385-11.112 8.8388-13.637 8.0812-14.395 7.5761-24.496 9.3439-23.234 5.0508-22.223-2.5254-37.628-5.8084-18.94-4.7982-15.152-6.8185-16.415-11.112-11.112-14.142-6.3134-14.395-3.5355-23.486z" fill="url(#f)" fill-rule="evenodd" opacity=".83806"/>
  <path d="m102.5 534.86c4.259-41.179 11.823-73.913 24.643-93.214l11.429-5.7143c135.15-98.667 223.18 62.777 198.49 129.49-9.8118 29.73-62.503 53.231-102.06 61.581" fill="none" stroke="#000" stroke-width="3"/>
  <path d="m102.5 535.58c-23.514 20.274-48.484 38.748-72.143 66.429-3.1216 3.6523-4.9928 9.5523-2.8571 14.643 15.358 36.608 39.814 67.174 79.643 82.5 17.003 4.6498 30.287 0.00296 43.571-4.6429 34.155-13.576 57.844-42.268 83.929-67.5-65.339-6.8188-133.45-10.557-132.14-91.429z" fill="#ae0000" fill-rule="evenodd" stroke="#000" stroke-width="3"/>
  <path d="m100.71 546.38s-55.957 43.165-58.214 58.482c-2.36 16.016 59.571 79.912 85 78.214 9.6936-0.65655 75.089-57.5 75.089-57.5" fill="none" filter="url(#d)" stroke="#fff" stroke-width=".7"/>
  <path d="m101.52 553.34-41.875 38.304c-12.307 11.257 59.742 77.934 70.357 70l52.321-39.107" fill="none" filter="url(#d)" stroke="#fff" stroke-width=".7"/>
  <path d="m104 534.08c-23.514 20.274-48.484 38.748-72.143 66.429-3.1216 3.6523-4.9928 9.5523-2.8571 14.643 15.358 36.608 39.814 67.174 79.643 82.5 17.003 4.6498 30.287 0.00296 43.571-4.6429 34.155-13.576 57.844-42.268 83.929-67.5-65.339-6.8188-133.45-10.557-132.14-91.429z" fill="url(#e)" fill-rule="evenodd"/>
 </g>
</svg>
