<?xml version="1.0" encoding="UTF-8"?>
<svg viewBox="0 0 476.65396 365.19131" xmlns="http://www.w3.org/2000/svg">
 <defs>
  <radialGradient id="a" cx="-719.81" cy="31.871" r="41.919" gradientTransform="matrix(1.4455 1.8602 -.76871 .59735 476.65 1379.7)" gradientUnits="userSpaceOnUse">
   <stop offset="0"/>
   <stop stop-color="#c0bfba" offset="1"/>
  </radialGradient>
 </defs>
 <g transform="matrix(.99017 -.13989 .13989 .99017 662.79 -62.938)">
  <g transform="translate(-5.7252 -11.45)">
   <path d="m-666.27 200.4c0.87057-0.52556 0.36609-2.504 0.55374-3.6463 0.28683-1.746 2.9541-3.663 3.4142-5.8593 0.98669-4.7103 3.5069-9.4401 5.744-11.655 3.0313-3.001 15.543-0.62498 20.702 7.0088 11.714 7.3722 22.335 11.151 34.982 16.716 16.91 7.441 31.314 18.664 46.67 29.099 19.256 10.015 38.249 21.239 53.593 36.722 13.3 4.7448 21.896-9.9812 35.894-2.082 14.704 4.7509 29.536 9.3121 45.058 10.098 48.662 6.8417 102.91 6.0634 151.49 0.51649 17.224-3.6884 33.617-16.403 46.962-27.758 5.0914 19.873 0.28278 49.67-19.694 59.703-16.935 9.2774-36.197 13.567-54.944 17.424-27.779 2.5901-55.773 2.1465-83.647 2.5927-32.802-0.44544-66.859-4.0748-95.68-20.977-39.07-18.21-73.846-46.182-116.4-56.253-23.23-10.778-52.604-14.856-67.757-37.688-2.5609-4.5196-6.2456-8.8088-6.9402-13.962z" fill="#a4a59d" fill-rule="evenodd" stroke="#000"/>
   <path d="m-494.07 273.12 16.256-7.9641 6.781-0.80546s23.65 10.301 26.471 11.006 22.181 1.859 22.181 1.859l9.3158 1.9947s32.078 3.6973 35.604 2.992 47.985 0.63435 47.985 0.63435l60.986-5.6773 21.912-6.2114 19.826-13.036 5.4509-8.674-9.3046-21.338-7.0523-7.0523s-19.041-9.168-21.862-11.989-15.515-12.694-15.515-12.694l-7.0523-4.2314-11.284-11.284-4.2314-2.8209-4.2314-9.168-4.9366-4.4044s-4.0584-1.4105-6.7909-2.3827c-2.6577-0.94565-7.1085-8.5227-7.1085-8.5227l-1.8094-2.4977-5.3325-18.338-4.7762-2.5709-4.5971 2.3209-9.7837-8.0337 3.5262-4.9366-10.578-11.989-7.7575 1.4105-7.0523-8.4628 3.5091-2.5007-11.017-12.354-5.1866 1.4552-4.4814-6.0523-4.4814-5.9366 6.8471-4.4814-10.578-15.265-11.989-11.989-10.578-9.8732h-19.041l-12.694-11.284-5.6418-6.3471-15.515-5.6418-14.81-3.5262-6.8838-0.50072-11.452 0.74613-13.481 4.3999s-8.2174 3.0254-11.038 5.6828c-2.0534 1.9343-10.742 8.7131-10.742 8.7131l-11.989 16.926-4.2314 12.694-1.4105 11.989-7.7575 7.0523-10.578 8.4628-4.9366 5.6418-13.399 2.1157-10.578 2.8209h-13.399l-6.3471-0.70523-8.4628-12.694v-7.0523s-0.70524-6.3471-0.70524-9.168v-22.567l2.1157-8.8154 6.6997-1.4105 14.457-1.7631s1.98 0.121 6.9166-0.58423 14.24-2.2367 20.587-2.2367h7.7575l9.8732 3.4052 7.7575 2.9419 7.0523 10.578-7.0523-10.578-17.278-5.9945-8.1957 0.02506-9.6019-0.13568-22.753 3.9894-16.22 1.4105-2.1157 9.5206-6.3471 16.573-9.8732 23.273-3.5262 21.157v21.862l-1.4105 14.81-1.4105 38.767 10.629 7.7783 19.077 11.113 7.9348 5.2642 19.717 6.781s0.605 1.1892 25.368 12.16c2.5791 1.1427 15.48 11.54 15.48 11.54l22.426 10.094 39.75 30.582z" fill="none" stroke="#000"/>
   <path d="m-555.61 67.613 0.8513-12.588 2.2263-6.1552 3.6013-8.3314 11.334-15.736 3.7223-2.1053s7.4522-6.5266 9.4468-7.5239 4.2239-2.4746 6.7173-3.472 3.1724-1.5398 3.1724-1.5398l13.522-3.8174 16.218-0.12817 6.5683 1.2644s3.6852 0.9792 5.9874 1.9368c2.2585 0.9395 2.6396 0.61989 5.4822 1.5539 12.152 3.9929 12.536 3.7616 13.028 4.2842 1.7699 1.8812 3.2047 4.9099 5.1994 7.4033s11.299 10.006 11.299 10.006l27.821 31.166 10.219-5.2367 5.2394-3.2407 9.8879 14.754-10.885 9.1827 7.4801 11.006 10.618-4.5235s12.364 12.926 12.322 12.821c-0.41492-1.0469-15.083 5.071-15.083 5.071l10.241 12.15 8.4671-7.0419 6.6789-1.9904c3.6219 4.73 7.4389 8.5296 10.806 12.794l-4.3258 2.5698 8.9104 8.7048s3.6091 0.2275 5.8564-0.8525c1.2895-0.61968 5.5407 3.3092 5.5407 3.3092l4.9439 17.176 1.8967 3.4865 6.927 7.9678 1.5935-0.13418 5.6947 2.2003 2.6896 1.0578 3.9894 8.9761-0.99735 6.4828-10.472 2.4934-1.9947 6.9814-5.9841 4.4881-4.4881 2.992s-8.9761 5.4854-11.469 5.4854h-14.96l-6.5777 0.67545-8.174 5.3904s-1.5408 2.992-7.1899 1.4142c-8.6586-2.4184-8.4774-2.992-8.4774-2.992l-2.4934-3.9894 4.9867-6.4828 4.4881-4.4881 1.496-2.4934-9.4748-8.4774-2.992-1.496s-6.4814-3.2447-6.9801-0.75133-3.7407 4.9881-3.7407 4.9881l-4.7381 2.7447h-4.9867l-8.9761-3.4907-3.9894-5.9841 2.4934-4.4881 3.9894-4.9867s-0.49867-1.9947 3.4907-2.4934 2.7381-0.99867 2.7381-0.99867l2.7474-0.99603-5.7288-2.7354-7.2394-4.996s0.00265-0.74602-2.9894 0.25133-2.992 0-5.9841 0.99735-7.067 2.9065-7.067 2.9065l-5.0472 2.4934h-4.342l-2.992-2.9065-6.1405-5.8985s2.3828-2.9316 3.8788-5.4249 4.5091-4.8868 7.0025-6.3828-2.254-2.496-0.00929-0.99469c1.7091 1.1431-3.2354-1.7447-3.2354-1.7447l-7.4801-3.9894s-0.49868-0.49867-3.4907-0.99735-2.992 2.992-4.9867 3.4907-5.9841 1.9947-5.9841 1.9947-3.4907 1.496-5.9841 0.99734-5.4854-2.992-5.4854-2.992l-2.992-5.9841 0.99735-5.4854 6.4828-3.4907 3.9894-1.9947 3.4907-1.9947-7.4801-1.9947-4.7407-2.2394-2.742-1.5053-4.9841-2.2394-6.9814-0.49868-3.4907 3.9894-5.4854 3.4907h-5.9841l-2.4934-4.4881-1.3127-6.0725-1.0973-5.3769 2.8957-4.4894 3.7522-4.0929 3.498-3.2002 2.308-2.4505 1.8292-2.1299-7.8838-5.5989-6.9814-4.9867-7.4801-4.4881s-5.9841-1.9947-7.9788-2.4934-12.467-2.4934-12.467-2.4934l-11.968 1.496-4.5736 0.79079z" fill="#acab9c" fill-rule="evenodd" stroke="#000"/>
   <path d="m-365.03 209.44 8.7268-5.9841 9.2255-5.4854 7.4801-3.9894s14.212-7.9788 16.207-8.4774 12.779-3.3298 12.779-3.3298 0.46678-0.02527 2.4807-0.38112c1.4597-0.25792 3.3428-0.76895 4.2765-0.84973 2.1377-0.18496 3.153-0.30606 3.153-0.30606l0.99735-7.6002-3.9894-7.7294-1.9947-0.99735-2.992-1.2467-3.4023-1.0857-3.0804 1.6411-4.9867 1.938-3.4907 0.99734-5.4854 1.9947-16.456 6.4828-23.438 10.472-3.2414 4.2387-5.4854 6.2334-5.2361 7.4801 2.244 3.9894 14.212 4.4881 1.496-2.4934z" fill="#bfc5b4" fill-rule="evenodd" stroke="#000"/>
   <path d="m-385.76 179.59s4.2314-5.6418 4.584-7.0523 5.6418-8.1102 5.6418-8.1102l7.4049-8.6391 9.5206-9.168 7.0523-5.6418 9.6969-7.0523 2.9963-1.9408 6.5257-2.4688c2.3522 0.82199 0.01978 0.04817 2.7255 1.2285l2.0366 1.8697 7.0491 10.832s0.35513 0.45926-0.98401 2.5454c-3.287 5.1207-2.434 3.669-1.3122 5.9126l0.35683-0.34792-1.5868-1.4105-0.70523-0.88154-5.9935 1.0588-9.8742 9.3434-7.4049 7.9338-13.928 14.634-7.2286 2.9972-2.8209 3.5262-8.8154-6.6997-4.9366-2.4683z" fill="#bfc5b4" fill-rule="evenodd" stroke="#000"/>
   <path d="m-418.13 176.46 2.9078-6.4714 4.7221-4.934 6.424-2.3222 2.4025-1.4459 14.395-5.6051c6.6387-2.0237 3.9506 0.58933 8.543-0.73802l14.268-3.6359 0.77417 0.25199-3.16 2.664-7.9641 9.3672-6.934 9.5577-4.4751 2.7258-4.5082 2.4064s-4.3654 5.686-10.428 7.8053c-2.6629 0.93094-2.4785 1.2406-9.8766-0.99735l-3.7307-3.2788-3.3604-5.3497z" fill="#bfc5b4" fill-rule="evenodd" stroke="#000"/>
   <path d="m-346.21 165.32 12.834-0.99735 17.727-1.2473 2.5488-0.874-1.9188-1.6101-9.1214-11.869-6.492 1.5073-3.2347 2.2473c-3.9478 4.1556-3.0154 2.8425-12.344 12.843z" fill="#bfc5b4" fill-rule="evenodd" stroke="#000"/>
   <path d="m-402.68 163.32 7.2089-2.4841 11.726-4.246 6.742-2.4947 3.246-5.9867 6.7314-9.4748 5.9841-6.4828c4.9971-3.5945 4.6543-3.3245 6.9814-4.9867l2.992-1.496 3.492-2.2454 2.2427-1.4927 1.496-2.994s-0.33676-2.0474-3.0329-4.9867c-2.366-2.5794-3.8852-3.8443-3.8852-3.8443l-3.4815-3.8126-7.054 2.6702-7.9788 6.2334-10.728 8.2301-7.2222 9.4735s-4.3179 6.7657-6.3126 8.7604-7.4029 8.4432-7.4029 8.4432l-4.81 7.5685-1.6728 3.4023 4.7381 2.246z" fill="#bfc5b4" fill-rule="evenodd" stroke="#000"/>
   <path d="m-455.05 155.59c4.1779 3.3731 8.1502 6.6504 14.725 9.4755l5.4907-2 10.476-3.8614 9.703-3.1919 12.071-3.8014 10.13-11.838 4.7387-7.2288-31.312 1.2876-12.322 1.2058-5.4854 4.7374-11.979 6.7348-6.2374 8.4808z" fill="#bfc5b4" fill-rule="evenodd" stroke="#000"/>
   <path d="m-372.7 146.74 9.2766-2.3019 7.2339-0.18496 6.524-5.1553 6.3682-4.5297 4.9454-2.857c-2.6779-0.53207-17.04-0.19987-23.13 0.39748l-4.3678 5.3041-6.8499 9.3273z" fill="#bfc5b4" fill-rule="evenodd" stroke="#000"/>
   <path d="m-437.84 133.64 1.496-1.496 8.7268-10.223 11.22-11.22 9.9735-8.4775 8.4774-5.9841 8.4775-4.9867 7.4234-3.6517s1.8021-0.58706 4.0461-1.5844c2.2785-1.0126 1.8746-1.1081 1.8746-1.1081l6.0474 6.8429 2.9221 3.9353 2.0013 2.7493-2.1108 2.3641-13.228 2.9195-9.4432 9.2505-11.902 11.524-8.0764 9.645-3.2414 0.24934-18.451 4.2474-5.9841 1.9861-5.2361-1.7454 4.9868-5.2361z" fill="#bfc5b4" fill-rule="evenodd" stroke="#000"/>
   <path d="m-466.08 141.13 8.9827-4.0276 1.8048-2.9604 5.4854-3.9894s7.4801-2.4934 9.4748-2.4934h7.9788l3.5791-3.7875 4.8984-5.1886 6.0659-6.6595 4.1978-3.8126h-3.781l-14.261 1.0607-14.101 1.376-10.68 3.4066-9.4913 3.8466-1.4974-0.27553-10.472 7.6799c-0.80508 5.2951-0.54781 7.2365-0.92304 5.5882 0.48589 1.2142-0.62148 2.2997-0.2741 2.3433 0.37093 1.6099 2.2416 2.3898 3.3719 4.3211l4.8458 2.9117 4.796 0.66056z" fill="#bfc5b4" fill-rule="evenodd" stroke="#000"/>
   <path d="m-398.17 120.76c6.8823-6.0826 3.1977-3.2688 7.477-6.9341l3.9268-4.0884 8.7652 2.7652 8 3-3.25 2.5-2.25 2.25-3 3-4.25 4.25-4.9268-0.01256-15.627-0.89645c0.73755-0.70387 2.7947-3.163 5.1343-5.8336z" fill="#bfc5b4" fill-rule="evenodd" stroke="#000"/>
   <path d="m-466 118 9.5-11 10-11.25 8.25-8.25 11.75-10.5 9-7 7-5 8.5-5 4.25-2.5 3.75-2.25 10.25 15.25-6.4268 4.8839-4.5732 3.6161-13.25 9-5.75 4.75-6 4.75-7.5 6.5-5 5.25-13.25 1.75-10.75 3-9.75 4z" fill="#bfc5b4" fill-rule="evenodd" stroke="#000"/>
   <path d="m-511.09 101.87-0.47487-2.3059 4.0555 15.935 7.8536 2.2097 5.3536-3.7019 3.7019-3.9393 14.601-9.0659 9-5 8.5-4.5 9.5-3 9.9749-0.2045 5.591-5.0381 16.116-13.646-10.182-1.6109h-28.5l-11.5 2.5-13.5 8.5-14.809 6.1516-4.443 4.7374-3.7537 3.5502-3.7522 4.0074-3.3336 4.4216z" fill="#bfc5b4" fill-rule="evenodd" stroke="#000"/>
   <path d="m-413.39 92.45c-0.19005 0.04565 0.05893-0.08839 7.3362 3.182l5.2149 2.2981s3.0611-1.9621 4.9497-3.182c1.6439-1.0618 5.3917-2.9168 5.3917-2.9168l2.5633-1.6794c-0.26511-1.4436-0.07468-0.98512-2.0329-3.6239l-3.7123-5.4801s-1.0165-2.0292-1.4142-1.7678c-0.98334 0.64636-1.4142 0.88388-1.4142 0.88388l-7.2478 4.8614-5.3033 3.7123-4.331 3.7123z" fill="#bfc5b4" fill-rule="evenodd" stroke="#000"/>
   <path d="m-556.14 231.75 24.042 11.667-12.728-18.031-8.4853-12.728s-2.1213-4.2426-4.2426-7.7782-4.2426-8.4853-4.2426-8.4853l-2.1213-8.4853v-10.607l4.9497-9.1924 14.142-12.021s7.7782-8.4853 10.607-9.1924 14.142-11.314 14.142-11.314l9.1924-10.607 3.5355-9.1924-2.2981-14.054-6.8943-4.331-9.8995-9.8995-8.4853-6.364-9.8995-2.8284-12.109 4.8614-9.104 7.1595-16.263 9.1924-25.456 15.733-31.908 18.208-1.149-11.844c-1.4142-3.7712-0.61872 7.4394-7.4246-10.076l-3.0052-9.1924v24.749l-1.0607 10.253-2.1213 40.659 16.263 11.314 14.496 7.7782 8.4853 5.3033 19.092 6.7175 25.809 12.728 14.142 9.8995z" fill="#acab9c" fill-rule="evenodd" stroke="#000"/>
   <path d="m-492.75 273c3.8798-1.5 9.5833-5.5 15-7.25l7.25-1.5 11 4.75 11-11 17.5-18.5 13.5-13 15-14-17.5-16-15-12.5-18-15-15-11-20.5-16-22.25-16.5-8.5 10-11.75 9.75-3.75 2.25-10.75 9.5s-10.25 9.25-12.25 10.75-5.25 8.75-5.25 8.75v11.5l2 9.75 10 17 11.25 17 8.25 11.25 11.75 9.75 13.25 9.75 13.75 10.5z" fill="#fdfcf4" fill-rule="evenodd" stroke="#000"/>
   <g transform="translate(-2.1897e-7 5)" fill-rule="evenodd" stroke="#000">
    <path d="m-459.25 206.75c4.5796 0.32715 9.4829-0.92617 13.713 1.2655 1.7302 2.5466 2.1803 6.1017 2.0532 9.2082-2.6122 4.0895-7.7642 5.8414-11.932 8.0699-6.3944 2.9419-13.492 3.7876-20.467 3.4564-4.384 0.56774-8.9877-0.89822-11.457-4.7394-3.0517-3.23-5.8321-6.751-7.5158-10.894-1.7932-5.5779-8.3345-2.696-12.708-3.376-6.6995-0.10512-13.491 0.36019-20.131 0.0806-4.5689-1.8084-9.755-4.0371-11.724-8.9221-3.062-4.0618-2.2609-9.4577-2.2511-14.223 0.02354-5.3209 4.1242-9.3128 7.7802-12.667 5.4943-3.1578 10.874-6.851 16.965-8.7346 5.3892-0.9931 10.86-0.10343 16.26 0.2977 4.4578 2.4412 10.285 3.1325 13.832 6.7367 4.563 6.1904 9.8406 11.967 12.906 19.111 2.5559 5.0728 5.3847 10.09 8.8735 14.555l5.8025 0.77408z" fill="#efb3bb"/>
    <path d="m-497.79 202.75c-7.3095-0.44983-14.675-0.5231-21.931-1.5019-4.39-1.3524-7.7137-4.8289-10.276-8.4981-0.91126-4.2312 1.4336-8.373 4.9556-10.606 4.2572-3.3399 10.114-4.8741 15.406-3.6825 4.2535 2.0018 6.22 6.6363 9.0731 10.117 3.731 4.9252 5.7993 10.791 8.4872 16.294 1.2818 3.3355 2.5549 6.579 4.8124 9.3987 2.3941 4.0023 6.0237 8.304 11.103 8.2771 7.17 0.82535 14.702 0.46326 21.271-2.8052 3.3093-0.41657 8.9329-5.0275 3.6601-7.1765-4.7425-1.0856-9.6839 1.6385-14.372-0.33511-4.5317-1.5694-5.7629-6.6635-7.6754-10.526-2.1718-4.9252-5.6896-9.0835-8.2591-13.797-4.2564-7.1935-10.289-14.22-18.788-16.153-4.1361-1.0368-8.4182-0.21737-12.619-0.67809-3.6629-0.10694-6.9939 1.6185-10.281 3.012-3.5495 1.8042-6.4386 4.5959-9.5058 7.0607-2.7514 2.6597-3.5518 6.6794-3.0417 10.348-0.54521 3.8368 1.0008 7.5931 4.1805 9.8034 5.011 3.8855 11.807 2.9329 17.727 3.2241 6.0705 0.04169 12.217-0.17262 18.205-0.91689-0.67473-0.37597-1.4504-0.4985-2.1316-0.85852z" fill="#bfc5b4"/>
    <path d="m-501.52 196.75c-5.3176-0.20384-10.707 0.53084-15.967-0.53325-2.6513-0.6589-5.012-2.093-7.4007-3.3644-1.7908-1.1272-2.0646-4.0118-0.35943-5.3433 2.4091-2.2437 5.4289-4.1124 8.8043-4.237 2.0116-0.22347 4.1914-1.1424 6.1228-0.10038 1.9921 1.4355 4.2059 2.8514 5.2306 5.1895 1.3949 2.7058 2.331 5.6137 3.5694 8.3889z" fill="#fff"/>
   </g>
   <path d="m-460.85 268.12 57.253-56.299 12.976 7.3933 15.28 7.3076h19.266l21.259-7.3076 15.28-7.972 20.594-7.3076 12.622-5.979 4.0999-5.234 11.991 7.4216 11.132 9.9649 21.353 10.287 6.6767 7.0658 3.2077 5.7038 2.3488 5.3146 4.2689 10.535-0.91391 4.3217-3.8006 4.3662-21.766 13.457-20.272 6.0123s-61.597 7.12-64.918 7.12-54.084-1.8558-50.4-1.8558c4.6503 0-29.822-2.6876-29.822-2.6876l-7.4525-0.79333-23.362-3.2764-8.0387-2.7328-8.8611-4.8267z" fill="#bfc5b4" fill-rule="evenodd" stroke="#000"/>
   <path d="m-514.85 26.563 19.93-9.3006 9.9649-3.3216 9.9649-1.993 5.5426-1.6038 9.3478 2.5433 6.3209 2.3349 5.3745 7.1729 11.69 10.354 17.528 19.723-18.601 3.3216s-14.615 1.993-17.273 3.3216-19.266 7.3076-19.266 7.3076l-15.944-15.944-8.6363-9.3006-15.944-14.615z" fill="none" stroke="#000"/>
   <path d="m-650.45 96.509 2.3766-15.532 1.8999-4.6776 4.5488-10.695 5.7775-13.635 3.872-9.6967 0.23488 22.513 0.1162 7.3272 0.29385 7.7046 8.4261 12.752-11.024 7.8549-7.1533 3.8651c-3.2702-2.6819-5.4611-4.3218-9.3687-7.7805z" fill="#acab9c" fill-rule="evenodd" stroke="#000"/>
   <path d="m-567.43 76.915 9.544 6.574-8.1626 6.9023-21.609 12.683-52.612 31.004-11.33-32.246 1.23-5.8039 8.6904 7.9858 19.26-11.509 19.26-0.23488 9.8648-2.3488 18.79-7.0463 7.0288-5.9214 0.04531-0.03892z" fill="#fdfcf4" fill-rule="evenodd" stroke="#000"/>
   <path d="m-567.69 77.003 11.509-9.1602 16.911-2.8185 20.669 4.6975 22.078 15.737-4.9324 5.4021-8.6552 11.006 0.23489-0.26764 2.2554 13.453-3.9348 10.569 58.939 45.407 37.8 31.693 10.804 9.8648 0.5-0.12099 18.28 9.6955 9.8752 5.2378 18.82-1.25 21.139-6.5765 17.851-8.9253 19.73-7.0463 11.274-5.637 4.2278-6.1068-11.744-12.683-3.758-1.4092-1.9093-4.6141-0.82082 7.223-1.5127 0.21424-1.7903 0.3616-7.1199 1.5127-1.879 7.516-20.669 12.683-19.73 0.46975-3.2883 0.46975-8.4555 5.4021-1.4093 2.1139-0.46975 0.9395-13.858-4.6975-1.879-4.2278 10.1-14.562s-7.9858-6.5765-9.8648-7.9858-4.2278-1.879-4.2278-1.879l-4.2278-0.3105-4.258 3.9778-5.4173 3.0383s-3.0661 1.4546-6.3544 0.51505-7.914-4.452-7.3974-4.051l-1.9952-4.1091 1.9346-6.1068 3.9929-4.4626 7.2812-3.5231-11.037-7.958-21.156 7.3592-11.387-0.87099-5.145-5.395 2.7278-9.0463 11.738-7.1674-12.767-5.9578-5.1216-0.55814-1.5811 3.0231-9.688 4.0232-7.2509-2.2326-1.9068-1.4371-3.0559-4.0813 0.9395-7.7509 10.804-7.9858-6.1068-2.1139-9.8648-4.9324-7.516-0.46975-5.4022 4.2278-5.637 3.0534-5.8719-1.6441c-1.5658-4.2278-1.6538-11.633-3.3717-14.009l-9.7536-7.6272c-2.9844-2.9658-8.9869-8.2549-9.3066-8.7207l-5.5208-4.1672-10.097-2.672-12.623 5.0486-9.6905-6.6068z" fill="#bcb5af" fill-rule="evenodd" stroke="#000"/>
   <path d="m-656.4 194.79 11.958 10.629 13.676 9.9316 26.379 11.018 49.241 20.789 36.263 16.689 12.3 6.9518 9.5758 4.5697-9.6092 10.435-22.231-11.958-17.273-7.4216-18.601-9.851-42.014-15.944s-22.47-8.4392-26.103-10.549c-6.3347-3.6774-15.588-10.046-15.588-10.046l-9.9649-9.9649-5.9053-10.401 7.8983-4.8783z" fill="#efb3bb" fill-rule="evenodd" stroke="#000"/>
   <path d="m-437.57 32.142 21.374 0.9395 22.078 21.962 10.335 15.148-5.1673 4.6975 7.516 11.979 4.9021-2.4674 9.6351 11.249 1.9294 2.4599-2.3741 2.6164 6.1068 8.4555-8.9253 6.1068-9.6299-11.744 12.683-2.8185 2.2579-2.3815-2.9658-3.6522-3.9881-4.7921-4.5223-5.4109-10.746 5.6673-7.7509-11.039 5.637-4.2278 5.8719-4.6975-10.804-15.032-14.971 8.9858-28.481-32.004z" fill="#bcb5af" fill-rule="evenodd" stroke="#000"/>
   <path d="m-494.16 272.4-15.773 17.652" fill="none" stroke="#000" stroke-width=".96323"/>
   <path d="m-381.86 223.65-5.1442 9.1014v6.7271l7.9142 1.9786 20.181 0.39571 36.801 0.79142 19.39-2.3743s17.016-0.79142 18.598-1.5828 13.058-2.77 13.058-2.77l14.246-3.9571 13.058-7.1228 1.1871-5.1442v-1.5828l8.31 5.54 1.1871 5.9357s-8.7057 3.5614-10.289 4.3528-13.454 5.54-13.454 5.54-11.08 4.7485-13.058 5.54-18.203 2.3743-22.16 3.1657-14.641 2.77-18.598 2.77-27.304 0.39571-27.304 0.39571l-27.304 0.79143-18.203-1.1871s-6.3314-3.5614-7.9142-4.7485-4.7485-6.3314-4.7485-6.3314l-0.79142-4.7485 2.3743-9.1014 3.9571-5.54 0.79143-1.1871 7.9142 4.3528z" fill="none" stroke="#000" stroke-dasharray="4, 8"/>
   <path transform="translate(-671.75,-22.75)" d="m361.25 242.75a1.625 1.25 0 1 1 -3.25 0 1.625 1.25 0 1 1 3.25 0z" fill="#bcb5af"/>
   <path transform="translate(-649.12 -32.75)" d="m361.25 242.75a1.625 1.25 0 1 1 -3.25 0 1.625 1.25 0 1 1 3.25 0z" fill="#bcb5af"/>
   <path transform="translate(-636.88 -38.5)" d="m361.25 242.75a1.625 1.25 0 1 1 -3.25 0 1.625 1.25 0 1 1 3.25 0z" fill="#bcb5af"/>
   <path transform="translate(-665.38 -14.75)" d="m361.25 242.75a1.625 1.25 0 1 1 -3.25 0 1.625 1.25 0 1 1 3.25 0z" fill="#bcb5af"/>
   <path transform="translate(-652.12 -19.75)" d="m361.25 242.75a1.625 1.25 0 1 1 -3.25 0 1.625 1.25 0 1 1 3.25 0z" fill="#bcb5af"/>
   <path transform="translate(-659.88 -28.25)" d="m361.25 242.75a1.625 1.25 0 1 1 -3.25 0 1.625 1.25 0 1 1 3.25 0z" fill="#bcb5af"/>
   <path transform="translate(-630.12 -31.25)" d="m361.25 242.75a1.625 1.25 0 1 1 -3.25 0 1.625 1.25 0 1 1 3.25 0z" fill="#bcb5af"/>
   <path transform="translate(-635.12 -18.25)" d="m361.25 242.75a1.625 1.25 0 1 1 -3.25 0 1.625 1.25 0 1 1 3.25 0z" fill="#bcb5af"/>
   <path transform="translate(-646.88 -12.75)" d="m361.25 242.75a1.625 1.25 0 1 1 -3.25 0 1.625 1.25 0 1 1 3.25 0z" fill="#bcb5af"/>
   <path transform="translate(-641.88 -24.75)" d="m361.25 242.75a1.625 1.25 0 1 1 -3.25 0 1.625 1.25 0 1 1 3.25 0z" fill="#bcb5af"/>
   <text transform="matrix(.88633,-.46304,.46304,.88633,0,0)" x="-443.89822" y="-164.735" fill="#efb3bb" font-family="Copperplate Gothic Light" font-size="14">
    <tspan x="-443.89822" y="-164.735">Alien</tspan>
    <tspan x="-443.89822" y="-147.23499"/>
   </text>
   <g transform="matrix(.25965 -.3177 .30544 .24614 -404.94 -176.24)" fill-rule="evenodd" stroke="#000">
    <path d="m-459.25 206.75c4.5796 0.32715 9.4829-0.92617 13.713 1.2655 1.7302 2.5466 2.1803 6.1017 2.0532 9.2082-2.6122 4.0895-7.7642 5.8414-11.932 8.0699-6.3944 2.9419-13.492 3.7876-20.467 3.4564-4.384 0.56774-8.9877-0.89822-11.457-4.7394-3.0517-3.23-5.8321-6.751-7.5158-10.894-1.7932-5.5779-8.3345-2.696-12.708-3.376-6.6995-0.10512-13.491 0.36019-20.131 0.0806-4.5689-1.8084-9.755-4.0371-11.724-8.9221-3.062-4.0618-2.2609-9.4577-2.2511-14.223 0.02354-5.3209 4.1242-9.3128 7.7802-12.667 5.4943-3.1578 10.874-6.851 16.965-8.7346 5.3892-0.9931 10.86-0.10343 16.26 0.2977 4.4578 2.4412 10.285 3.1325 13.832 6.7367 4.563 6.1904 9.8406 11.967 12.906 19.111 2.5559 5.0728 5.3847 10.09 8.8735 14.555l5.8025 0.77408z" fill="#efb3bb"/>
    <path d="m-497.79 202.75c-7.3095-0.44983-14.675-0.5231-21.931-1.5019-4.39-1.3524-7.7137-4.8289-10.276-8.4981-0.91126-4.2312 1.4336-8.373 4.9556-10.606 4.2572-3.3399 10.114-4.8741 15.406-3.6825 4.2535 2.0018 6.22 6.6363 9.0731 10.117 3.731 4.9252 5.7993 10.791 8.4872 16.294 1.2818 3.3355 2.5549 6.579 4.8124 9.3987 2.3941 4.0023 6.0237 8.304 11.103 8.2771 7.17 0.82535 14.702 0.46326 21.271-2.8052 3.3093-0.41657 8.9329-5.0275 3.6601-7.1765-4.7425-1.0856-9.6839 1.6385-14.372-0.33511-4.5317-1.5694-5.7629-6.6635-7.6754-10.526-2.1718-4.9252-5.6896-9.0835-8.2591-13.797-4.2564-7.1935-10.289-14.22-18.788-16.153-4.1361-1.0368-8.4182-0.21737-12.619-0.67809-3.6629-0.10694-6.9939 1.6185-10.281 3.012-3.5495 1.8042-6.4386 4.5959-9.5058 7.0607-2.7514 2.6597-3.5518 6.6794-3.0417 10.348-0.54521 3.8368 1.0008 7.5931 4.1805 9.8034 5.011 3.8855 11.807 2.9329 17.727 3.2241 6.0705 0.04169 12.217-0.17262 18.205-0.91689-0.67473-0.37597-1.4504-0.4985-2.1316-0.85852z" fill="#bfc5b4"/>
    <path d="m-501.52 196.75c-5.3176-0.20384-10.707 0.53084-15.967-0.53325-2.6513-0.6589-5.012-2.093-7.4007-3.3644-1.7908-1.1272-2.0646-4.0118-0.35943-5.3433 2.4091-2.2437 5.4289-4.1124 8.8043-4.237 2.0116-0.22347 4.1914-1.1424 6.1228-0.10038 1.9921 1.4355 4.2059 2.8514 5.2306 5.1895 1.3949 2.7058 2.331 5.6137 3.5694 8.3889z" fill="#fff"/>
   </g>
  </g>
  <path d="m-628.52 80.971-8.7668-12.882-0.89457-36.856 2.5048-10.914 22.901-2.8626 15.923-2.8626h16.818l18.07 5.7252 6.6198 9.1246-5.5463 13.419-0.53675 13.061-12.524 10.019-6.0831 5.1885-18.786 7.3355-9.8402 2.3259-19.859 0.17891z" fill="url(#a)" fill-rule="evenodd" stroke="#000"/>
 </g>
 <g transform="matrix(.99017 -.13989 .13989 .99017 639.46 -6.7525)">
  <g transform="translate(-5.7252 -11.45)">
   <path d="m-666.27 200.4c0.87057-0.52556 0.36609-2.504 0.55374-3.6463 0.28683-1.746 2.9541-3.663 3.4142-5.8593 0.98669-4.7103 3.5069-9.4401 5.744-11.655 3.0313-3.001 15.543-0.62498 20.702 7.0088 11.714 7.3722 22.335 11.151 34.982 16.716 16.91 7.441 31.314 18.664 46.67 29.099 19.256 10.015 38.249 21.239 53.593 36.722 13.3 4.7448 21.896-9.9812 35.894-2.082 14.704 4.7509 29.536 9.3121 45.058 10.098 48.662 6.8417 102.91 6.0634 151.49 0.51649 17.224-3.6884 33.617-16.403 46.962-27.758 5.0914 19.873 0.28278 49.67-19.694 59.703-16.935 9.2774-36.197 13.567-54.944 17.424-27.779 2.5901-55.773 2.1465-83.647 2.5927-32.802-0.44544-66.859-4.0748-95.68-20.977-39.07-18.21-73.846-46.182-116.4-56.253-23.23-10.778-52.604-14.856-67.757-37.688-2.5609-4.5196-6.2456-8.8088-6.9402-13.962z" fill="#a4a59d" fill-rule="evenodd" stroke="#000"/>
   <path d="m-494.07 273.12 16.256-7.9641 6.781-0.80546s23.65 10.301 26.471 11.006 22.181 1.859 22.181 1.859l9.3158 1.9947s32.078 3.6973 35.604 2.992 47.985 0.63435 47.985 0.63435l60.986-5.6773 21.912-6.2114 19.826-13.036 5.4509-8.674-9.3046-21.338-7.0523-7.0523s-19.041-9.168-21.862-11.989-15.515-12.694-15.515-12.694l-7.0523-4.2314-11.284-11.284-4.2314-2.8209-4.2314-9.168-4.9366-4.4044s-4.0584-1.4105-6.7909-2.3827c-2.6577-0.94565-7.1085-8.5227-7.1085-8.5227l-1.8094-2.4977-5.3325-18.338-4.7762-2.5709-4.5971 2.3209-9.7837-8.0337 3.5262-4.9366-10.578-11.989-7.7575 1.4105-7.0523-8.4628 3.5091-2.5007-11.017-12.354-5.1866 1.4552-4.4814-6.0523-4.4814-5.9366 6.8471-4.4814-10.578-15.265-11.989-11.989-10.578-9.8732h-19.041l-12.694-11.284-5.6418-6.3471-15.515-5.6418-14.81-3.5262-6.8838-0.50072-11.452 0.74613-13.481 4.3999s-8.2174 3.0254-11.038 5.6828c-2.0534 1.9343-10.742 8.7131-10.742 8.7131l-11.989 16.926-4.2314 12.694-1.4105 11.989-7.7575 7.0523-10.578 8.4628-4.9366 5.6418-13.399 2.1157-10.578 2.8209h-13.399l-6.3471-0.70523-8.4628-12.694v-7.0523s-0.70524-6.3471-0.70524-9.168v-22.567l2.1157-8.8154 6.6997-1.4105 14.457-1.7631s1.98 0.121 6.9166-0.58423 14.24-2.2367 20.587-2.2367h7.7575l9.8732 3.4052 7.7575 2.9419 7.0523 10.578-7.0523-10.578-17.278-5.9945-8.1957 0.02506-9.6019-0.13568-22.753 3.9894-16.22 1.4105-2.1157 9.5206-6.3471 16.573-9.8732 23.273-3.5262 21.157v21.862l-1.4105 14.81-1.4105 38.767 10.629 7.7783 19.077 11.113 7.9348 5.2642 19.717 6.781s0.605 1.1892 25.368 12.16c2.5791 1.1427 15.48 11.54 15.48 11.54l22.426 10.094 39.75 30.582z" fill="none" stroke="#000"/>
   <path d="m-555.61 67.613 0.8513-12.588 2.2263-6.1552 3.6013-8.3314 11.334-15.736 3.7223-2.1053s7.4522-6.5266 9.4468-7.5239 4.2239-2.4746 6.7173-3.472 3.1724-1.5398 3.1724-1.5398l13.522-3.8174 16.218-0.12817 6.5683 1.2644s3.6852 0.9792 5.9874 1.9368c2.2585 0.9395 2.6396 0.61989 5.4822 1.5539 12.152 3.9929 12.536 3.7616 13.028 4.2842 1.7699 1.8812 3.2047 4.9099 5.1994 7.4033s11.299 10.006 11.299 10.006l27.821 31.166 10.219-5.2367 5.2394-3.2407 9.8879 14.754-10.885 9.1827 7.4801 11.006 10.618-4.5235s12.364 12.926 12.322 12.821c-0.41492-1.0469-15.083 5.071-15.083 5.071l10.241 12.15 8.4671-7.0419 6.6789-1.9904c3.6219 4.73 7.4389 8.5296 10.806 12.794l-4.3258 2.5698 8.9104 8.7048s3.6091 0.2275 5.8564-0.8525c1.2895-0.61968 5.5407 3.3092 5.5407 3.3092l4.9439 17.176 1.8967 3.4865 6.927 7.9678 1.5935-0.13418 5.6947 2.2003 2.6896 1.0578 3.9894 8.9761-0.99735 6.4828-10.472 2.4934-1.9947 6.9814-5.9841 4.4881-4.4881 2.992s-8.9761 5.4854-11.469 5.4854h-14.96l-6.5777 0.67545-8.174 5.3904s-1.5408 2.992-7.1899 1.4142c-8.6586-2.4184-8.4774-2.992-8.4774-2.992l-2.4934-3.9894 4.9867-6.4828 4.4881-4.4881 1.496-2.4934-9.4748-8.4774-2.992-1.496s-6.4814-3.2447-6.9801-0.75133-3.7407 4.9881-3.7407 4.9881l-4.7381 2.7447h-4.9867l-8.9761-3.4907-3.9894-5.9841 2.4934-4.4881 3.9894-4.9867s-0.49867-1.9947 3.4907-2.4934 2.7381-0.99867 2.7381-0.99867l2.7474-0.99603-5.7288-2.7354-7.2394-4.996s0.00265-0.74602-2.9894 0.25133-2.992 0-5.9841 0.99735-7.067 2.9065-7.067 2.9065l-5.0472 2.4934h-4.342l-2.992-2.9065-6.1405-5.8985s2.3828-2.9316 3.8788-5.4249 4.5091-4.8868 7.0025-6.3828-2.254-2.496-0.00929-0.99469c1.7091 1.1431-3.2354-1.7447-3.2354-1.7447l-7.4801-3.9894s-0.49868-0.49867-3.4907-0.99735-2.992 2.992-4.9867 3.4907-5.9841 1.9947-5.9841 1.9947-3.4907 1.496-5.9841 0.99734-5.4854-2.992-5.4854-2.992l-2.992-5.9841 0.99735-5.4854 6.4828-3.4907 3.9894-1.9947 3.4907-1.9947-7.4801-1.9947-4.7407-2.2394-2.742-1.5053-4.9841-2.2394-6.9814-0.49868-3.4907 3.9894-5.4854 3.4907h-5.9841l-2.4934-4.4881-1.3127-6.0725-1.0973-5.3769 2.8957-4.4894 3.7522-4.0929 3.498-3.2002 2.308-2.4505 1.8292-2.1299-7.8838-5.5989-6.9814-4.9867-7.4801-4.4881s-5.9841-1.9947-7.9788-2.4934-12.467-2.4934-12.467-2.4934l-11.968 1.496-4.5736 0.79079z" fill="#acab9c" fill-rule="evenodd" stroke="#000"/>
   <path d="m-365.03 209.44 8.7268-5.9841 9.2255-5.4854 7.4801-3.9894s14.212-7.9788 16.207-8.4774 12.779-3.3298 12.779-3.3298 0.46678-0.02527 2.4807-0.38112c1.4597-0.25792 3.3428-0.76895 4.2765-0.84973 2.1377-0.18496 3.153-0.30606 3.153-0.30606l0.99735-7.6002-3.9894-7.7294-1.9947-0.99735-2.992-1.2467-3.4023-1.0857-3.0804 1.6411-4.9867 1.938-3.4907 0.99734-5.4854 1.9947-16.456 6.4828-23.438 10.472-3.2414 4.2387-5.4854 6.2334-5.2361 7.4801 2.244 3.9894 14.212 4.4881 1.496-2.4934z" fill="#bfc5b4" fill-rule="evenodd" stroke="#000"/>
   <path d="m-385.76 179.59s4.2314-5.6418 4.584-7.0523 5.6418-8.1102 5.6418-8.1102l7.4049-8.6391 9.5206-9.168 7.0523-5.6418 9.6969-7.0523 2.9963-1.9408 6.5257-2.4688c2.3522 0.82199 0.01978 0.04817 2.7255 1.2285l2.0366 1.8697 7.0491 10.832s0.35513 0.45926-0.98401 2.5454c-3.287 5.1207-2.434 3.669-1.3122 5.9126l0.35683-0.34792-1.5868-1.4105-0.70523-0.88154-5.9935 1.0588-9.8742 9.3434-7.4049 7.9338-13.928 14.634-7.2286 2.9972-2.8209 3.5262-8.8154-6.6997-4.9366-2.4683z" fill="#bfc5b4" fill-rule="evenodd" stroke="#000"/>
   <path d="m-418.13 176.46 2.9078-6.4714 4.7221-4.934 6.424-2.3222 2.4025-1.4459 14.395-5.6051c6.6387-2.0237 3.9506 0.58933 8.543-0.73802l14.268-3.6359 0.77417 0.25199-3.16 2.664-7.9641 9.3672-6.934 9.5577-4.4751 2.7258-4.5082 2.4064s-4.3654 5.686-10.428 7.8053c-2.6629 0.93094-2.4785 1.2406-9.8766-0.99735l-3.7307-3.2788-3.3604-5.3497z" fill="#bfc5b4" fill-rule="evenodd" stroke="#000"/>
   <path d="m-346.21 165.32 12.834-0.99735 17.727-1.2473 2.5488-0.874-1.9188-1.6101-9.1214-11.869-6.492 1.5073-3.2347 2.2473c-3.9478 4.1556-3.0154 2.8425-12.344 12.843z" fill="#bfc5b4" fill-rule="evenodd" stroke="#000"/>
   <path d="m-402.68 163.32 7.2089-2.4841 11.726-4.246 6.742-2.4947 3.246-5.9867 6.7314-9.4748 5.9841-6.4828c4.9971-3.5945 4.6543-3.3245 6.9814-4.9867l2.992-1.496 3.492-2.2454 2.2427-1.4927 1.496-2.994s-0.33676-2.0474-3.0329-4.9867c-2.366-2.5794-3.8852-3.8443-3.8852-3.8443l-3.4815-3.8126-7.054 2.6702-7.9788 6.2334-10.728 8.2301-7.2222 9.4735s-4.3179 6.7657-6.3126 8.7604-7.4029 8.4432-7.4029 8.4432l-4.81 7.5685-1.6728 3.4023 4.7381 2.246z" fill="#bfc5b4" fill-rule="evenodd" stroke="#000"/>
   <path d="m-455.05 155.59c4.1779 3.3731 8.1502 6.6504 14.725 9.4755l5.4907-2 10.476-3.8614 9.703-3.1919 12.071-3.8014 10.13-11.838 4.7387-7.2288-31.312 1.2876-12.322 1.2058-5.4854 4.7374-11.979 6.7348-6.2374 8.4808z" fill="#bfc5b4" fill-rule="evenodd" stroke="#000"/>
   <path d="m-372.7 146.74 9.2766-2.3019 7.2339-0.18496 6.524-5.1553 6.3682-4.5297 4.9454-2.857c-2.6779-0.53207-17.04-0.19987-23.13 0.39748l-4.3678 5.3041-6.8499 9.3273z" fill="#bfc5b4" fill-rule="evenodd" stroke="#000"/>
   <path d="m-437.84 133.64 1.496-1.496 8.7268-10.223 11.22-11.22 9.9735-8.4775 8.4774-5.9841 8.4775-4.9867 7.4234-3.6517s1.8021-0.58706 4.0461-1.5844c2.2785-1.0126 1.8746-1.1081 1.8746-1.1081l6.0474 6.8429 2.9221 3.9353 2.0013 2.7493-2.1108 2.3641-13.228 2.9195-9.4432 9.2505-11.902 11.524-8.0764 9.645-3.2414 0.24934-18.451 4.2474-5.9841 1.9861-5.2361-1.7454 4.9868-5.2361z" fill="#bfc5b4" fill-rule="evenodd" stroke="#000"/>
   <path d="m-466.08 141.13 8.9827-4.0276 1.8048-2.9604 5.4854-3.9894s7.4801-2.4934 9.4748-2.4934h7.9788l3.5791-3.7875 4.8984-5.1886 6.0659-6.6595 4.1978-3.8126h-3.781l-14.261 1.0607-14.101 1.376-10.68 3.4066-9.4913 3.8466-1.4974-0.27553-10.472 7.6799c-0.80508 5.2951-0.54781 7.2365-0.92304 5.5882 0.48589 1.2142-0.62148 2.2997-0.2741 2.3433 0.37093 1.6099 2.2416 2.3898 3.3719 4.3211l4.8458 2.9117 4.796 0.66056z" fill="#bfc5b4" fill-rule="evenodd" stroke="#000"/>
   <path d="m-398.17 120.76c6.8823-6.0826 3.1977-3.2688 7.477-6.9341l3.9268-4.0884 8.7652 2.7652 8 3-3.25 2.5-2.25 2.25-3 3-4.25 4.25-4.9268-0.01256-15.627-0.89645c0.73755-0.70387 2.7947-3.163 5.1343-5.8336z" fill="#bfc5b4" fill-rule="evenodd" stroke="#000"/>
   <path d="m-466 118 9.5-11 10-11.25 8.25-8.25 11.75-10.5 9-7 7-5 8.5-5 4.25-2.5 3.75-2.25 10.25 15.25-6.4268 4.8839-4.5732 3.6161-13.25 9-5.75 4.75-6 4.75-7.5 6.5-5 5.25-13.25 1.75-10.75 3-9.75 4z" fill="#bfc5b4" fill-rule="evenodd" stroke="#000"/>
   <path d="m-511.09 101.87-0.47487-2.3059 4.0555 15.935 7.8536 2.2097 5.3536-3.7019 3.7019-3.9393 14.601-9.0659 9-5 8.5-4.5 9.5-3 9.9749-0.2045 5.591-5.0381 16.116-13.646-10.182-1.6109h-28.5l-11.5 2.5-13.5 8.5-14.809 6.1516-4.443 4.7374-3.7537 3.5502-3.7522 4.0074-3.3336 4.4216z" fill="#bfc5b4" fill-rule="evenodd" stroke="#000"/>
   <path d="m-413.39 92.45c-0.19005 0.04565 0.05893-0.08839 7.3362 3.182l5.2149 2.2981s3.0611-1.9621 4.9497-3.182c1.6439-1.0618 5.3917-2.9168 5.3917-2.9168l2.5633-1.6794c-0.26511-1.4436-0.07468-0.98512-2.0329-3.6239l-3.7123-5.4801s-1.0165-2.0292-1.4142-1.7678c-0.98334 0.64636-1.4142 0.88388-1.4142 0.88388l-7.2478 4.8614-5.3033 3.7123-4.331 3.7123z" fill="#bfc5b4" fill-rule="evenodd" stroke="#000"/>
   <path d="m-556.14 231.75 24.042 11.667-12.728-18.031-8.4853-12.728s-2.1213-4.2426-4.2426-7.7782-4.2426-8.4853-4.2426-8.4853l-2.1213-8.4853v-10.607l4.9497-9.1924 14.142-12.021s7.7782-8.4853 10.607-9.1924 14.142-11.314 14.142-11.314l9.1924-10.607 3.5355-9.1924-2.2981-14.054-6.8943-4.331-9.8995-9.8995-8.4853-6.364-9.8995-2.8284-12.109 4.8614-9.104 7.1595-16.263 9.1924-25.456 15.733-31.908 18.208-1.149-11.844c-1.4142-3.7712-0.61872 7.4394-7.4246-10.076l-3.0052-9.1924v24.749l-1.0607 10.253-2.1213 40.659 16.263 11.314 14.496 7.7782 8.4853 5.3033 19.092 6.7175 25.809 12.728 14.142 9.8995z" fill="#acab9c" fill-rule="evenodd" stroke="#000"/>
   <path d="m-492.75 273c3.8798-1.5 9.5833-5.5 15-7.25l7.25-1.5 11 4.75 11-11 17.5-18.5 13.5-13 15-14-17.5-16-15-12.5-18-15-15-11-20.5-16-22.25-16.5-8.5 10-11.75 9.75-3.75 2.25-10.75 9.5s-10.25 9.25-12.25 10.75-5.25 8.75-5.25 8.75v11.5l2 9.75 10 17 11.25 17 8.25 11.25 11.75 9.75 13.25 9.75 13.75 10.5z" fill="#fdfcf4" fill-rule="evenodd" stroke="#000"/>
   <g transform="translate(-2.1897e-7 5)" fill-rule="evenodd" stroke="#000">
    <path d="m-459.25 206.75c4.5796 0.32715 9.4829-0.92617 13.713 1.2655 1.7302 2.5466 2.1803 6.1017 2.0532 9.2082-2.6122 4.0895-7.7642 5.8414-11.932 8.0699-6.3944 2.9419-13.492 3.7876-20.467 3.4564-4.384 0.56774-8.9877-0.89822-11.457-4.7394-3.0517-3.23-5.8321-6.751-7.5158-10.894-1.7932-5.5779-8.3345-2.696-12.708-3.376-6.6995-0.10512-13.491 0.36019-20.131 0.0806-4.5689-1.8084-9.755-4.0371-11.724-8.9221-3.062-4.0618-2.2609-9.4577-2.2511-14.223 0.02354-5.3209 4.1242-9.3128 7.7802-12.667 5.4943-3.1578 10.874-6.851 16.965-8.7346 5.3892-0.9931 10.86-0.10343 16.26 0.2977 4.4578 2.4412 10.285 3.1325 13.832 6.7367 4.563 6.1904 9.8406 11.967 12.906 19.111 2.5559 5.0728 5.3847 10.09 8.8735 14.555l5.8025 0.77408z" fill="#efb3bb"/>
    <path d="m-497.79 202.75c-7.3095-0.44983-14.675-0.5231-21.931-1.5019-4.39-1.3524-7.7137-4.8289-10.276-8.4981-0.91126-4.2312 1.4336-8.373 4.9556-10.606 4.2572-3.3399 10.114-4.8741 15.406-3.6825 4.2535 2.0018 6.22 6.6363 9.0731 10.117 3.731 4.9252 5.7993 10.791 8.4872 16.294 1.2818 3.3355 2.5549 6.579 4.8124 9.3987 2.3941 4.0023 6.0237 8.304 11.103 8.2771 7.17 0.82535 14.702 0.46326 21.271-2.8052 3.3093-0.41657 8.9329-5.0275 3.6601-7.1765-4.7425-1.0856-9.6839 1.6385-14.372-0.33511-4.5317-1.5694-5.7629-6.6635-7.6754-10.526-2.1718-4.9252-5.6896-9.0835-8.2591-13.797-4.2564-7.1935-10.289-14.22-18.788-16.153-4.1361-1.0368-8.4182-0.21737-12.619-0.67809-3.6629-0.10694-6.9939 1.6185-10.281 3.012-3.5495 1.8042-6.4386 4.5959-9.5058 7.0607-2.7514 2.6597-3.5518 6.6794-3.0417 10.348-0.54521 3.8368 1.0008 7.5931 4.1805 9.8034 5.011 3.8855 11.807 2.9329 17.727 3.2241 6.0705 0.04169 12.217-0.17262 18.205-0.91689-0.67473-0.37597-1.4504-0.4985-2.1316-0.85852z" fill="#bfc5b4"/>
    <path d="m-501.52 196.75c-5.3176-0.20384-10.707 0.53084-15.967-0.53325-2.6513-0.6589-5.012-2.093-7.4007-3.3644-1.7908-1.1272-2.0646-4.0118-0.35943-5.3433 2.4091-2.2437 5.4289-4.1124 8.8043-4.237 2.0116-0.22347 4.1914-1.1424 6.1228-0.10038 1.9921 1.4355 4.2059 2.8514 5.2306 5.1895 1.3949 2.7058 2.331 5.6137 3.5694 8.3889z" fill="#fff"/>
   </g>
   <path d="m-460.85 268.12 57.253-56.299 12.976 7.3933 15.28 7.3076h19.266l21.259-7.3076 15.28-7.972 20.594-7.3076 12.622-5.979 4.0999-5.234 11.991 7.4216 11.132 9.9649 21.353 10.287 6.6767 7.0658 3.2077 5.7038 2.3488 5.3146 4.2689 10.535-0.91391 4.3217-3.8006 4.3662-21.766 13.457-20.272 6.0123s-61.597 7.12-64.918 7.12-54.084-1.8558-50.4-1.8558c4.6503 0-29.822-2.6876-29.822-2.6876l-7.4525-0.79333-23.362-3.2764-8.0387-2.7328-8.8611-4.8267z" fill="#bfc5b4" fill-rule="evenodd" stroke="#000"/>
   <path d="m-514.85 26.563 19.93-9.3006 9.9649-3.3216 9.9649-1.993 5.5426-1.6038 9.3478 2.5433 6.3209 2.3349 5.3745 7.1729 11.69 10.354 17.528 19.723-18.601 3.3216s-14.615 1.993-17.273 3.3216-19.266 7.3076-19.266 7.3076l-15.944-15.944-8.6363-9.3006-15.944-14.615z" fill="none" stroke="#000"/>
   <path d="m-650.45 96.509 2.3766-15.532 1.8999-4.6776 4.5488-10.695 5.7775-13.635 3.872-9.6967 0.23488 22.513 0.1162 7.3272 0.29385 7.7046 8.4261 12.752-11.024 7.8549-7.1533 3.8651c-3.2702-2.6819-5.4611-4.3218-9.3687-7.7805z" fill="#acab9c" fill-rule="evenodd" stroke="#000"/>
   <path d="m-567.43 76.915 9.544 6.574-8.1626 6.9023-21.609 12.683-52.612 31.004-11.33-32.246 1.23-5.8039 8.6904 7.9858 19.26-11.509 19.26-0.23488 9.8648-2.3488 18.79-7.0463 7.0288-5.9214 0.04531-0.03892z" fill="#fdfcf4" fill-rule="evenodd" stroke="#000"/>
   <path d="m-567.69 77.003 11.509-9.1602 16.911-2.8185 20.669 4.6975 22.078 15.737-4.9324 5.4021-8.6552 11.006 0.23489-0.26764 2.2554 13.453-3.9348 10.569 58.939 45.407 37.8 31.693 10.804 9.8648 0.5-0.12099 18.28 9.6955 9.8752 5.2378 18.82-1.25 21.139-6.5765 17.851-8.9253 19.73-7.0463 11.274-5.637 4.2278-6.1068-11.744-12.683-3.758-1.4092-1.9093-4.6141-0.82082 7.223-1.5127 0.21424-1.7903 0.3616-7.1199 1.5127-1.879 7.516-20.669 12.683-19.73 0.46975-3.2883 0.46975-8.4555 5.4021-1.4093 2.1139-0.46975 0.9395-13.858-4.6975-1.879-4.2278 10.1-14.562s-7.9858-6.5765-9.8648-7.9858-4.2278-1.879-4.2278-1.879l-4.2278-0.3105-4.258 3.9778-5.4173 3.0383s-3.0661 1.4546-6.3544 0.51505-7.914-4.452-7.3974-4.051l-1.9952-4.1091 1.9346-6.1068 3.9929-4.4626 7.2812-3.5231-11.037-7.958-21.156 7.3592-11.387-0.87099-5.145-5.395 2.7278-9.0463 11.738-7.1674-12.767-5.9578-5.1216-0.55814-1.5811 3.0231-9.688 4.0232-7.2509-2.2326-1.9068-1.4371-3.0559-4.0813 0.9395-7.7509 10.804-7.9858-6.1068-2.1139-9.8648-4.9324-7.516-0.46975-5.4022 4.2278-5.637 3.0534-5.8719-1.6441c-1.5658-4.2278-1.6538-11.633-3.3717-14.009l-9.7536-7.6272c-2.9844-2.9658-8.9869-8.2549-9.3066-8.7207l-5.5208-4.1672-10.097-2.672-12.623 5.0486-9.6905-6.6068z" fill="#bcb5af" fill-rule="evenodd" stroke="#000"/>
   <path d="m-656.4 194.79 11.958 10.629 13.676 9.9316 26.379 11.018 49.241 20.789 36.263 16.689 12.3 6.9518 9.5758 4.5697-9.6092 10.435-22.231-11.958-17.273-7.4216-18.601-9.851-42.014-15.944s-22.47-8.4392-26.103-10.549c-6.3347-3.6774-15.588-10.046-15.588-10.046l-9.9649-9.9649-5.9053-10.401 7.8983-4.8783z" fill="#efb3bb" fill-rule="evenodd" stroke="#000"/>
   <path d="m-437.57 32.142 21.374 0.9395 22.078 21.962 10.335 15.148-5.1673 4.6975 7.516 11.979 4.9021-2.4674 9.6351 11.249 1.9294 2.4599-2.3741 2.6164 6.1068 8.4555-8.9253 6.1068-9.6299-11.744 12.683-2.8185 2.2579-2.3815-2.9658-3.6522-3.9881-4.7921-4.5223-5.4109-10.746 5.6673-7.7509-11.039 5.637-4.2278 5.8719-4.6975-10.804-15.032-14.971 8.9858-28.481-32.004z" fill="#bcb5af" fill-rule="evenodd" stroke="#000"/>
   <path d="m-494.16 272.4-15.773 17.652" fill="none" stroke="#000" stroke-width=".96323"/>
   <path d="m-381.86 223.65-5.1442 9.1014v6.7271l7.9142 1.9786 20.181 0.39571 36.801 0.79142 19.39-2.3743s17.016-0.79142 18.598-1.5828 13.058-2.77 13.058-2.77l14.246-3.9571 13.058-7.1228 1.1871-5.1442v-1.5828l8.31 5.54 1.1871 5.9357s-8.7057 3.5614-10.289 4.3528-13.454 5.54-13.454 5.54-11.08 4.7485-13.058 5.54-18.203 2.3743-22.16 3.1657-14.641 2.77-18.598 2.77-27.304 0.39571-27.304 0.39571l-27.304 0.79143-18.203-1.1871s-6.3314-3.5614-7.9142-4.7485-4.7485-6.3314-4.7485-6.3314l-0.79142-4.7485 2.3743-9.1014 3.9571-5.54 0.79143-1.1871 7.9142 4.3528z" fill="none" stroke="#000" stroke-dasharray="4, 8"/>
   <path transform="translate(-671.75,-22.75)" d="m361.25 242.75a1.625 1.25 0 1 1 -3.25 0 1.625 1.25 0 1 1 3.25 0z" fill="#bcb5af"/>
   <path transform="translate(-649.12 -32.75)" d="m361.25 242.75a1.625 1.25 0 1 1 -3.25 0 1.625 1.25 0 1 1 3.25 0z" fill="#bcb5af"/>
   <path transform="translate(-636.88 -38.5)" d="m361.25 242.75a1.625 1.25 0 1 1 -3.25 0 1.625 1.25 0 1 1 3.25 0z" fill="#bcb5af"/>
   <path transform="translate(-665.38 -14.75)" d="m361.25 242.75a1.625 1.25 0 1 1 -3.25 0 1.625 1.25 0 1 1 3.25 0z" fill="#bcb5af"/>
   <path transform="translate(-652.12 -19.75)" d="m361.25 242.75a1.625 1.25 0 1 1 -3.25 0 1.625 1.25 0 1 1 3.25 0z" fill="#bcb5af"/>
   <path transform="translate(-659.88 -28.25)" d="m361.25 242.75a1.625 1.25 0 1 1 -3.25 0 1.625 1.25 0 1 1 3.25 0z" fill="#bcb5af"/>
   <path transform="translate(-630.12 -31.25)" d="m361.25 242.75a1.625 1.25 0 1 1 -3.25 0 1.625 1.25 0 1 1 3.25 0z" fill="#bcb5af"/>
   <path transform="translate(-635.12 -18.25)" d="m361.25 242.75a1.625 1.25 0 1 1 -3.25 0 1.625 1.25 0 1 1 3.25 0z" fill="#bcb5af"/>
   <path transform="translate(-646.88 -12.75)" d="m361.25 242.75a1.625 1.25 0 1 1 -3.25 0 1.625 1.25 0 1 1 3.25 0z" fill="#bcb5af"/>
   <path transform="translate(-641.88 -24.75)" d="m361.25 242.75a1.625 1.25 0 1 1 -3.25 0 1.625 1.25 0 1 1 3.25 0z" fill="#bcb5af"/>
   <text transform="matrix(.88633,-.46304,.46304,.88633,0,0)" x="-443.89822" y="-164.735" fill="#efb3bb" font-family="Copperplate Gothic Light" font-size="14">
    <tspan x="-443.89822" y="-164.735">Alien</tspan>
    <tspan x="-443.89822" y="-147.23499"/>
   </text>
   <g transform="matrix(.25965 -.3177 .30544 .24614 -404.94 -176.24)" fill-rule="evenodd" stroke="#000">
    <path d="m-459.25 206.75c4.5796 0.32715 9.4829-0.92617 13.713 1.2655 1.7302 2.5466 2.1803 6.1017 2.0532 9.2082-2.6122 4.0895-7.7642 5.8414-11.932 8.0699-6.3944 2.9419-13.492 3.7876-20.467 3.4564-4.384 0.56774-8.9877-0.89822-11.457-4.7394-3.0517-3.23-5.8321-6.751-7.5158-10.894-1.7932-5.5779-8.3345-2.696-12.708-3.376-6.6995-0.10512-13.491 0.36019-20.131 0.0806-4.5689-1.8084-9.755-4.0371-11.724-8.9221-3.062-4.0618-2.2609-9.4577-2.2511-14.223 0.02354-5.3209 4.1242-9.3128 7.7802-12.667 5.4943-3.1578 10.874-6.851 16.965-8.7346 5.3892-0.9931 10.86-0.10343 16.26 0.2977 4.4578 2.4412 10.285 3.1325 13.832 6.7367 4.563 6.1904 9.8406 11.967 12.906 19.111 2.5559 5.0728 5.3847 10.09 8.8735 14.555l5.8025 0.77408z" fill="#efb3bb"/>
    <path d="m-497.79 202.75c-7.3095-0.44983-14.675-0.5231-21.931-1.5019-4.39-1.3524-7.7137-4.8289-10.276-8.4981-0.91126-4.2312 1.4336-8.373 4.9556-10.606 4.2572-3.3399 10.114-4.8741 15.406-3.6825 4.2535 2.0018 6.22 6.6363 9.0731 10.117 3.731 4.9252 5.7993 10.791 8.4872 16.294 1.2818 3.3355 2.5549 6.579 4.8124 9.3987 2.3941 4.0023 6.0237 8.304 11.103 8.2771 7.17 0.82535 14.702 0.46326 21.271-2.8052 3.3093-0.41657 8.9329-5.0275 3.6601-7.1765-4.7425-1.0856-9.6839 1.6385-14.372-0.33511-4.5317-1.5694-5.7629-6.6635-7.6754-10.526-2.1718-4.9252-5.6896-9.0835-8.2591-13.797-4.2564-7.1935-10.289-14.22-18.788-16.153-4.1361-1.0368-8.4182-0.21737-12.619-0.67809-3.6629-0.10694-6.9939 1.6185-10.281 3.012-3.5495 1.8042-6.4386 4.5959-9.5058 7.0607-2.7514 2.6597-3.5518 6.6794-3.0417 10.348-0.54521 3.8368 1.0008 7.5931 4.1805 9.8034 5.011 3.8855 11.807 2.9329 17.727 3.2241 6.0705 0.04169 12.217-0.17262 18.205-0.91689-0.67473-0.37597-1.4504-0.4985-2.1316-0.85852z" fill="#bfc5b4"/>
    <path d="m-501.52 196.75c-5.3176-0.20384-10.707 0.53084-15.967-0.53325-2.6513-0.6589-5.012-2.093-7.4007-3.3644-1.7908-1.1272-2.0646-4.0118-0.35943-5.3433 2.4091-2.2437 5.4289-4.1124 8.8043-4.237 2.0116-0.22347 4.1914-1.1424 6.1228-0.10038 1.9921 1.4355 4.2059 2.8514 5.2306 5.1895 1.3949 2.7058 2.331 5.6137 3.5694 8.3889z" fill="#fff"/>
   </g>
  </g>
  <path d="m-628.52 80.971-8.7668-12.882-0.89457-36.856 2.5048-10.914 22.901-2.8626 15.923-2.8626h16.818l18.07 5.7252 6.6198 9.1246-5.5463 13.419-0.53675 13.061-12.524 10.019-6.0831 5.1885-18.786 7.3355-9.8402 2.3259-19.859 0.17891z" fill="url(#a)" fill-rule="evenodd" stroke="#000"/>
 </g>
</svg>
