<?xml version='1.0' encoding='utf-8'?>
<svg xmlns="http://www.w3.org/2000/svg" version="1.1" width="600px" height="976px" viewBox="0 0 600 976"> <g id="layer1" opacity="0.0"> <g style="fill:rgb(0,0,0); fill-opacity:1.0; stroke-linejoin: miter"> <path d="M0.0,8.837494L300.0,8.837494L600.0,8.837494L600.0,967.1625L0.0,967.1625L0.0,8.837494"/> </g> </g> <g id="layer2"> <g style="fill:rgb(0,0,0); fill-opacity:1.0; stroke-linejoin: miter"> <path d="M402.4472,800.3677L402.44717,800.3676L402.46158,800.40454L402.4616,800.4046C406.14258,809.8476,409.7826,819.16315,414.05875,824.61914L414.05875,824.61914C416.3851,827.58734,418.90552,829.4176,421.74188,831.4737L421.74188,831.4737C424.0815,833.16974,426.6248,835.01263,429.37317,837.75165L429.37317,837.75165C434.9685,843.3279,442.21277,853.47876,436.5401,859.1709L436.5401,859.1709C436.28537,859.42645,436.0059,859.6709,435.7007,859.9037L435.70074,859.9036C435.54785,860.02026,435.38757,860.13464,435.2227,860.24506L435.2227,860.24506C427.9701,865.1015,408.1684,864.78235,397.79507,861.8999L397.79507,861.8999C390.26175,859.80664,387.50662,856.3266,384.91046,853.0403L384.91046,853.0403C383.79245,851.62506,382.72723,850.27905,381.31937,849.07306L381.31937,849.07306C376.62454,845.0514,368.05435,842.5183,359.2973,839.942C359.05,839.8692,358.88977,839.6305,358.9161,839.3741L358.9161,839.3741L362.4169,805.33997C362.44714,805.0461,362.7099,804.8323,363.00378,804.86255C363.2977,804.89276,363.51147,805.1555,363.48123,805.44946L363.48123,805.44946L359.98047,839.4835L359.5993,838.9155C368.2586,841.4631,377.10468,844.05383,382.01544,848.26044L382.01544,848.26044C383.51392,849.54407,384.63956,850.9714,385.75003,852.377L385.75003,852.377C388.2906,855.59296,390.86975,858.8651,398.0815,860.869L398.0815,860.869C408.39005,863.7334,427.78473,863.9379,434.62738,859.356L434.62738,859.356C434.77515,859.257,434.91727,859.15564,435.05176,859.053L435.05182,859.0529C435.32028,858.84814,435.56305,858.63556,435.78223,858.4156L435.78223,858.4156C440.57684,853.6046,434.51218,844.38367,428.61792,838.5095L428.61792,838.5095C425.93478,835.8356,423.45273,834.03546,421.11392,832.33997L421.11392,832.33997C418.28415,830.28864,415.647,828.38007,413.2166,825.2792L413.2166,825.2792C408.81976,819.6691,405.12094,810.17267,401.4647,800.79315L401.4647,800.7932L401.45032,800.75635C401.34302,800.481,401.47916,800.17084,401.75446,800.06354C402.02972,799.95624,402.33987,800.0924,402.4472,800.3677 Z"/> </g> <g style="fill:rgb(0,0,0); fill-opacity:1.0; stroke-linejoin: miter"> <path d="M362.28293,805.7099L362.28284,805.7097L362.26935,805.67L362.2694,805.67017C359.7905,798.3915,357.26657,790.98975,357.24036,785.0747L357.24036,785.0747C357.21387,779.09644,359.7318,774.6672,362.16907,770.3629L362.5475,771.1543C360.2847,770.78094,358.54187,769.93445,357.57724,755.162L357.57724,755.162C356.60205,740.2279,356.42926,710.6717,356.2564,681.14685L356.2846,681.3151L356.2749,681.28656L356.27496,681.2867C355.1857,678.06915,354.0307,674.6823,354.55414,671.4972L354.55414,671.4972C355.0786,668.3058,357.27765,665.3842,359.35712,662.60266L359.62778,663.43414C356.93018,662.6013,353.8465,661.68976,352.7303,659.0496L352.7303,659.0496C351.65015,656.4948,352.49823,652.41876,353.26398,648.6317L353.8766,649.2654L353.8634,649.2676L353.86462,649.2674C351.6991,649.6347,349.4619,649.8893,347.00153,644.97345L347.00153,644.97345C344.63123,640.2376,341.9177,630.4806,339.22836,620.8206L339.23804,620.85175L303.98865,518.7596C303.89224,518.48035,304.04047,518.1757,304.31976,518.07935C304.59903,517.9829,304.90363,518.13116,305.00003,518.41046L305.00003,518.41046L340.24942,620.5025L340.2591,620.5336C342.96524,630.25397,345.64703,639.87665,347.9583,644.4945L347.9583,644.4945C350.1691,648.9116,351.89233,648.51666,353.68567,648.2125L353.6869,648.2123L353.70007,648.2101C353.87268,648.1808,354.04984,648.23883,354.17252,648.3654C354.2952,648.49207,354.34763,648.6709,354.31268,648.84375L354.31268,648.84375C353.5135,652.7962,352.79684,656.4595,353.71576,658.633L353.71576,658.633C354.59866,660.7213,357.07794,661.52716,359.94342,662.4118C360.1096,662.4631,360.24048,662.592,360.2943,662.7574C360.34814,662.9227,360.3182,663.104,360.21405,663.2433L360.21405,663.2433C358.08905,666.0859,356.08362,668.78845,355.60995,671.6707L355.60995,671.6707C355.1382,674.5413,356.17578,677.65704,357.28842,680.9435L357.28845,680.9436L357.29816,680.9722C357.31647,681.0264,357.326,681.08325,357.32635,681.1406L357.32635,681.1406C357.49933,710.685,357.67236,740.1988,358.6449,755.0922L358.6449,755.0922C359.628,770.1472,361.43484,769.88635,362.72168,770.09863C362.8941,770.12714,363.0418,770.23804,363.11725,770.3957C363.19263,770.5534,363.18625,770.738,363.1001,770.8901L363.1001,770.8901C360.6524,775.21295,358.28522,779.41144,358.3103,785.06995L358.3103,785.06995C358.33557,790.7707,360.78186,797.9836,363.28223,805.3252L363.2823,805.32544L363.29584,805.3652C363.391,805.6446,363.24152,805.94867,362.9618,806.0438C362.68213,806.1391,362.37817,805.98956,362.28293,805.7099 Z"/> </g> <g style="fill:rgb(0,0,0); fill-opacity:1.0; stroke-linejoin: miter"> <path d="M305.25787,519.2835L305.25787,519.28357L305.25415,519.38885L305.25415,519.38885C304.9245,528.7821,304.5913,538.20844,303.53125,545.6758L303.53125,545.6758C302.46497,553.1869,300.66455,558.7101,298.87695,564.1959L298.9033,564.02747L299.19702,622.41235L299.19696,622.4242C299.08234,629.13226,298.9696,635.95135,297.8588,640.1991L297.8588,640.1991C296.7224,644.5446,294.53876,646.23724,292.4467,647.8585L292.62616,647.2655C295.44244,655.65826,298.28296,664.1178,299.25528,669.9519L299.25528,669.9519C300.23785,675.8475,299.3194,679.0889,298.41525,682.27246L298.4322,682.066C299.0658,687.64703,299.7009,693.24255,299.74582,703.107L299.74582,703.107C299.79068,712.9575,299.24692,727.0703,298.70398,741.16473L298.6825,740.9927C301.88892,751.8574,305.11392,762.7801,306.30273,772.04315L306.30273,772.04315C307.49405,781.3257,306.64008,788.92975,305.79446,796.4744C305.76648,796.72437,305.56818,796.9211,305.31802,796.947L305.31802,796.947L301.15967,797.37854C300.86578,797.409,300.6028,797.1955,300.57233,796.9016C300.54184,796.6078,300.75537,796.3448,301.04926,796.3143L301.04926,796.3143L305.2076,795.8828L304.7312,796.35535C305.57706,788.8082,306.4146,781.32025,305.24146,772.1794L305.24146,772.1794C304.06583,763.0188,300.87036,752.1862,297.6563,741.29553C297.63983,741.2398,297.6326,741.18164,297.63483,741.12354L297.63483,741.12354C298.17813,727.01984,298.72058,712.9334,298.67587,703.11176L298.67587,703.11176C298.63123,693.3036,298.0009,687.7523,297.36908,682.18665C297.3612,682.11743,297.36694,682.04724,297.386,681.98016L297.386,681.98016C298.27243,678.859,299.14453,675.7958,298.1999,670.1278L298.1999,670.1278C297.245,664.39825,294.44052,656.0357,291.6118,647.6059C291.5394,647.39014,291.61142,647.1523,291.7913,647.0128L291.7913,647.0128C293.83093,645.43225,295.779,643.92303,296.82364,639.9284L296.82364,639.9284C297.8938,635.83606,298.01147,629.1762,298.12714,622.40594L298.12708,622.4178L297.83334,564.0329C297.83307,563.9757,297.84192,563.9188,297.85965,563.86444L297.85965,563.86444C299.64618,558.3817,301.4199,552.93604,302.47192,545.52545L302.47192,545.52545C303.52234,538.1261,303.85452,528.76306,304.18488,519.3513L304.18488,519.3513L304.18857,519.246C304.1989,518.95074,304.44672,518.7198,304.74197,518.73016C305.03726,518.74054,305.26822,518.9883,305.25787,519.2835 Z"/> </g> <g style="fill:rgb(0,0,0); fill-opacity:1.0; stroke-linejoin: miter"> <path d="M301.82367,796.8798L301.82367,796.8798L304.5069,835.051C304.5235,835.28723,304.38293,835.50616,304.16132,835.58936L304.16132,835.58936C298.57614,837.6869,293.16238,839.7322,289.81677,843.28735L289.81677,843.28735C288.48175,844.70593,287.46606,846.37573,286.41437,848.1086L286.41437,848.1086C285.3665,849.8352,284.28296,851.62427,282.83368,853.16437L282.83368,853.16437C282.1203,853.92236,281.31598,854.62317,280.37906,855.23236L280.37906,855.23236C275.69598,858.27734,267.78943,858.9405,260.10995,859.5995C260.08627,859.6015,260.06247,859.6019,260.03873,859.60077L260.03873,859.60077C258.00436,859.5038,255.96169,859.4064,253.98254,859.25824L253.98254,859.25824C247.78094,858.7939,241.96945,857.82587,238.93701,854.5678L238.93701,854.5678C234.9037,850.23456,235.99771,842.21783,240.09285,836.0637L240.09285,836.0637C242.35507,832.66406,245.56207,829.7718,248.72556,826.9147L248.72556,826.9147C251.35207,824.5426,253.95268,822.1922,256.05576,819.556L256.05576,819.556C260.7036,813.72986,262.95773,806.46075,265.24255,799.0707C265.32983,798.7884,265.62943,798.63025,265.91168,798.7176C266.19397,798.8048,266.35205,799.10443,266.2648,799.3867L266.2648,799.3867C263.99173,806.7387,261.68787,814.21185,256.89215,820.22327L256.89215,820.22327C254.72507,822.9397,252.05655,825.3481,249.44269,827.70874L249.44269,827.70874C246.25735,830.5856,243.15813,833.3886,240.98363,836.65643L240.98363,836.65643C236.98026,842.6726,236.2064,850.0638,239.72021,853.83887L239.72021,853.83887C242.42345,856.74316,247.78537,857.7213,254.06244,858.1913L254.06244,858.1913C256.02567,858.33826,258.05145,858.4348,260.0897,858.5321L260.0185,858.5334C267.81836,857.86414,275.3915,857.1991,279.7958,854.3354L279.7958,854.3354C280.6516,853.7789,281.39142,853.1357,282.0545,852.4311L282.0545,852.4311C283.41394,850.98645,284.44214,849.2961,285.4997,847.5535L285.4997,847.5535C286.54132,845.8372,287.61258,844.0683,289.03757,842.5541L289.03757,842.5541C292.58853,838.7807,298.27252,836.658,303.78516,834.5877L303.43958,835.12604L300.75635,796.95483C300.73563,796.6601,300.95776,796.4044,301.2525,796.38367C301.54724,796.363,301.80295,796.5851,301.82367,796.8798 Z"/> </g> <g style="fill:rgb(0,0,0); fill-opacity:1.0; stroke-linejoin: miter"> <path d="M264.9994,799.5737L264.9994,799.5737C262.81918,796.3903,260.55646,793.09955,260.11288,788.18066L260.11288,788.18066C259.67447,783.3188,261.02225,776.8855,262.33917,770.57416L262.50473,771.08075C259.0388,767.9574,255.6316,764.8139,252.44153,748.3496L252.44153,748.3496C249.26253,731.9424,246.2752,702.1863,243.2918,672.47534L243.34271,672.6554C242.00966,669.90594,240.58035,666.9894,240.9847,663.6392L240.98471,663.6392C241.38367,660.3335,243.56982,656.6621,245.65866,653.13513L245.72807,653.773C243.68039,651.5815,241.4476,649.2207,241.53767,645.44556L241.53767,645.44556C241.62518,641.77893,243.92664,636.811,246.13835,632.012L246.09894,632.33746L229.93831,548.7051L229.93521,548.6875L218.25891,475.2076L218.52364,475.58917C215.79805,474.04572,212.88788,472.40173,212.21724,467.2754L212.21724,467.2754C211.56842,462.3156,213.02397,454.0286,214.44753,445.8874C214.49843,445.5963,214.7756,445.40164,215.06665,445.4525C215.35768,445.50345,215.55237,445.7806,215.50148,446.07166L215.50148,446.07166C214.06271,454.29984,212.6561,462.38132,213.27817,467.1366L213.27817,467.1366C213.87845,471.72495,216.37242,473.14136,219.05086,474.65814C219.19257,474.7384,219.29004,474.8788,219.31558,475.03967L219.31558,475.03967L230.99191,548.51953L230.98883,548.502L247.14948,632.13446C247.17072,632.24445,247.15694,632.35815,247.11008,632.4599L247.11008,632.4599C244.8542,637.35474,242.68823,642.0805,242.60733,645.47107L242.60733,645.47107C242.52902,648.75323,244.4267,650.81305,246.50984,653.0425C246.67207,653.21606,246.70035,653.4759,246.57925,653.6803L246.57925,653.6803C244.44745,657.27997,242.4129,660.7351,242.04694,663.7674L242.04697,663.7674C241.68634,666.7554,242.9478,669.38837,244.30548,672.18854C244.33289,672.24506,244.35011,672.30597,244.35638,672.36847L244.35638,672.36847C247.34264,702.10736,250.32465,731.79926,253.49197,748.1461L253.49197,748.1461C256.64813,764.4354,259.9641,767.35095,263.221,770.286C263.3624,770.4133,263.42545,770.60626,263.38657,770.7926L263.38657,770.7926C262.0568,777.1655,260.75772,783.4178,261.17853,788.08466L261.17853,788.08466C261.5943,792.69543,263.69696,795.77844,265.88217,798.9692C266.04913,799.2129,265.98685,799.5458,265.74307,799.71277C265.4993,799.87976,265.16635,799.8175,264.9994,799.5737 Z"/> </g> <g style="fill:rgb(0,0,0); fill-opacity:1.0; stroke-linejoin: miter"> <path d="M301.1688,797.10333L301.1688,797.10333C293.69006,797.3611,286.0619,797.6302,281.89008,796.51807L281.89008,796.51807C281.75247,796.4814,281.61743,796.4429,281.4865,796.40295L281.48648,796.40295C279.1219,795.6809,278.00763,794.4493,277.18985,793.5455L277.18985,793.5455C276.65726,792.95685,276.34714,792.6365,275.96054,792.51843L275.96057,792.51843C275.9486,792.51483,275.9355,792.51105,275.92346,792.5079L275.92346,792.5079C275.84265,792.4863,275.75497,792.473,275.6569,792.4704L275.6569,792.4704C274.08762,792.42786,270.7907,794.8297,268.81985,796.5405L268.81985,796.5405C266.96448,798.15106,266.66757,798.80975,266.3578,799.4565C266.23013,799.7229,265.91064,799.8355,265.64417,799.7078C265.37772,799.5802,265.2652,799.2607,265.39282,798.99426L265.39282,798.99426C265.76962,798.2077,266.1592,797.4333,268.11847,795.73254L268.11847,795.73254C269.96216,794.1321,273.60794,791.34454,275.68585,791.40076L275.68585,791.40076C275.8651,791.4057,276.03583,791.4305,276.19907,791.474L276.19907,791.474C276.22327,791.4804,276.2493,791.4879,276.27298,791.4951L276.273,791.4951C276.99817,791.71655,277.5088,792.3032,277.98325,792.8276L277.98325,792.8276C278.76392,793.69037,279.71744,794.744,281.79895,795.37964L281.79895,795.37964C281.91714,795.4157,282.03946,795.4506,282.16568,795.48425L282.16568,795.48425C286.14273,796.54443,293.5626,796.29486,301.13193,796.034C301.42722,796.0238,301.67484,796.25494,301.685,796.5502C301.6952,796.8455,301.46408,797.09314,301.1688,797.10333 Z"/> </g> <g style="fill:rgb(0,0,0); fill-opacity:1.0; stroke-linejoin: miter"> <path d="M401.71075,799.8918L401.71075,799.8918L404.1257,799.73706L403.6283,800.2112L408.3142,758.5164L408.31088,758.57117L408.93604,691.1894L408.93604,691.1917C409.08447,661.1519,409.23236,631.1464,407.03296,605.6222L407.03296,605.6222C404.83435,580.1075,400.2892,559.06384,395.73694,537.98987L395.7417,538.0101L378.65417,471.52216C378.62665,471.41513,378.63293,471.30222,378.67218,471.19894L378.67218,471.19894C379.86157,468.06815,380.9945,465.0639,380.55255,461.3729L380.55255,461.3729C380.1052,457.63724,378.0467,453.16788,375.9289,448.58383C375.805,448.31564,375.92197,447.9977,376.1902,447.8738C376.4584,447.7499,376.7763,447.8669,376.9002,448.1351L376.9002,448.1351C378.99197,452.66278,381.14294,457.3046,381.61493,461.2457L381.61493,461.2457C382.09216,465.2314,380.8542,468.4681,379.6724,471.57895L379.69043,471.25583L396.77798,537.7438L396.78278,537.7639C401.33453,558.83563,405.89386,579.94,408.09894,605.5304L408.09894,605.5304C410.30328,631.11224,410.15436,661.1716,410.006,691.197L410.00598,691.19934L409.3808,758.5811L409.37747,758.63586L404.6916,800.33075C404.6626,800.58844,404.45297,800.78827,404.19412,800.8048L404.19412,800.8048L401.77917,800.9596C401.4843,800.97845,401.22995,800.75476,401.21106,800.45984C401.1922,800.165,401.4159,799.9107,401.71075,799.8918 Z"/> </g> <g style="fill:rgb(0,0,0); fill-opacity:1.0; stroke-linejoin: miter"> <path d="M401.9543,800.723L401.9543,800.723C399.41254,800.56757,396.74323,800.4106,394.5595,799.46967L394.5595,799.46967C394.22626,799.32605,393.9026,799.1636,393.59113,798.97943L393.59113,798.97943C392.80566,798.5151,392.115,797.9213,391.493,797.38824L391.493,797.38824C390.90784,796.88666,390.39194,796.4466,389.86884,796.13727L389.86884,796.13727C389.72455,796.05194,389.58258,795.97845,389.4421,795.91797L389.4421,795.91797C389.0019,795.7283,388.5673,795.66077,388.0917,795.7613L388.0917,795.7613C386.11963,796.178,383.34424,799.3276,380.3433,802.7833C380.26126,802.8778,380.14874,802.94055,380.02524,802.9607L380.02524,802.9607L363.0676,805.7186C362.77597,805.76605,362.5011,805.5681,362.45364,805.2764C362.40625,804.98486,362.60422,804.70996,362.8958,804.66254L362.8958,804.66254L379.8535,801.90454L379.53543,802.08185C382.37915,798.8071,385.44843,795.22626,387.87048,794.7144L387.87048,794.7144C388.5988,794.56055,389.25922,794.67413,389.8655,794.93536L389.8655,794.93536C390.05396,795.01654,390.23648,795.1117,390.4134,795.2163L390.4134,795.2163C391.03253,795.5824,391.6219,796.0895,392.1893,796.5758L392.1893,796.5758C392.82297,797.11896,393.44415,797.6496,394.13565,798.0584L394.13565,798.0584C394.40488,798.2175,394.6877,798.35986,394.9829,798.48706L394.9829,798.48706C396.96124,799.3395,399.4267,799.49646,402.01962,799.655C402.3145,799.6731,402.539,799.92676,402.52094,800.2217C402.50293,800.5166,402.2492,800.741,401.9543,800.723 Z"/> </g> <g style="fill:rgb(0,0,0); fill-opacity:1.0; stroke-linejoin: miter"> <path d="M214.5334,446.6189L214.5334,446.6189C214.93556,441.83505,215.34293,436.96042,216.11803,434.1661L216.11803,434.1661C216.92508,431.25668,218.15703,430.50296,219.34387,429.80258L219.16821,430.55646C215.79266,425.40247,212.29251,420.08545,212.23428,413.8733L212.23428,413.8733C212.17636,407.69467,215.53122,400.69815,218.79396,393.86688L219.44502,394.60526C217.94351,395.103,216.33382,395.64252,214.2576,395.38007L214.2576,395.38007C212.22694,395.12335,209.77025,394.09738,207.41383,393.11774C207.14102,393.00433,207.0118,392.69122,207.12521,392.4184C207.23862,392.14557,207.55174,392.01636,207.82457,392.12976L207.82457,392.12976C210.23074,393.1301,212.53662,394.08405,214.39178,394.31854L214.39178,394.31854C216.20149,394.54733,217.60074,394.08942,219.10837,393.58966C219.31194,393.5222,219.53612,393.5828,219.67795,393.74362C219.8198,393.9045,219.85187,394.1345,219.75943,394.32803L219.75943,394.32803C216.45819,401.23996,213.24908,407.98657,213.3042,413.86325L213.3042,413.86325C213.35898,419.70642,216.64886,424.75687,220.0633,429.97025C220.1434,430.09256,220.16995,430.24234,220.13678,430.38477C220.1036,430.52713,220.01358,430.64978,219.88765,430.72406L219.88765,430.72406C218.85051,431.3361,217.85844,431.8947,217.14906,434.45212L217.14906,434.45212C216.40775,437.1246,216.00626,441.87122,215.5996,446.70853C215.57484,447.00296,215.31612,447.22156,215.02168,447.1968C214.72725,447.17206,214.50865,446.91333,214.5334,446.6189 Z"/> </g> <g style="fill:rgb(0,0,0); fill-opacity:1.0; stroke-linejoin: miter"> <path d="M207.41316,393.19666L207.41316,393.19666L197.72453,386.07553L198.45598,385.98254C196.30673,388.61856,194.06235,391.1702,185.07387,388.19794L185.07387,388.1979C176.24223,385.27747,160.67714,376.97733,148.09836,369.11496L148.09836,369.11496C135.50049,361.24072,125.85691,353.78033,117.905235,347.3885L117.905235,347.3885C109.999626,341.03357,103.5763,335.6029,101.55648,328.78397L101.55648,328.78397C99.53919,321.97354,101.94619,313.87473,104.26885,305.99817C104.35243,305.71475,104.6499,305.5528,104.933304,305.63635C105.2167,305.71994,105.3787,306.0174,105.29512,306.3008L105.29512,306.3008C102.94226,314.27972,100.67371,322.0364,102.582375,328.4801L102.582375,328.4801C104.48855,334.91534,110.592636,340.13745,118.5756,346.55457L118.5756,346.55457C126.51266,352.9347,136.11853,360.36523,148.66547,368.20764L148.66547,368.20764C161.23099,376.06174,176.70607,384.30392,185.40977,387.18207L185.40977,387.18207C193.95695,390.0084,195.7443,387.61517,197.62674,385.3064C197.80685,385.0855,198.12854,385.04462,198.35818,385.2134L198.35818,385.2134L208.04681,392.33453C208.2849,392.50952,208.33603,392.84433,208.16106,393.08243C207.98608,393.32053,207.65125,393.37167,207.41316,393.19666 Z"/> </g> <g style="fill:rgb(0,0,0); fill-opacity:1.0; stroke-linejoin: miter"> <path d="M102.9532,310.58777L102.9532,310.58777C103.74125,307.20187,104.54423,303.78128,109.15129,298.01367L109.15129,298.01367C113.71944,292.2948,122.05578,284.2346,130.34914,276.2143L130.3752,276.19067L130.37756,276.18866L130.37944,276.1871C136.29604,271.22025,142.2427,266.2273,146.31793,263.41507L146.31793,263.41507C150.42944,260.57782,152.66045,259.94333,154.869,259.31955L154.58865,259.5105C161.16109,250.87114,167.75978,242.19821,183.17772,231.34221L183.17772,231.34221C198.56215,220.50975,222.74036,207.49611,246.87216,194.50633C247.13232,194.36629,247.45676,194.46367,247.5968,194.72383C247.73686,194.984,247.63948,195.30843,247.37932,195.44849L247.37932,195.44849C223.22296,208.45145,199.11302,221.43048,183.7937,232.21706L183.7937,232.21706C168.50789,242.98,161.98709,251.55249,155.4402,260.15826C155.36993,260.25064,155.27153,260.3177,155.15985,260.34924L155.15985,260.34924C153.02496,260.95224,150.91162,261.545,146.92564,264.2957L146.92564,264.2957C142.90317,267.0715,137.00192,272.02466,131.06738,277.00656L131.06924,277.005L131.0669,277.007L131.09296,276.98337C122.77541,285.02707,114.50171,293.02985,109.98728,298.68146L109.98728,298.68146C105.51211,304.28397,104.76113,307.53986,103.99529,310.83032C103.92832,311.11807,103.64074,311.2971,103.352974,311.2301C103.06521,311.16312,102.88622,310.87555,102.9532,310.58777 Z"/> </g> <g style="fill:rgb(0,0,0); fill-opacity:1.0; stroke-linejoin: miter"> <path d="M254.01926,177.41696L254.01927,177.41698L254.01343,177.44383L254.01343,177.44383C252.88817,182.62468,251.7473,187.88245,250.49881,190.94482L250.49881,190.94482C249.21225,194.10057,247.78636,194.99165,246.40504,195.84042C246.15332,195.99509,245.82385,195.91641,245.66917,195.66467C245.51448,195.41295,245.59317,195.08348,245.8449,194.9288L245.8449,194.9288C247.11342,194.14935,248.33742,193.4122,249.50801,190.5409L249.50801,190.5409C250.71243,187.58664,251.83255,182.4438,252.96785,177.21672L252.96786,177.2167L252.9737,177.18985C253.0364,176.90114,253.32129,176.71791,253.61003,176.78062C253.89876,176.84334,254.08197,177.12823,254.01926,177.41696 Z"/> </g> <g style="fill:rgb(0,0,0); fill-opacity:1.0; stroke-linejoin: miter"> <path d="M317.77258,176.053L317.77258,176.053C318.63367,176.88667,319.44077,177.66415,320.60696,178.26718L320.60696,178.26718C321.1057,178.52507,321.6744,178.75284,322.3438,178.9354L322.3438,178.9354C323.245,179.18115,324.32684,179.34572,325.98828,179.5972L325.98828,179.5972C328.47964,179.97426,332.1873,180.53548,338.31598,181.85364L338.31598,181.85364C348.4958,184.04308,365.38644,188.32773,375.98486,192.18718L375.98486,192.18718C379.65436,193.52342,382.57483,194.8105,385.00455,196.06688L385.00455,196.06688C389.61035,198.44843,392.43625,200.71185,395.23187,202.95035L395.25958,202.97408L425.02835,230.33969L424.98285,230.3023C436.20477,238.53883,447.45032,246.79243,455.78192,253.88982L455.78192,253.88982C464.12332,260.9955,469.5428,266.94095,474.94452,272.86646C474.96173,272.88535,474.9776,272.9055,474.99194,272.92664L474.99197,272.92667L475.01535,272.96115L475.01532,272.96115C480.73798,281.40155,486.63763,290.07162,485.50778,299.42783L485.50778,299.42783C484.38214,308.7487,476.27576,318.64325,468.3476,328.3502L468.33276,328.36758C452.51636,346.12967,436.64258,363.95975,425.0537,372.88483L425.0537,372.88483C415.6405,380.13425,409.03394,381.5299,404.71268,382.43945L404.71268,382.43945C403.68994,382.65472,402.82635,382.83682,402.08142,383.06116L402.08142,383.06116C398.33224,384.18994,397.61963,386.3843,396.84216,388.7765C396.75085,389.0575,396.44904,389.21127,396.16806,389.11993C395.88705,389.02863,395.73328,388.72678,395.82462,388.4458L395.82462,388.4458C396.62442,385.98492,397.48895,383.3264,401.77295,382.0366L401.77295,382.0366C402.56998,381.79663,403.48288,381.6049,404.4923,381.39243L404.4923,381.39243C408.7286,380.50076,415.16278,379.15167,424.40085,372.0371L424.40085,372.0371C435.88986,363.189,451.68317,345.45642,467.5337,327.656L467.51892,327.6734C475.53152,317.86304,483.36584,308.2402,484.44553,299.29956L484.44553,299.29956C485.518,290.41882,479.92157,282.10403,474.12976,273.56155L474.1297,273.56155L474.10632,273.52707L474.1538,273.58728C468.7553,267.66528,463.37433,261.76303,455.08807,254.70433L455.08807,254.70433C446.79233,247.63748,435.58246,239.40936,424.34973,231.16486C424.33392,231.15321,424.31873,231.1407,424.30426,231.1274L424.30426,231.1274L394.53546,203.7618L394.56314,203.78554C391.77655,201.5543,389.01935,199.34738,384.5131,197.01732L384.5131,197.01732C382.1298,195.78493,379.2521,194.51564,375.61877,193.19255L375.61877,193.19255C365.0882,189.3578,348.25266,185.0852,338.091,182.89969L338.091,182.89969C331.99243,181.588,328.30902,181.03058,325.82816,180.65509L325.82816,180.65509C324.1902,180.4072,323.03717,180.23349,322.06232,179.96765L322.06232,179.96765C321.32172,179.76567,320.68256,179.5108,320.1155,179.2176L320.1155,179.2176C318.79236,178.53342,317.8833,177.64946,317.02832,176.8217C316.81604,176.6162,316.81058,176.27751,317.01608,176.06523C317.2216,175.85295,317.5603,175.84747,317.77258,176.053 Z"/> </g> <g style="fill:rgb(0,0,0); fill-opacity:1.0; stroke-linejoin: miter"> <path d="M400.42627,273.3708L400.42627,273.37082L400.5066,273.4636L400.50656,273.46356C408.031,282.1581,415.5255,290.8154,420.15387,295.53513L420.15387,295.53513C424.77267,300.24515,426.49173,300.98737,428.1952,301.74063C428.3297,301.8001,428.43384,301.91235,428.48303,302.05096C428.53223,302.18958,428.5222,302.34232,428.45526,302.4733L428.45526,302.4733L412.9318,332.86102C412.86813,332.9857,412.75815,333.0804,412.62543,333.1249L412.62543,333.1249L412.59598,333.1348L412.59598,333.1348C411.79028,333.40488,411.01114,333.6673,410.2879,333.98187L410.28787,333.98187C409.31232,334.4062,408.47952,334.90866,407.86584,335.60382L407.86584,335.60382C406.76846,336.84692,406.2806,338.78812,405.7594,340.91873C405.70517,341.14032,405.51642,341.30316,405.28928,341.32428L405.2893,341.32428L405.26382,341.32666L405.2638,341.32666C403.42688,341.49753,401.71265,341.6647,400.41324,342.22983L400.41327,342.22983C399.87067,342.46585,399.4202,342.76398,399.07132,343.14575L399.07132,343.14575C397.84784,344.48477,397.66418,347.02655,397.4886,349.89154C397.47318,350.14267,397.28485,350.34912,397.03622,350.38754L397.03622,350.38754C394.74026,350.74213,392.5376,351.0859,390.77515,351.85242L390.77515,351.85242C389.9579,352.2079,389.25375,352.64722,388.68887,353.20612L388.68887,353.20612C386.88284,354.9929,386.32892,358.13882,385.75168,361.55347C385.724,361.71725,385.6218,361.8589,385.4751,361.9368L385.4751,361.9368L377.03772,366.41687L377.1937,365.59705L396.35443,388.04108C396.54623,388.26578,396.51962,388.60345,396.2949,388.79532C396.0702,388.98715,395.7325,388.96048,395.54068,388.73578L395.54068,388.73578L376.37994,366.29175C376.2746,366.16833,376.23096,366.00378,376.26126,365.8444C376.2916,365.685,376.39264,365.548,376.53595,365.4719L376.53595,365.4719L384.97333,360.9918L384.69672,361.37512C385.25278,358.08557,385.83228,354.5272,387.93634,352.4455L387.93634,352.4455C388.61844,351.77066,389.4439,351.26465,390.34845,350.87122L390.34845,350.87122C392.26294,350.03854,394.61475,349.67886,396.87292,349.3301L396.4206,349.82608C396.58597,347.1283,396.74326,344.10745,398.28143,342.424L398.28146,342.424C398.75494,341.90585,399.34146,341.52924,399.9865,341.24866L399.9865,341.24866C401.4752,340.6012,403.37918,340.4274,405.1647,340.2613L405.16464,340.26132L405.19012,340.2589L404.7201,340.6645C405.2213,338.61548,405.75577,336.37735,407.0637,334.89572L407.0637,334.89572C407.82434,334.03406,408.81744,333.45462,409.86115,333.0007L409.86115,333.0007C410.63422,332.66446,411.4577,332.38788,412.25586,332.1203L412.25586,332.1203L412.28534,332.11044L411.979,332.37427L427.50244,301.98654L427.7625,302.7192C425.91852,301.90378,424.09015,301.07727,419.38992,296.28427L419.38992,296.28427C414.73218,291.53455,407.21024,282.84473,399.6975,274.16373L399.69745,274.16373L399.6172,274.07092C399.42386,273.84753,399.44824,273.50967,399.67163,273.31635C399.89508,273.123,400.2329,273.14734,400.42627,273.3708 Z"/> </g> <g style="fill:rgb(0,0,0); fill-opacity:1.0; stroke-linejoin: miter"> <path d="M376.38123,366.9377L376.38123,366.9377L366.39172,365.8495C366.11343,365.81915,365.9056,365.57947,365.91498,365.2997L365.91498,365.2997L366.41718,350.32043C366.41888,350.26865,366.42816,350.21744,366.44458,350.16837L366.44458,350.16837C374.60654,325.81128,382.78116,301.4148,388.2802,288.58017L388.2802,288.58017C393.79507,275.7087,396.67987,274.3207,399.6635,272.99448C399.93353,272.87448,400.24966,272.99606,400.3697,273.26605C400.4897,273.53604,400.3681,273.85223,400.09808,273.97223L400.09808,273.97223C397.4611,275.14438,394.72516,276.25473,389.2637,289.00156L389.2637,289.00156C383.78647,301.78525,375.6291,326.12723,367.4591,350.50833L367.48654,350.35626L366.9843,365.3356L366.50763,364.78586L376.49707,365.87405C376.7908,365.90607,377.00296,366.1701,376.97098,366.46384C376.93896,366.75757,376.67493,366.96973,376.38123,366.9377 Z"/> </g> <g style="fill:rgb(0,0,0); fill-opacity:1.0; stroke-linejoin: miter"> <path d="M395.99777,388.64282L395.99777,388.64282C392.1801,391.22052,388.29483,393.84705,384.673,395.27567L384.673,395.27567C382.8517,395.99408,381.1046,396.40695,379.53897,396.7776L379.53897,396.7776C378.2019,397.09415,377.01636,397.3759,375.97964,397.78485L375.97964,397.78485C375.79657,397.85706,375.61945,397.93274,375.4476,398.01297L375.44763,398.01297C374.69916,398.3625,374.0343,398.8066,373.42325,399.31866L373.42325,399.31866C372.16977,400.36908,371.15698,401.69064,370.103,403.0697C369.9236,403.30447,369.58786,403.3493,369.35312,403.16992C369.11835,402.99048,369.07352,402.65475,369.2529,402.41998L369.2529,402.41998C370.2938,401.058,371.37622,399.63812,372.73602,398.4986L372.73602,398.4986C373.40738,397.936,374.14996,397.43808,374.9949,397.04352L374.9949,397.0435C375.18854,396.9531,375.3856,396.86896,375.58704,396.7895L375.58704,396.7895C376.70886,396.34702,377.97412,396.04855,379.29245,395.73642L379.29245,395.73642C380.86432,395.3643,382.54022,394.96677,384.2804,394.28036L384.2804,394.28036C387.77045,392.90372,391.5511,390.35425,395.39905,387.75607C395.64392,387.59076,395.97644,387.6552,396.14178,387.9001C396.30713,388.14496,396.24265,388.4775,395.99777,388.64282 Z"/> </g> <g style="fill:rgb(0,0,0); fill-opacity:1.0; stroke-linejoin: miter"> <path d="M370.43582,402.5952L370.43582,402.5952C372.8067,410.80176,375.20734,419.1004,375.5906,424.84763L375.5906,424.84763C375.97916,430.67337,374.30127,433.90067,372.6677,437.04358L372.694,436.60928L377.1274,448.45074C377.23102,448.72745,377.09067,449.03574,376.81396,449.1393C376.53726,449.2429,376.22894,449.1026,376.12534,448.8259L376.12534,448.8259L371.692,436.98444C371.6388,436.84247,371.64838,436.68463,371.7183,436.5501L371.7183,436.5501C373.32706,433.45493,374.89157,430.4441,374.52307,424.9188L374.52307,424.9188C374.14932,419.31494,371.79352,411.14966,369.4079,402.89218C369.3259,402.60834,369.48953,402.31174,369.7734,402.22974C370.05722,402.14774,370.35382,402.31137,370.43582,402.5952 Z"/> </g> <g style="fill:rgb(0,0,0); fill-opacity:1.0; stroke-linejoin: miter"> <path d="M224.72884,360.6912L224.72884,360.6912L217.04192,360.78745C217.02164,360.78772,217.00136,360.7868,216.98117,360.78476L216.98117,360.78476L206.82858,359.7539C206.6713,359.7379,206.52911,359.65323,206.44022,359.5225C206.3513,359.39172,206.3248,359.22836,206.36778,359.07623L206.36778,359.07623C206.69913,357.90317,207.20926,356.7381,203.5184,354.66568L203.5184,354.66568C199.66542,352.50223,191.51779,349.55423,183.28815,346.5787C183.2817,346.57635,183.27527,346.5739,183.26894,346.57132L183.26894,346.57132C178.5053,344.63876,173.6523,342.6742,168.93607,338.1672L168.93607,338.1672C164.24649,333.68567,159.70601,326.69955,155.2136,319.79312C155.06326,319.56198,155.11319,319.2545,155.32889,319.0828L155.32889,319.0828L180.09938,299.3682C180.177,299.30643,180.2703,299.2674,180.3688,299.25558L180.3688,299.25558C183.70108,298.8558,187.28847,298.40393,190.48956,300.79886L190.48956,300.79886C193.6119,303.13492,196.31471,308.1699,198.9324,313.02155L198.92831,313.01413L225.18887,359.8948C225.2811,360.05945,225.27977,360.26047,225.18538,360.42386C225.09097,360.58725,224.91751,360.6888,224.72884,360.6912L224.72884,360.6912 M224.71544,359.6213L224.25539,360.4177L197.99484,313.53702L197.99075,313.52957C195.32082,308.5811,192.73592,303.8158,189.8486,301.6556L189.8486,301.6556C187.04,299.5543,183.89569,299.91006,180.49625,300.31793L180.76567,300.20535L155.9952,319.92L156.1105,319.2097C160.62704,326.1533,165.09549,333.01706,169.6753,337.39365L169.6753,337.39365C174.22844,341.74478,178.90504,343.64627,183.67117,345.57986L183.65195,345.57248C191.83058,348.5296,200.09097,351.5141,204.04225,353.73273L204.04225,353.73273C208.15553,356.04233,207.86589,357.70868,207.39745,359.3671L206.93665,358.6894L217.08925,359.72028L217.02853,359.7176L224.71544,359.6213 Z"/> </g> <g style="fill:rgb(0,0,0); fill-opacity:1.0; stroke-linejoin: miter"> <path d="M224.92711,359.83392L224.92711,359.83392L235.1034,370.06128C235.28238,370.24118,235.31036,370.5221,235.17035,370.7338L235.17035,370.7338L219.43938,394.5164C219.27638,394.76282,218.94447,394.83047,218.69806,394.66748C218.45161,394.50446,218.38399,394.17255,218.54698,393.92615L218.54698,393.92615L234.27795,370.1435L234.34491,370.81598L224.16864,360.5886C223.96025,360.37912,223.96109,360.0404,224.17055,359.832C224.37999,359.62363,224.7187,359.62445,224.92711,359.83392 Z"/> </g> <g style="fill:rgb(0,0,0); fill-opacity:1.0; stroke-linejoin: miter"> <path d="M369.61755,403.2293L369.61755,403.2293C366.1279,397.0871,362.61166,390.90045,360.21445,384.533L360.21445,384.533C357.81628,378.16293,356.54324,371.62613,355.27887,365.14017C355.22232,364.85016,355.4116,364.5692,355.7016,364.5127C355.9916,364.45618,356.27252,364.64542,356.32907,364.93542L356.32907,364.93542C357.59607,371.43503,358.85437,377.8836,361.2158,384.156L361.2158,384.156C363.57816,390.43094,367.04974,396.54367,370.54782,402.70078C370.69382,402.95767,370.60388,403.28424,370.34695,403.4302C370.09006,403.57614,369.7635,403.48624,369.61755,403.2293 Z"/> </g> <g style="fill:rgb(0,0,0); fill-opacity:1.0; stroke-linejoin: miter"> <path d="M366.9469,366.1214L366.9469,366.1214L355.8178,365.30893C355.52316,365.28745,355.3017,365.0311,355.3232,364.73645C355.34473,364.44177,355.60104,364.2203,355.89572,364.24182L355.89572,364.24182L367.0248,365.05426C367.31946,365.0758,367.54092,365.3321,367.5194,365.62677C367.49786,365.92148,367.24158,366.1429,366.9469,366.1214 Z"/> </g> <g style="fill:rgb(0,0,0); fill-opacity:1.0; stroke-linejoin: miter"> <path d="M376.99518,448.99777L376.99518,448.99777C376.19916,449.99115,375.29303,451.14362,373.7503,451.60803L373.7503,451.60803C372.65765,451.9369,371.29077,451.90634,369.93506,451.7995L369.9426,451.80005L369.94086,451.79996L369.93323,451.7994C369.41074,451.75818,368.88806,451.7054,368.362,451.65234L368.8518,451.42996C365.2481,456.50162,361.59598,461.64767,355.15356,466.05548L355.15356,466.05548C348.73834,470.44473,339.5694,474.0901,330.48248,477.70596C330.45074,477.7186,330.4179,477.72815,330.38437,477.73453L330.37982,477.73535L330.37738,477.7358L330.37738,477.7358L330.37494,477.73624L330.37952,477.73538C323.76758,478.9896,317.12112,480.2508,312.12286,480.76147L312.12286,480.76147C307.10303,481.27438,303.74396,481.03125,300.41602,480.79053C300.1748,480.77313,299.97525,480.59595,299.92935,480.3585L299.92935,480.3585L295.4265,457.06537L296.48383,457.01987L293.95337,481.03482C293.92456,481.30832,293.69305,481.51544,293.41803,481.51373L293.41803,481.51373L293.27017,481.5128L293.27014,481.5128C285.89444,481.46664,278.49402,481.41672,270.67438,480.80066L270.67438,480.80066C268.7798,480.6514,266.8585,480.46863,264.90814,480.24487L264.90814,480.24487C254.86728,479.09265,243.9292,476.8393,235.35606,471.00656L235.35606,471.00656C226.79068,465.17914,220.64091,455.8092,214.56172,446.5603C214.39944,446.31345,214.46802,445.98172,214.71492,445.81943C214.96182,445.65714,215.29355,445.7257,215.45583,445.97263L215.45583,445.97263C221.5636,455.26498,227.60097,464.43634,235.95792,470.12195L235.95792,470.12195C244.3071,475.8023,255.02704,478.034,265.03012,479.1819L265.0301,479.1819C266.96704,479.40414,268.8754,479.58563,270.75842,479.73398L270.75842,479.73398C278.5351,480.34668,285.89563,480.39664,293.27686,480.44284L293.27682,480.44284L293.42468,480.44376L292.8893,480.92267L295.41974,456.90775C295.4475,456.6442,295.66406,456.4407,295.9288,456.42932C296.19354,456.41794,296.42676,456.60205,296.47705,456.86224L296.47705,456.86224L300.97986,480.1554L300.4932,479.72336C303.8078,479.96307,307.09027,480.20016,312.0141,479.69705L312.0141,479.69705C316.95618,479.19208,323.55112,477.94162,330.1801,476.68414L330.1847,476.68332L330.1871,476.68286L330.1871,476.68286L330.18954,476.68243L330.08685,476.71185C339.21222,473.08066,348.2537,469.4799,354.54938,465.17242L354.54938,465.17242C360.8175,460.88385,364.37408,455.88452,367.9796,450.81024C368.091,450.6534,368.27798,450.5685,368.46936,450.58783L368.46936,450.58783C368.99652,450.641,369.50946,450.6927,370.0174,450.73276L370.00977,450.7322L370.01154,450.73233L370.01907,450.73288C371.37506,450.83966,372.56046,450.8488,373.44196,450.58347L373.44193,450.58347C374.61993,450.22888,375.3351,449.3583,376.16016,448.32867C376.34494,448.0981,376.68164,448.06094,376.9122,448.24573C377.14276,448.4305,377.1799,448.7672,376.99518,448.99777 Z"/> </g> <g style="fill:rgb(0,0,0); fill-opacity:1.0; stroke-linejoin: miter"> <path d="M374.35498,442.12488L374.35498,442.12488L341.89117,453.1231C341.7543,453.16946,341.6045,453.15845,341.47583,453.09268C341.34717,453.02682,341.2506,452.91174,341.20816,452.7736L341.20816,452.7736C336.1178,436.21344,331.02365,419.64105,325.10712,391.67822L325.10712,391.67822C319.19376,363.73032,312.451,324.36798,311.7126,293.35345L311.7126,293.35345C311.1789,270.9382,313.7818,252.89493,315.9595,237.7948L315.9595,237.7948C316.79694,231.98811,317.57025,226.62549,318.08057,221.61082L318.08057,221.61082C319.91684,203.56598,318.34906,190.00558,316.7748,176.39766C316.74084,176.10416,316.95126,175.8387,317.24475,175.80475C317.53827,175.7708,317.8037,175.9812,317.83768,176.2747L317.83768,176.2747C319.4126,189.88814,320.99405,203.549,319.14502,221.71916L319.14502,221.71916C318.63196,226.76077,317.85522,232.14569,317.0185,237.94753L317.0185,237.94753C314.8412,253.04474,312.2509,271.01035,312.78223,293.328L312.78223,293.328C313.51825,324.2416,320.2442,363.5261,326.15393,391.45676L326.15393,391.45676C332.06052,419.37277,337.14362,435.90918,342.2309,452.4592L341.54788,452.10968L374.01166,441.11148C374.29147,441.0167,374.59518,441.1667,374.69,441.44653C374.7848,441.72635,374.63477,442.03006,374.35498,442.12488 Z"/> </g> <g style="fill:rgb(0,0,0); fill-opacity:1.0; stroke-linejoin: miter"> <path d="M217.26607,434.2173L217.26607,434.2173L223.48154,437.2637C223.59398,437.3188,223.68353,437.4116,223.73457,437.5259L223.73457,437.5259C225.7493,442.03723,227.72014,446.4353,231.12497,449.81024L231.12497,449.81024C234.5378,453.1931,239.41779,455.57617,244.40756,458.00653L243.66815,458.3113C254.89511,426.1218,266.10126,393.9877,270.9622,367.9846L270.9622,367.9846C275.81625,342.01794,274.3419,322.16183,269.45038,297.5014L269.45038,297.5014C266.39774,282.11142,262.01715,264.86417,258.15054,249.64067L258.15054,249.64067C255.81757,240.45528,253.67079,232.00325,252.1205,225.15608L252.1205,225.15608C247.99673,206.94276,248.08508,200.0497,248.17734,193.16061C248.18129,192.86519,248.42398,192.62889,248.71942,192.63284C249.01486,192.63681,249.25114,192.87947,249.2472,193.17494L249.2472,193.17494C249.15596,199.98836,249.06067,206.79668,253.16403,224.91982L253.16403,224.91982C254.71039,231.74956,256.85358,240.18808,259.18756,249.37727L259.18756,249.37727C263.05237,264.5935,267.4409,281.8712,270.4999,297.29324L270.4999,297.29324C275.40955,322.04504,276.89984,342.04425,272.01392,368.1812L272.01392,368.1812C267.13486,394.28143,255.8961,426.50082,244.67844,458.66367C244.6281,458.80795,244.51845,458.92383,244.37717,458.9821C244.23589,459.04037,244.07643,459.03537,243.93903,458.96848L243.93903,458.96848C238.9917,456.5588,233.93468,454.10184,230.37173,450.57016L230.37173,450.57016C226.80087,447.03067,224.75726,442.43976,222.75761,437.96225L223.01065,438.2245L216.79517,435.17807C216.52986,435.048,216.42021,434.72757,216.55025,434.46225C216.68027,434.19693,217.00076,434.08722,217.26607,434.2173 Z"/> </g> <g style="fill:rgb(0,0,0); fill-opacity:1.0; stroke-linejoin: miter"> <path d="M252.96404,177.44191L252.96404,177.44191C252.91891,174.27856,252.87146,171.2056,251.88214,168.13191L251.88214,168.13191C250.88898,165.0464,248.93964,161.93474,246.93994,158.74883L247.7313,158.87889C247.11627,159.38083,246.30809,160.0608,244.96655,159.73546L244.96654,159.73546C244.27664,159.56813,243.48747,159.14523,242.53055,158.39333L242.53055,158.39333C239.8598,156.29475,235.52132,151.3333,233.71301,147.05266L233.71301,147.05266C231.87524,142.70229,232.65958,139.08235,233.40099,135.61806L233.54338,136.10587L233.53171,136.09402L233.53152,136.09386C229.76646,132.27615,225.90894,128.36491,224.50682,120.56809L224.50682,120.56809C223.1169,112.83904,224.13843,101.27798,227.4248,93.45886L227.4248,93.45886C230.73709,85.578156,236.3359,81.52353,242.71107,77.765396L242.71107,77.765396C249.0773,74.012535,256.3838,70.458305,264.7002,69.87708L264.7002,69.87708C268.7687,69.59272,273.06494,70.0207,276.99927,70.97491L276.99927,70.97491C281.09888,71.9692,284.83804,73.54281,287.52722,75.507996L287.52722,75.507996C292.8357,79.38726,293.9494,84.72144,295.03305,89.83669C295.09427,90.125725,294.9096,90.40969,294.62054,90.47092C294.3315,90.53216,294.04755,90.34748,293.98633,90.058426L293.98633,90.058426C292.89572,84.91041,291.83527,79.98139,286.89594,76.37186L286.89594,76.37186C284.35303,74.51357,280.75565,72.98692,276.74707,72.014725L276.74707,72.01473C272.90872,71.083786,268.7229,70.668495,264.77478,70.94442L264.77478,70.94442C256.7121,71.50793,249.58112,74.95757,243.25443,78.68712L243.25443,78.68712C236.93661,82.411446,231.58673,86.31801,228.41118,93.873436L228.41118,93.873436C225.20975,101.49046,224.2043,112.84068,225.55988,120.3787L225.55988,120.3787C226.90044,127.83317,230.54822,131.54506,234.29333,135.34254L234.29315,135.34238L234.30484,135.35422C234.43149,135.4826,234.48492,135.66586,234.44724,135.842L234.44724,135.842C233.70457,139.31224,233.00479,142.62659,234.69864,146.63629L234.69864,146.63629C236.42192,150.71567,240.6307,155.53975,243.19164,157.55203L243.19164,157.55203C244.09032,158.2582,244.73923,158.57933,245.21873,158.69565L245.21873,158.69565C246.005,158.88632,246.4332,158.55724,247.0548,158.04994C247.17366,157.95296,247.32843,157.91165,247.47981,157.93654C247.6312,157.9614,247.7646,158.05006,247.84618,158.18001L247.84618,158.18001C249.82718,161.3361,251.85844,164.56622,252.90063,167.80408L252.90063,167.80408C253.94656,171.05363,253.98907,174.28535,254.03387,177.42665C254.03809,177.72209,253.802,177.965,253.50658,177.96921C253.21115,177.97342,252.96825,177.73734,252.96404,177.44191 Z"/> </g> <g style="fill:rgb(0,0,0); fill-opacity:1.0; stroke-linejoin: miter"> <path d="M295.13916,89.91704L295.13916,89.91708L295.1591,89.9503L295.15906,89.95025C297.90533,94.52877,300.68698,99.16686,302.3165,103.830574L302.3165,103.830574C303.9526,108.51312,304.42087,113.2016,304.8843,117.81915L304.84247,117.65896C306.5416,121.56074,308.25674,125.49747,309.49652,129.76624L309.49652,129.76624C310.73566,134.03271,311.49655,138.61934,312.25183,143.16803L312.04785,142.82976L315.43335,145.40349C315.5674,145.50539,315.64566,145.66444,315.6446,145.83282L315.6446,145.83282C315.61118,151.00911,315.57825,156.1584,316.00113,161.35237L316.00113,161.35237C316.424,166.54704,317.30347,171.79425,318.18768,177.06813C318.2239,177.2842,318.12476,177.5005,317.93738,177.61407L317.93726,177.61417L317.9043,177.63414L317.90442,177.63403C311.1982,181.6993,304.38605,185.82764,294.62604,186.60318L294.62604,186.60318C293.48703,186.6937,292.30914,186.73846,291.10577,186.73848L291.10577,186.73848C282.02417,186.73846,271.36087,184.18433,264.8812,179.32072L264.8812,179.32072C257.50412,173.78352,255.64,165.31644,253.80975,157.09319C253.76877,156.90901,253.82784,156.71687,253.9652,156.58751C254.10255,156.45815,254.2979,156.41072,254.47928,156.46268L254.47928,156.46268L275.71506,162.54591L275.05927,162.8939L279.3671,149.72322C279.407,149.60118,279.4895,149.49756,279.5995,149.43129L279.5995,149.43129L292.98868,141.36505C293.0694,141.31642,293.16156,141.28996,293.2558,141.28838L293.2558,141.28838L298.35278,141.20313L297.94705,141.40002L300.67136,138.0578C300.8221,137.87286,301.0771,137.8101,301.29645,137.90398L301.29645,137.90398L312.2134,142.57478C312.48505,142.691,312.61105,143.00543,312.4948,143.27707C312.3786,143.5487,312.06418,143.67471,311.79254,143.55849L311.79254,143.55849L300.87558,138.88766L301.5007,138.73383L298.7764,142.07605C298.67676,142.19824,298.52832,142.2703,298.37067,142.27293L298.37067,142.27293L293.27368,142.3582L293.5408,142.28154L280.15164,150.34778L280.38403,150.05585L276.0762,163.22653C275.98676,163.50002,275.697,163.65375,275.4204,163.57451L275.4204,163.57451L254.18463,157.49127L254.85416,156.86075C256.6998,165.15332,258.51154,173.20187,265.5235,178.46501L265.5235,178.46501C271.75433,183.14185,282.16122,185.66852,291.10577,185.66853L291.10577,185.66853C292.28244,185.6685,293.43268,185.62468,294.5413,185.53659L294.5413,185.53659C304.02112,184.7833,310.63733,180.7881,317.3498,176.71909L317.3499,176.71898L317.3829,176.699L317.13245,177.24504C316.2496,171.97937,315.36194,166.68689,314.9347,161.4392L314.9347,161.4392C314.5074,156.19075,314.5413,150.9948,314.57465,145.82591L314.78583,146.25526L311.40033,143.68155C311.29166,143.59892,311.2187,143.47792,311.19632,143.34328L311.19632,143.34328C310.43893,138.78185,309.68738,134.25963,308.46906,130.06465L308.46906,130.06465C307.2514,125.872246,305.56454,121.99691,303.8615,118.08616C303.83932,118.03527,303.82523,117.98123,303.81967,117.926L303.81967,117.926C303.35452,113.29136,302.89423,108.72774,301.30643,104.183495L301.30643,104.183495C299.71985,99.64265,297.0011,95.10134,294.24152,90.50062L294.2415,90.50057L294.22156,90.46736C294.0696,90.21403,294.15182,89.88542,294.40518,89.73345C294.65857,89.58147,294.98718,89.663666,295.13916,89.91704 Z"/> </g> <g style="fill:rgb(0,0,0); fill-opacity:1.0; stroke-linejoin: miter"> <path d="M285.71463,196.09464L285.71472,196.09465L285.65927,196.08145L285.65918,196.08144C278.80945,194.45215,271.88458,192.8039,266.2707,190.04568L266.2707,190.04568C260.62933,187.274,256.33206,183.39256,252.0931,179.56773C251.87372,179.36981,251.85635,179.03152,252.05429,178.81216C252.25223,178.5928,252.5905,178.57542,252.80986,178.77335L252.80986,178.77335C257.0615,182.60959,261.2548,186.38918,266.7425,189.08539L266.7425,189.08539C272.22766,191.78035,279.02618,193.40392,285.90677,195.04053L285.9067,195.04051L285.96216,195.0537C286.24966,195.12209,286.42725,195.41052,286.3589,195.69795C286.29053,195.9854,286.00208,196.163,285.71463,196.09464 Z"/> </g> <g style="fill:rgb(0,0,0); fill-opacity:1.0; stroke-linejoin: miter"> <path d="M296.80856,186.65608L296.80856,186.65608L286.66858,195.92592C286.4505,196.12527,286.11212,196.11012,285.91278,195.89204C285.7134,195.67398,285.7286,195.33559,285.94666,195.13623L285.94666,195.13623L296.08667,185.86636C296.3047,185.667,296.6431,185.68219,296.84247,185.90025C297.0418,186.11833,297.02664,186.45673,296.80856,186.65608 Z"/> </g> <g style="fill:rgb(0,0,0); fill-opacity:1.0; stroke-linejoin: miter"> <path d="M286.11917,196.10745L286.11917,196.10744L286.08624,196.15172L286.08624,196.15173C282.20575,201.36906,278.26263,206.67204,274.55493,209.61691L274.55493,209.61691C270.78656,212.60997,267.2701,213.16806,263.8724,213.71242C263.6764,213.7438,263.47913,213.66411,263.35995,213.5054L263.36,213.50542L263.33118,213.46709L263.33118,213.46706C260.13654,209.21236,256.91592,204.92186,254.75523,201.15187L254.75523,201.15187C252.57938,197.35548,251.48157,194.09402,250.39746,190.87636C250.30312,190.59637,250.45363,190.29294,250.73363,190.1986C251.01363,190.10425,251.31708,190.25476,251.4114,190.53474L251.4114,190.53474C252.49503,193.75092,253.56494,196.92336,255.68352,200.61983L255.68352,200.61983C257.80426,204.32011,260.97955,208.55312,264.1868,212.82462L264.18677,212.82458L264.21555,212.86292L263.70316,212.65594C267.08948,212.1134,270.35712,211.58467,273.88947,208.77907L273.88947,208.77907C277.4619,205.94162,281.31284,200.77675,285.2277,195.5132L285.22766,195.5132L285.26062,195.46892C285.43695,195.23183,285.7721,195.18257,286.00916,195.35892C286.24625,195.53523,286.2955,195.87038,286.11917,196.10745 Z"/> </g> <g style="fill:rgb(0,0,0); fill-opacity:1.0; stroke-linejoin: miter"> <path d="M319.18103,195.86972L319.18103,195.86972L314.6157,209.53902C314.55685,209.71513,314.41092,209.84816,314.2301,209.89046C314.04932,209.93275,313.8595,209.87827,313.72864,209.74652L313.72864,209.74648L313.71188,209.72964L313.7119,209.72966C309.0484,205.03358,304.46652,200.42975,300.04443,198.06757L300.04443,198.06757C299.71893,197.89369,299.39548,197.73262,299.07312,197.58464L299.07312,197.58463C294.4052,195.4417,289.89575,196.00815,285.22006,196.60701C284.927,196.64453,284.65897,196.4374,284.62143,196.14433C284.5839,195.85126,284.79108,195.58325,285.08414,195.54572L285.08414,195.54572C289.72662,194.95113,294.53537,194.32413,299.51953,196.61223L299.51953,196.61223C299.86267,196.76978,300.20557,196.9406,300.54858,197.12383L300.54858,197.12383C305.1438,199.57848,309.8482,204.32056,314.47113,208.97572L314.47116,208.97575L314.48788,208.9926L313.60083,209.20006L318.1662,195.53078C318.2598,195.25053,318.56287,195.09923,318.8431,195.19281C319.12335,195.28642,319.27463,195.58948,319.18103,195.86972 Z"/> </g> <g style="fill:rgb(0,0,0); fill-opacity:1.0; stroke-linejoin: miter"> <path d="M294.17096,90.68315L294.17096,90.68315C291.30115,89.12738,288.62753,87.69579,286.59192,87.69579L286.59192,87.69579C286.2548,87.69579,285.9442,87.73599,285.6593,87.81828L285.6593,87.81828C284.4547,88.166245,283.51898,89.30673,282.5914,90.46704L282.5914,90.46704C282.03424,91.16399,281.42987,91.93696,280.78107,92.28282L280.78107,92.28282C280.4766,92.44513,280.16522,92.51664,279.85187,92.51664L279.85184,92.51664C279.10474,92.516655,278.3689,92.096466,277.72922,91.7453L277.72922,91.7453C277.0809,91.38939,276.43253,91.03681,275.68817,90.86595L275.68817,90.86595C275.2959,90.775894,274.86487,90.734184,274.39706,90.73419L274.39706,90.73419C272.65353,90.73419,270.54984,91.30789,268.3461,91.91329L268.35617,91.910416C259.6117,94.49751,251.30313,97.00098,249.09955,105.84254L249.09955,105.84254C246.85136,114.863075,250.87695,130.50223,254.98389,146.3873C255.0539,146.65804,254.90355,146.93703,254.63892,147.02745L254.63892,147.02745L249.87778,148.65433C249.63727,148.73651,249.37213,148.6381,249.24344,148.41893L249.24344,148.41893C247.05234,144.68655,244.91774,141.06116,242.38005,138.78505L242.38007,138.78505C239.8645,136.52881,236.9254,135.57874,233.86438,134.59657C233.58305,134.50632,233.42816,134.20508,233.51843,133.92375C233.6087,133.64243,233.90994,133.48752,234.19127,133.57777L234.19127,133.57777C237.22676,134.55173,240.38446,135.55789,243.09445,137.98854L243.09447,137.98854C245.78246,140.39944,248.00253,144.19171,250.16615,147.87724L249.53181,147.64185L254.29297,146.01497L253.948,146.6551C249.87968,130.91942,245.73004,114.93787,248.06134,105.58377L248.06134,105.58377C250.43726,96.05078,259.4629,93.42573,268.0526,90.88442L268.06268,90.88156C270.22064,90.28874,272.47842,89.664215,274.3971,89.66423L274.3971,89.66423C274.9266,89.66423,275.44034,89.71128,275.92752,89.82312L275.92752,89.82312C276.8382,90.03215,277.61084,90.45972,278.24414,90.807396L278.24414,90.807396C278.96838,91.20499,279.43817,91.44668,279.85184,91.44667L279.8518,91.44668C279.99493,91.44668,280.13278,91.415924,280.27774,91.33865L280.27774,91.33865C280.6845,91.1218,281.13556,90.5746,281.75568,89.79893L281.75568,89.79893C282.6244,88.71228,283.7689,87.250656,285.36237,86.79035L285.36237,86.79035C285.75778,86.676125,286.17,86.62584,286.59192,86.62585L286.59192,86.62585C288.9647,86.62585,291.9209,88.246284,294.6809,89.74252C294.94067,89.88332,295.03708,90.20805,294.89624,90.46781C294.75543,90.727554,294.43073,90.82396,294.17096,90.68315 Z"/> </g> <g style="fill:rgb(0,0,0); fill-opacity:1.0; stroke-linejoin: miter"> <path d="M284.73907,154.51309L284.73907,154.51309L295.8823,149.4432C295.99658,149.39122,296.1255,149.38107,296.24646,149.41452L296.24646,149.41452L299.06836,150.1949L298.56293,150.3174L301.1318,147.94655C301.26938,147.81958,301.46332,147.77377,301.6432,147.82578L301.6432,147.82578L307.0021,149.37498C307.2342,149.44208,307.39252,149.65637,307.38843,149.8979L307.38843,149.8979L307.18533,161.97765C307.18112,162.22754,307.0045,162.44121,306.75983,162.49234C306.51523,162.54344,306.26776,162.41837,306.16388,162.19107L306.16388,162.19107L303.1054,155.49992L303.6904,155.80336L294.48972,157.5253L294.92358,156.94597L296.00873,167.74527C296.02637,167.9204,295.9567,168.09297,295.82245,168.20679C295.68817,168.32062,295.50653,168.36115,295.33667,168.31514L295.33667,168.31514C291.3686,167.24083,287.0956,166.10968,285.2073,163.81143L285.2073,163.81143C283.2668,161.44969,283.90247,157.98938,284.4334,154.90918C284.4635,154.73471,284.57794,154.58643,284.73907,154.51309L284.73907,154.51309 M285.18216,155.487L285.48782,155.09093C284.92615,158.34935,284.46918,161.22766,286.034,163.13217L286.034,163.13217C287.6509,165.10014,291.4812,166.16284,295.61627,167.28236L294.94415,167.85223L293.859,157.05295C293.8312,156.77646,294.01974,156.52473,294.29288,156.4736L294.29288,156.4736L303.49353,154.75166C303.7351,154.70645,303.97635,154.83162,304.07852,155.05511L304.07852,155.05511L307.137,161.74626L306.1155,161.95966L306.31863,149.87993L306.70496,150.40286L301.34607,148.85362L301.85748,148.73283L299.2886,151.10367C299.15265,151.22913,298.9615,151.27547,298.78317,151.22615L298.78317,151.22615L295.96127,150.44577L296.32544,150.41711L285.18216,155.487 Z"/> </g> <g style="fill:rgb(0,0,0); fill-opacity:1.0; stroke-linejoin: miter"> <path d="M206.63612,391.91528L206.63612,391.91528L217.31778,360.1689C217.41199,359.8889,217.7154,359.73825,217.99542,359.8325C218.27545,359.92673,218.42609,360.2301,218.33188,360.51013L218.33188,360.51013L207.65022,392.2565C207.556,392.53653,207.25261,392.68716,206.97256,392.59293C206.69254,392.49872,206.5419,392.1953,206.63612,391.91528 Z"/> </g> <g style="fill:rgb(153,150,164); fill-opacity:1.0; stroke-linejoin: miter"> <path d="M248.15976,194.58226C248.09279,201.04881,248.27966,208.19234,252.1205,225.15608C253.67079,232.00325,255.81757,240.45528,258.15054,249.64067C262.01715,264.86417,266.39774,282.11142,269.45038,297.5014C274.3419,322.16183,275.81625,342.01794,270.9622,367.9846C266.12988,393.83463,255.02682,425.74368,243.86641,457.74286L243.86641,457.74286C239.06656,455.4024,234.4143,453.0707,231.12497,449.81024C227.72014,446.4353,225.7493,442.03723,223.73457,437.5259C223.68353,437.4116,223.59398,437.3188,223.48154,437.2637L217.26607,434.2173C217.25229,434.21054,217.23836,434.2044,217.22432,434.19894L217.22214,434.19894C217.92574,431.85678,218.88565,431.31534,219.88765,430.72406C220.01358,430.64978,220.1036,430.52713,220.13678,430.38477C220.16995,430.24234,220.1434,430.09256,220.0633,429.97025C216.64886,424.75687,213.35898,419.70642,213.3042,413.86325C213.24908,407.98657,216.45819,401.23996,219.75943,394.32803C219.81268,394.21655,219.82462,394.09296,219.79805,393.97748L219.79585,393.97748L235.17035,370.7338C235.31036,370.5221,235.28238,370.24118,235.1034,370.06128L225.25925,360.16772L225.25699,360.16772C225.259,360.07385,225.23633,359.97952,225.18887,359.8948L198.92831,313.01413L198.9284,313.01413C196.31195,308.16476,193.6103,303.13373,190.48956,300.79886C188.53613,299.3374,186.43886,298.93604,184.34349,298.93604C183.00516,298.93604,181.6676,299.09976,180.3688,299.25558C180.2703,299.2674,180.177,299.30643,180.09938,299.3682L155.32889,319.0828C155.11319,319.2545,155.06326,319.56198,155.2136,319.79312C159.70601,326.69955,164.24649,333.68567,168.93607,338.1672C173.6523,342.6742,178.5053,344.63876,183.26894,346.57132C183.27527,346.5739,183.2817,346.57635,183.28815,346.5787C191.51779,349.55423,199.66542,352.50223,203.5184,354.66568C207.20926,356.7381,206.69913,357.90317,206.36778,359.07623C206.3248,359.22836,206.3513,359.39172,206.44022,359.5225C206.52911,359.65323,206.6713,359.7379,206.82858,359.7539L216.98117,360.78476C216.99902,360.78656,217.01694,360.7875,217.03488,360.7875C217.03722,360.7875,217.03957,360.78748,217.04192,360.78745L217.10995,360.7866L217.10995,360.7866L206.80272,391.42014L198.35818,385.2134C198.26295,385.1434,198.1519,385.10947,198.04169,385.10947C197.8861,385.10947,197.73216,385.1771,197.62674,385.3064C196.35443,386.86685,195.12558,388.46588,191.8237,388.46588C190.24026,388.46588,188.1801,388.09814,185.40977,387.18207C176.70607,384.30392,161.23099,376.06174,148.66547,368.20764C136.11853,360.36523,126.51266,352.9347,118.5756,346.55457C110.592636,340.13745,104.48855,334.91534,102.582375,328.4801C101.04657,323.29517,102.215355,317.26013,103.9564,310.94327L103.95536,310.94327C103.97251,310.90793,103.986015,310.87018,103.99529,310.83032C104.00697,310.78015,104.01865,310.72998,104.030334,310.6798L104.02929,310.6798C104.40891,309.31293,104.81388,307.93326,105.22267,306.5465L105.22162,306.5465C106.0404,304.40656,107.383446,301.94122,109.98728,298.68146C114.4977,293.03485,122.760735,285.04126,131.07082,277.0048L131.0695,277.0048C137.00333,272.02347,142.90364,267.07117,146.92564,264.2957C150.91162,261.545,153.02496,260.95224,155.15985,260.34924C155.27153,260.3177,155.36993,260.25064,155.4402,260.15826C161.98709,251.55249,168.50789,242.98,183.7937,232.21706C199.11302,221.43048,223.22296,208.45145,247.37932,195.44849C247.55054,195.35631,247.65126,195.18427,247.66019,195.00325L247.6577,195.00325C247.8245,194.8744,247.99112,194.73535,248.15729,194.58226 Z"/> </g> <g style="fill:rgb(153,150,164); fill-opacity:1.0; stroke-linejoin: miter"> <path d="M318.0107,177.74435L318.0107,177.74435C318.60736,178.27219,319.2786,178.78485,320.1155,179.2176C320.68256,179.5108,321.32172,179.76567,322.06232,179.96765C323.03717,180.23349,324.1902,180.4072,325.82816,180.65509C328.30902,181.03058,331.99243,181.588,338.091,182.89969C348.25266,185.0852,365.0882,189.3578,375.61877,193.19255C379.2521,194.51564,382.1298,195.78493,384.5131,197.01732C389.01935,199.34738,391.77655,201.5543,394.56314,203.78554L394.56128,203.78554L424.30426,231.1274C424.31873,231.1407,424.33392,231.15321,424.34973,231.16486C435.58246,239.40936,446.79233,247.63748,455.08807,254.70433C463.3706,261.75986,468.7505,267.65997,474.14655,273.5793L474.14178,273.5793C479.92932,282.11554,485.51727,290.425,484.44553,299.29956C483.36584,308.2402,475.53152,317.86304,467.51892,327.6734L467.5182,327.6734C451.67288,345.468,435.8861,363.19186,424.40085,372.0371C415.16278,379.15167,408.7286,380.50076,404.4923,381.39243C403.48288,381.6049,402.56998,381.79663,401.77295,382.0366C397.91547,383.19797,396.83047,385.46912,396.06876,387.70642L396.06876,387.70642L377.62662,366.10416L377.62662,366.10416L385.4751,361.9368C385.6218,361.8589,385.724,361.71725,385.75168,361.55347C386.32892,358.13882,386.88284,354.9929,388.68887,353.20612C389.25375,352.64722,389.9579,352.2079,390.77515,351.85242C392.5376,351.0859,394.74026,350.74213,397.03622,350.38754C397.28485,350.34912,397.47318,350.14267,397.4886,349.89154C397.66418,347.02655,397.84784,344.48477,399.07132,343.14575C399.4202,342.76398,399.87067,342.46585,400.41327,342.22983L400.41324,342.22983C401.71265,341.6647,403.42688,341.49753,405.2638,341.32666L405.26382,341.32666L405.2893,341.32428L405.28928,341.32428C405.51642,341.30316,405.70517,341.14032,405.7594,340.91873C406.2806,338.78812,406.76846,336.84692,407.86584,335.60382C408.47952,334.90866,409.31232,334.4062,410.28787,333.98187L410.2879,333.98187C411.01114,333.6673,411.79028,333.40488,412.59598,333.1348L412.62543,333.1249C412.75815,333.0804,412.86813,332.9857,412.9318,332.86102L428.45526,302.4733C428.5222,302.34232,428.53223,302.18958,428.48303,302.05096C428.43384,301.91235,428.3297,301.8001,428.1952,301.74063C426.49173,300.98737,424.77267,300.24515,420.15387,295.53513C415.5255,290.8154,408.03104,282.15814,400.5066,273.4636L400.5066,273.4636L400.42627,273.37082L400.42627,273.3708C400.4182,273.36148,400.40994,273.35254,400.4014,273.34393L400.3974,273.34393C400.3903,273.3177,400.38107,273.29166,400.3697,273.26605C400.28107,273.06668,400.08548,272.94824,399.88052,272.94824C399.80792,272.94824,399.73413,272.9631,399.6635,272.99448C396.67987,274.3207,393.79507,275.7087,388.2802,288.58017C382.78116,301.4148,374.60654,325.81128,366.44458,350.16837C366.42816,350.21744,366.41888,350.26865,366.41718,350.32043L365.9259,364.97403L365.9259,364.97403L355.89572,364.24182C355.88248,364.24084,355.8693,364.2404,355.8562,364.2404C355.57846,364.2404,355.34375,364.45502,355.3232,364.73645C355.32138,364.76163,355.32132,364.78656,355.3229,364.81107L355.31937,364.81107C355.2729,364.9102,355.25632,365.02444,355.27887,365.14017C356.54324,371.62613,357.81628,378.16293,360.21445,384.533C362.51712,390.64935,365.8523,396.59888,369.20465,402.5024L369.20096,402.5024C369.08597,402.7281,369.14468,403.0106,369.35312,403.16992C369.40372,403.2086,369.459,403.23685,369.51642,403.255L369.51273,403.255C371.86212,411.38834,374.1548,419.39703,374.52307,424.9188C374.89157,430.4441,373.32706,433.45493,371.7183,436.5501C371.64838,436.68463,371.6388,436.84247,371.692,436.98444L373.3243,441.34436L373.3243,441.34436L342.06918,451.93307L342.06918,451.93307C337.0358,435.55743,331.99792,419.07697,326.15393,391.45676C320.2442,363.5261,313.51825,324.2416,312.78223,293.328C312.2509,271.01035,314.8412,253.04474,317.0185,237.94753C317.85522,232.14569,318.63196,226.76077,319.14502,221.71916C320.92752,204.20268,319.52194,190.87689,318.0075,177.74435 Z"/> </g> <g style="fill:rgb(164,176,205); fill-opacity:1.0; stroke-linejoin: miter"> <path d="M250.4569,191.05275C251.52203,194.21336,252.61913,197.42484,254.75523,201.15187C256.91592,204.92186,260.13654,209.21236,263.33118,213.46706L263.33118,213.46709L263.36,213.50542L263.35995,213.50542C263.46194,213.64122,263.6211,213.71916,263.78772,213.71916C263.81583,213.71916,263.84412,213.71695,263.8724,213.71242C267.2701,213.16806,270.78656,212.60997,274.55493,209.61691C278.17233,206.74376,282.01385,201.62595,285.80264,196.533L285.79977,196.533C287.75635,196.28476,289.686,196.06172,291.61273,196.06172C294.0874,196.06172,296.55725,196.42964,299.07312,197.58463L299.07312,197.58464C299.39548,197.73262,299.71893,197.89369,300.04443,198.06757C304.46652,200.42975,309.0484,205.03358,313.7119,209.72966L313.71188,209.72966L313.72864,209.74648L313.72864,209.74652C313.83023,209.84882,313.9674,209.90453,314.10828,209.90453C314.14883,209.90453,314.1897,209.89992,314.2301,209.89046C314.41092,209.84816,314.55685,209.71513,314.6157,209.53902L318.70172,197.30489L318.7049,197.30489C319.06604,204.66162,319.00018,212.57387,318.08057,221.61082C317.57025,226.62549,316.79694,231.98811,315.9595,237.7948C313.7818,252.89493,311.1789,270.9382,311.7126,293.35345C312.451,324.36798,319.19376,363.73032,325.10712,391.67822C331.02365,419.64105,336.1178,436.21344,341.20816,452.7736C341.2506,452.91174,341.34717,453.02682,341.47583,453.09268C341.55203,453.13162,341.63565,453.15137,341.71957,453.15137C341.7774,453.15137,341.83536,453.142,341.89117,453.1231L373.69965,442.3469L373.69965,442.3469L375.90045,448.22522L375.8967,448.22522C375.86667,448.34076,375.87494,448.467,375.9289,448.58383C375.9325,448.5916,375.93607,448.5994,375.93967,448.60715L375.9359,448.60715C375.20032,449.51337,374.51212,450.26135,373.44193,450.58347L373.44196,450.58347C372.91403,450.74237,372.2771,450.80283,371.55978,450.80283C371.0794,450.80283,370.56296,450.7757,370.01907,450.73288L370.01154,450.73233L370.00977,450.7322L370.01044,450.7322C369.5048,450.69223,368.9941,450.64075,368.46936,450.58783C368.45135,450.586,368.4334,450.5851,368.41553,450.5851C368.24347,450.5851,368.08054,450.66815,367.9796,450.81024C364.37408,455.88452,360.8175,460.88385,354.54938,465.17242C348.26407,469.47278,339.242,473.0688,330.13196,476.6939L330.12866,476.6939C323.517,477.9481,316.9434,479.1934,312.0141,479.69705C309.87982,479.91513,308.05396,479.99414,306.40018,479.99414C304.39667,479.99414,302.64575,479.87817,300.9051,479.75308L300.9021,479.75308L296.47705,456.86224C296.42822,456.60968,296.2071,456.42883,295.95206,456.42883C295.94434,456.42883,295.93658,456.429,295.9288,456.42932C295.66406,456.4407,295.4475,456.6442,295.41974,456.90775L292.9401,480.44073L292.9401,480.44073C285.67166,480.395,278.4168,480.33737,270.75842,479.73398C268.8754,479.58563,266.96704,479.40414,265.0301,479.1819L265.03012,479.1819C255.02704,478.034,244.3071,475.8023,235.95792,470.12195C227.68501,464.49353,221.68526,455.4491,215.64008,446.25293L215.63792,446.25293C215.99377,442.02676,216.35397,437.91776,216.94968,435.25485L216.95184,435.25485L222.8395,438.1406L222.83727,438.1406C224.81178,442.56143,226.84827,447.07764,230.37173,450.57016C233.93468,454.10184,238.9917,456.5588,243.93903,458.96848C244.01283,459.0044,244.093,459.0225,244.17331,459.0225C244.2425,459.0225,244.31178,459.00906,244.37717,458.9821C244.51845,458.92383,244.6281,458.80795,244.67844,458.66367C255.8961,426.50082,267.13486,394.28143,272.01392,368.1812C276.89984,342.04425,275.40955,322.04504,270.4999,297.29324C267.4409,281.8712,263.05237,264.5935,259.18756,249.37727C256.85358,240.18808,254.71039,231.74956,253.16403,224.91982C249.0916,206.93327,249.15475,200.09163,249.24513,193.32901L249.24265,193.32901C249.65582,192.73618,250.06148,191.99837,250.45439,191.05275 Z"/> </g> <g style="fill:rgb(164,176,205); fill-opacity:1.0; stroke-linejoin: miter"> <path d="M316.98233,178.19441L316.98233,178.19441C317.6193,183.72728,318.23047,189.28525,318.58774,195.17262L318.58456,195.17262C318.3961,195.20462,318.231,195.33682,318.1662,195.53078L313.8759,208.37648L313.8759,208.37648C309.4449,203.91801,304.94672,199.4732,300.54858,197.12383C300.20557,196.9406,299.86267,196.76978,299.51953,196.61223C296.82944,195.37727,294.19043,194.9915,291.60107,194.9915C290.18417,194.9915,288.7821,195.10703,287.3947,195.26212L287.3947,195.26212L296.80856,186.65608C296.90134,186.57127,296.9574,186.46129,296.97583,186.34612L296.97287,186.34612C305.07733,185.20978,311.11816,181.73778,316.97916,178.19441 Z"/> </g> <g style="fill:rgb(164,176,205); fill-opacity:1.0; stroke-linejoin: miter"> <path d="M253.31123,180.66493L253.31123,180.66493C257.16577,184.12436,261.16852,187.53891,266.2707,190.04568C271.61493,192.67142,278.14725,194.29126,284.6718,195.84642L284.66898,195.84642C284.62622,195.93602,284.60788,196.03854,284.62143,196.14433C284.62766,196.19296,284.64023,196.23921,284.6582,196.28238L284.65536,196.28238C280.93787,201.27502,277.2877,206.08,273.88947,208.77907C270.46802,211.49658,267.29492,212.07796,264.02176,212.60481L264.02176,212.60481C260.8709,208.40804,257.76788,204.25664,255.68352,200.61983C253.56494,196.92336,252.49503,193.75092,251.4114,190.53474C251.33617,190.3114,251.12784,190.17044,250.90451,190.17044C250.86705,190.17044,250.82918,190.17441,250.79144,190.18262L250.79144,190.18262C251.67049,187.76146,252.49843,184.31386,253.3087,180.66493 Z"/> </g> <g style="fill:rgb(193,160,119); fill-opacity:1.0; stroke-linejoin: miter"> <path d="M215.23859,447.58978L215.23859,447.58978C221.10045,456.49942,227.10838,465.3953,235.35606,471.00656C243.9292,476.8393,254.86728,479.09265,264.90814,480.24487C266.8585,480.46863,268.7798,480.6514,270.67438,480.80066C278.49402,481.41672,285.89444,481.46664,293.27014,481.5128L293.27017,481.5128L293.41803,481.51373C293.41916,481.51373,293.4203,481.51373,293.42142,481.51373C293.69495,481.51373,293.92468,481.3072,293.95337,481.03482L296.10773,460.58923L299.92935,480.3585C299.97525,480.59595,300.1748,480.77313,300.41602,480.79053C302.30148,480.9269,304.19696,481.06406,306.39877,481.06406C308.08325,481.06406,309.94705,480.9838,312.12286,480.76147C317.12054,480.25085,323.76608,478.98987,330.37726,477.7358L330.37738,477.7358L330.37982,477.73535L330.38437,477.73453C330.4179,477.72815,330.45074,477.7186,330.48248,477.70596C339.5694,474.0901,348.73834,470.44473,355.15356,466.05548C361.4885,461.72122,365.1255,456.6731,368.6714,451.68384L368.67508,451.68384C369.09567,451.72592,369.51453,451.76636,369.93323,451.7994L369.94086,451.79996L369.9409,451.79996C370.48306,451.8426,371.02695,451.873,371.55432,451.873C372.34378,451.873,373.0962,451.8049,373.7503,451.60803C374.94473,451.24847,375.75757,450.47644,376.43317,449.68515L376.43692,449.68515C378.36676,453.88065,380.1411,457.9371,380.55255,461.3729C380.9945,465.0639,379.86157,468.06815,378.67218,471.19894C378.63293,471.30222,378.62665,471.41513,378.65417,471.52216L395.7417,538.0101L395.7413,538.0101C400.2921,559.0773,404.83505,580.11566,407.03296,605.6222C409.23236,631.1464,409.08447,661.1519,408.93604,691.1917L408.936,691.1917L408.31113,758.54376L403.67834,799.76575L403.67834,799.76575L402.39893,799.8477L402.39893,799.8477C402.30783,799.73785,402.17328,799.6644,402.01962,799.655C399.4267,799.49646,396.96124,799.3395,394.9829,798.48706C394.6877,798.35986,394.40488,798.2175,394.13565,798.0584C393.44415,797.6496,392.82297,797.11896,392.1893,796.5758C391.6219,796.0895,391.03253,795.5824,390.4134,795.2163C390.23648,795.1117,390.05396,795.01654,389.8655,794.93536C389.4466,794.7549,389.00183,794.64484,388.52667,794.64484C388.31415,794.64484,388.09555,794.6669,387.87048,794.7144C385.48425,795.2187,382.46982,798.70184,379.66177,801.93634L379.65796,801.93634L363.0482,804.63776L363.0482,804.63776C360.6314,797.53455,358.33478,790.59265,358.3103,785.06995C358.28522,779.41144,360.6524,775.21295,363.1001,770.8901C363.18625,770.738,363.19263,770.5534,363.11725,770.3957C363.0418,770.23804,362.8941,770.12714,362.72168,770.09863C361.43484,769.88635,359.628,770.1472,358.6449,755.0922C357.67236,740.1988,357.49933,710.685,357.32635,681.1406C357.326,681.08325,357.31647,681.0264,357.29816,680.9722L357.28845,680.9436L357.28842,680.9435C356.17578,677.65704,355.1382,674.5413,355.60995,671.6707C356.08362,668.78845,358.08905,666.0859,360.21405,663.2433C360.3182,663.104,360.34814,662.9227,360.2943,662.7574C360.24048,662.592,360.1096,662.4631,359.94342,662.4118C357.07794,661.52716,354.59866,660.7213,353.71576,658.633C352.79684,656.4595,353.5135,652.7962,354.31268,648.84375C354.34763,648.6709,354.2952,648.49207,354.17252,648.3654C354.0708,648.26044,353.93164,648.20264,353.78864,648.20264C353.7592,648.20264,353.72955,648.2051,353.70007,648.2101L353.6869,648.2123L353.68567,648.2125C353.20456,648.2941,352.72852,648.38226,352.2467,648.38226C350.93265,648.38226,349.576,647.7266,347.9583,644.4945C345.64703,639.87665,342.96524,630.25397,340.2591,620.5336L340.24942,620.5025L305.00003,518.41046C304.92358,518.18896,304.71622,518.0499,304.4944,518.0499C304.43646,518.0499,304.37756,518.0594,304.31976,518.07935C304.04047,518.1757,303.89224,518.48035,303.98865,518.7596L304.1856,519.3301L304.18488,519.3513C303.85452,528.76306,303.52234,538.1261,302.47192,545.52545C301.4199,552.93604,299.64618,558.3817,297.85965,563.86444C297.84192,563.9188,297.83307,563.9757,297.83334,564.0329L298.12708,622.4178L298.12692,622.4178C298.01132,629.18396,297.8932,635.83844,296.82364,639.9284C295.779,643.92303,293.83093,645.43225,291.7913,647.0128C291.61142,647.1523,291.5394,647.39014,291.6118,647.6059C294.44052,656.0357,297.245,664.39825,298.1999,670.1278C299.14453,675.7958,298.27243,678.859,297.386,681.98016C297.36694,682.04724,297.3612,682.11743,297.36908,682.18665C298.0009,687.7523,298.63123,693.3036,298.67587,703.11176C298.72058,712.9334,298.17813,727.01984,297.63483,741.12354C297.6326,741.18164,297.63983,741.2398,297.6563,741.29553C300.87036,752.1862,304.06583,763.0188,305.24146,772.1794C306.39246,781.1475,305.608,788.52466,304.7791,795.9276L304.7761,795.9276L301.58636,796.25854L301.58636,796.25854C301.48907,796.122,301.3295,796.0337,301.15073,796.0337C301.14447,796.0337,301.1382,796.03375,301.13193,796.034C297.80438,796.1487,294.5057,796.26117,291.51572,796.26117C287.70425,796.26117,284.39438,796.07837,282.16568,795.48425C282.03946,795.4506,281.91714,795.4157,281.79895,795.37964C279.71744,794.744,278.76392,793.69037,277.98325,792.8276C277.5088,792.3032,276.99817,791.71655,276.273,791.4951L276.27298,791.4951C276.2493,791.4879,276.22327,791.4804,276.19907,791.474C276.03583,791.4305,275.8651,791.4057,275.68585,791.40076C275.66516,791.4002,275.64432,791.3999,275.62335,791.3999C273.53555,791.3999,269.94382,794.148,268.11847,795.73254C266.51132,797.1276,265.96036,797.8994,265.60626,798.5659L265.60626,798.5659C263.5226,795.5157,261.57675,792.501,261.17853,788.08466C260.75772,783.4178,262.0568,777.1655,263.38657,770.7926C263.42545,770.60626,263.3624,770.4133,263.221,770.286C259.9641,767.35095,256.64813,764.4354,253.49197,748.1461C250.32465,731.79926,247.34264,702.10736,244.35638,672.36847C244.35011,672.30597,244.33289,672.24506,244.30548,672.18854C242.9478,669.38837,241.68634,666.7554,242.04697,663.7674L242.04694,663.7674C242.4129,660.7351,244.44745,657.27997,246.57925,653.6803C246.70035,653.4759,246.67207,653.21606,246.50984,653.0425C244.4267,650.81305,242.52902,648.75323,242.60733,645.47107C242.68823,642.0805,244.8542,637.35474,247.11008,632.4599C247.15694,632.35815,247.17072,632.24445,247.14948,632.13446L230.99051,548.51074L219.31558,475.03967C219.29004,474.8788,219.19257,474.7384,219.05086,474.65814C216.37242,473.14136,213.87845,471.72495,213.27817,467.1366C212.69441,462.67422,213.89713,455.28284,215.23643,447.58978 Z"/> </g> <g style="fill:rgb(108,70,65); fill-opacity:1.0; stroke-linejoin: miter"> <path d="M275.6153,792.46985C275.6293,792.46985,275.64316,792.47003,275.6569,792.4704C275.75497,792.473,275.84265,792.4863,275.92346,792.5079C275.9355,792.51105,275.9486,792.51483,275.96057,792.51843L275.96054,792.51843C276.34714,792.6365,276.65726,792.95685,277.18985,793.5455C278.00763,794.4493,279.1219,795.6809,281.48648,796.40295L281.4865,796.40295C281.61743,796.4429,281.75247,796.4814,281.89008,796.51807C284.23276,797.1426,287.66537,797.33154,291.54938,797.33154C294.41977,797.33154,297.53668,797.22833,300.64246,797.12146L300.64545,797.12146C300.68094,797.1806,300.7274,797.23193,300.78174,797.2731L300.77872,797.2731L303.41168,834.7291L303.40863,834.7291C298.01498,836.7555,292.50775,838.8666,289.03757,842.5541C287.61258,844.0683,286.54132,845.8372,285.4997,847.5535C284.44214,849.2961,283.41394,850.98645,282.0545,852.4311C281.39142,853.1357,280.6516,853.7789,279.7958,854.3354C275.3981,857.1948,267.84103,857.8621,260.05353,858.5304L260.05353,858.5304C258.0275,858.43365,256.01407,858.3374,254.06244,858.1913C247.78537,857.7213,242.42345,856.74316,239.72021,853.83887C236.2064,850.0638,236.98026,842.6726,240.98363,836.65643C243.15813,833.3886,246.25735,830.5856,249.44269,827.70874C252.05655,825.3481,254.72507,822.9397,256.89215,820.22327C261.6266,814.2887,263.93243,806.92944,266.17764,799.66864L266.175,799.66864C266.25122,799.6172,266.3152,799.5454,266.3578,799.4565C266.66757,798.80975,266.96448,798.15106,268.81985,796.5405C270.77347,794.84467,274.03003,792.46985,275.6153,792.46985 Z"/> </g> <g style="fill:rgb(108,70,65); fill-opacity:1.0; stroke-linejoin: miter"> <path d="M388.52692,795.7149C388.83942,795.7149,389.13943,795.78754,389.4421,795.91797C389.58258,795.97845,389.72455,796.05194,389.86884,796.13727C390.39194,796.4466,390.90784,796.88666,391.493,797.38824C392.115,797.9213,392.80566,798.5151,393.59113,798.97943C393.9026,799.1636,394.22626,799.32605,394.5595,799.46967C396.55054,800.3276,398.94522,800.53375,401.27887,800.6813L401.27484,800.6813C401.32867,800.78015,401.4126,800.85956,401.51352,800.90814L401.50952,800.90814C405.15118,810.2502,408.83774,819.6921,413.2166,825.2792C415.647,828.38007,418.28415,830.28864,421.11392,832.33997C423.45273,834.03546,425.93478,835.8356,428.61792,838.5095C434.51218,844.38367,440.57684,853.6046,435.78223,858.4156C435.56305,858.63556,435.32028,858.84814,435.05182,859.0529L435.05176,859.053C434.91727,859.15564,434.77515,859.257,434.62738,859.356C430.90158,861.8508,423.4544,862.92664,415.77893,862.92664C409.3579,862.92664,402.7771,862.17377,398.0815,860.869C390.86975,858.8651,388.2906,855.59296,385.75003,852.377C384.63956,850.9714,383.51392,849.54407,382.01544,848.26044C377.18597,844.1235,368.5504,841.5493,360.02948,839.0421L360.02588,839.0421L363.4601,805.6548L380.02524,802.9607C380.14874,802.94055,380.26126,802.8778,380.3433,802.7833C383.34424,799.3276,386.11963,796.178,388.0917,795.7613C388.2403,795.72986,388.3849,795.7149,388.52692,795.7149 Z"/> </g> <g style="fill:rgb(33,31,37); fill-opacity:1.0; stroke-linejoin: miter"> <path d="M301.49463,147.80472C301.54425,147.80472,301.59424,147.81163,301.6432,147.82578L307.0021,149.37498C307.2342,149.44208,307.39252,149.65637,307.38843,149.8979L307.18533,161.97765C307.18112,162.22754,307.0045,162.44121,306.75983,162.49234C306.7232,162.49998,306.68652,162.5037,306.65024,162.5037C306.44434,162.5037,306.2522,162.38434,306.16388,162.19107L303.27927,155.88031L294.97272,157.4349L296.00873,167.74527C296.02637,167.9204,295.9567,168.09297,295.82245,168.20679C295.7246,168.28972,295.60165,168.33374,295.4764,168.33374C295.42975,168.33374,295.38278,168.32762,295.33667,168.31514C291.3686,167.24083,287.0956,166.10968,285.2073,163.81143C283.2668,161.44969,283.90247,157.98938,284.4334,154.90918C284.4635,154.73471,284.57794,154.58643,284.73907,154.51309L295.8823,149.4432C295.9524,149.41132,296.02798,149.39517,296.10388,149.39517C296.15173,149.39517,296.19968,149.4016,296.24646,149.41452L298.7816,150.1156L301.1318,147.94655C301.23193,147.85413,301.36194,147.80472,301.49463,147.80472 Z M301.2461,139.04619L298.7764,142.07605C298.67676,142.19824,298.52832,142.2703,298.37067,142.27293L293.41754,142.35579L280.32214,150.24506L276.0762,163.22653C276.00266,163.4514,275.79367,163.59532,275.56793,163.59532C275.51913,163.59532,275.46957,163.5886,275.4204,163.57451L255.05272,157.73994L255.05017,157.73994C256.8345,165.71939,258.75964,173.38809,265.5235,178.46501C271.75433,183.14185,282.16122,185.66852,291.10577,185.66853C292.28244,185.6685,293.43268,185.62468,294.5413,185.53659C303.78308,184.80222,310.30325,180.98671,316.84424,177.02544L316.8474,177.02544C316.8232,176.81618,316.799,176.60692,316.7748,176.39766C316.756,176.23514,316.81213,176.0812,316.9158,175.97043L316.91898,175.97043C316.1094,171.12592,315.32748,166.26363,314.9347,161.4392C314.51483,156.28209,314.54025,151.17566,314.5729,146.0958L314.57605,146.0958L311.40033,143.68155C311.29166,143.59892,311.2187,143.47792,311.19632,143.34328C311.19403,143.32944,311.1917,143.31561,311.18942,143.30177L311.19254,143.30177L301.2461,139.04619 Z"/> </g> <g style="fill:rgb(0,0,0); fill-opacity:1.0; stroke-linejoin: miter"> <path d="M233.60559,135.93268L233.60559,135.93268L233.46483,134.09613C233.44225,133.80153,233.66277,133.5444,233.95735,133.52182C234.25195,133.49924,234.50908,133.71974,234.53166,134.01434L234.53166,134.01434L234.67244,135.85089C234.695,136.1455,234.47449,136.40262,234.1799,136.42519C233.8853,136.44778,233.62819,136.22726,233.60559,135.93268 Z"/> </g> <g style="fill:rgb(33,31,37); fill-opacity:1.0; stroke-linejoin: miter"> <path d="M267.22693,70.86036C270.4239,70.86036,273.6953,71.27456,276.74707,72.01473L276.74707,72.014725C280.75565,72.98692,284.35303,74.51357,286.89594,76.37186C291.5847,79.79827,292.77814,84.41367,293.82007,89.27673L293.82007,89.27673C291.3163,87.92876,288.71954,86.62585,286.59192,86.62585C286.5919,86.62585,286.59186,86.62585,286.59183,86.62585C286.16995,86.62585,285.75775,86.67613,285.36237,86.79035C283.7689,87.250656,282.6244,88.71228,281.75568,89.79893C281.13556,90.5746,280.6845,91.1218,280.27774,91.33865C280.13278,91.415924,279.99493,91.44668,279.8518,91.44668L279.85184,91.44667L279.8518,91.44667C279.43817,91.44667,278.96838,91.20498,278.24414,90.807396C277.61084,90.45972,276.8382,90.03215,275.92752,89.82312C275.44034,89.71128,274.9266,89.66423,274.3971,89.66423C274.39706,89.66423,274.39703,89.66423,274.39703,89.66423C272.47836,89.66423,270.2206,90.28875,268.06268,90.88156L268.0526,90.88442C259.4629,93.42573,250.43726,96.05078,248.06134,105.58377C245.7537,114.84295,249.79614,130.59578,253.82414,146.17604L253.8216,146.17604L249.94504,147.50064L249.94504,147.50064C247.85088,143.9352,245.69098,140.3174,243.09447,137.98854L243.09445,137.98854C240.41747,135.5875,237.3036,134.57645,234.30223,133.61337L234.29988,133.61337C234.21361,133.5544,234.10962,133.52023,233.99883,133.52023C233.98509,133.52023,233.97127,133.52075,233.95735,133.52182C233.66277,133.5444,233.44225,133.80153,233.46483,134.09613L233.4984,134.53413L233.4984,134.53413C230.04218,130.99947,226.80531,127.304245,225.55988,120.3787C224.2043,112.84068,225.20975,101.49046,228.41118,93.873436C231.58673,86.31801,236.93661,82.411446,243.25443,78.68712C249.58112,74.95757,256.7121,71.50793,264.77478,70.94442C265.58386,70.88788,266.40292,70.86036,267.22693,70.86036 Z"/> </g> <g style="fill:rgb(253,205,166); fill-opacity:1.0; stroke-linejoin: miter"> <path d="M286.59192,87.69579C286.2548,87.69579,285.9442,87.73599,285.6593,87.81828C284.4547,88.166245,283.51898,89.30673,282.5914,90.46704C282.03424,91.16399,281.42987,91.93696,280.78107,92.28282C280.4766,92.44513,280.16522,92.51664,279.85187,92.51664L279.8518,92.51664C279.1047,92.51664,278.3689,92.09646,277.72922,91.7453C277.0809,91.38939,276.43253,91.03681,275.68817,90.86595C275.29593,90.7759,274.86496,90.73419,274.3972,90.73419L274.39706,90.73419C272.65353,90.73419,270.54984,91.30789,268.3461,91.91329L268.34644,91.91329C259.60553,94.49937,251.3023,97.00425,249.09955,105.84254C246.85136,114.863075,250.87695,130.50223,254.98389,146.3873C255.0539,146.65804,254.90355,146.93703,254.63892,147.02745L249.87778,148.65433C249.82082,148.6738,249.76247,148.68312,249.7049,148.68312C249.51933,148.68312,249.34166,148.5862,249.24344,148.41893C247.05234,144.68655,244.91774,141.06116,242.38005,138.78505L242.38007,138.78505C240.0658,136.70935,237.39307,135.73915,234.59673,134.83243L234.59438,134.83243L234.67244,135.85089C234.69104,136.09369,234.54453,136.31104,234.32751,136.3926L234.32986,136.3926C233.63712,139.66553,233.09457,142.83911,234.69864,146.63629C236.42192,150.71567,240.6307,155.53975,243.19164,157.55203C244.09032,158.2582,244.73923,158.57933,245.21873,158.69565C245.37288,158.73303,245.51328,158.75043,245.64406,158.75043C246.18034,158.75043,246.55507,158.45778,247.0548,158.04994C247.15097,157.97147,247.27065,157.92944,247.39302,157.92944C247.42189,157.92944,247.45091,157.9318,247.47981,157.93654C247.6312,157.9614,247.7646,158.05006,247.84618,158.18001C249.82718,161.3361,251.85844,164.56622,252.90063,167.80408C253.94656,171.05363,253.98907,174.28535,254.03387,177.42665C254.03542,177.53485,254.00473,177.63602,253.95068,177.72098L253.95323,177.72098C253.82689,178.30261,253.70032,178.88472,253.57341,179.46405L253.57594,179.46405C257.5701,183.05989,261.58453,186.5512,266.7425,189.08539C272.22763,191.78033,279.02615,193.4039,285.9067,195.04051L285.96216,195.0537C285.9815,195.0583,286.00034,195.06389,286.01865,195.07042L295.35062,186.53926L295.34766,186.53926C295.10892,186.56259,294.86838,186.58392,294.62604,186.60318C293.48703,186.6937,292.30914,186.73846,291.10577,186.73848C282.02417,186.73846,271.36087,184.18433,264.8812,179.32072C257.50412,173.78352,255.64,165.31644,253.80975,157.09319C253.76877,156.90901,253.82784,156.71687,253.9652,156.58751C254.06578,156.49277,254.19746,156.44199,254.332,156.44199C254.38116,156.44199,254.43073,156.44878,254.47928,156.46268L275.2195,162.40396L279.3671,149.72322C279.407,149.60118,279.4895,149.49756,279.5995,149.43129L292.98868,141.36505C293.0694,141.31642,293.16156,141.28996,293.2558,141.28838L298.10416,141.20729L300.67136,138.0578C300.77533,137.93024,300.92892,137.86081,301.08618,137.86081C301.15692,137.86081,301.2284,137.87485,301.29645,137.90398L310.98068,142.04736C310.29224,137.92741,309.5719,133.86195,308.46906,130.06465C307.2514,125.872246,305.56454,121.99691,303.8615,118.08616C303.83932,118.03527,303.82523,117.98123,303.81967,117.926C303.35452,113.29136,302.89423,108.72774,301.30643,104.183495C299.74817,99.72369,297.09778,95.26343,294.38922,90.74688L294.39215,90.74688C294.31696,90.74217,294.24155,90.72142,294.17096,90.68315C291.30115,89.12738,288.62753,87.69579,286.59192,87.69579 Z"/> </g> <g style="fill:rgb(253,205,166); fill-opacity:1.0; stroke-linejoin: miter"> <path d="M301.63583,148.9374L306.31174,150.28918L306.1552,159.59839L304.07852,155.05511C303.9903,154.86215,303.79843,154.7425,303.59216,154.7425C303.55954,154.7425,303.52655,154.74548,303.49353,154.75166L294.29288,156.4736C294.01974,156.52473,293.8312,156.77646,293.859,157.05295L294.86642,167.07874L294.86642,167.07874C291.024,166.03038,287.55267,164.98059,286.034,163.13217C284.5142,161.28244,284.90152,158.51413,285.43967,155.37114L285.4368,155.37114L296.1486,150.49757L298.78317,151.22615C298.8302,151.23917,298.87814,151.24551,298.92572,151.24551C299.0585,151.24551,299.1885,151.19603,299.2886,151.10367L301.63583,148.9374 Z"/> </g> <g style="fill:rgb(253,205,166); fill-opacity:1.0; stroke-linejoin: miter"> <path d="M224.27637,360.69687L234.03749,370.50702L234.03749,370.50702L218.67456,393.73328L218.67236,393.73328C217.59721,394.0833,216.55223,394.37912,215.34306,394.37912C215.0375,394.37912,214.72145,394.36023,214.39178,394.31854C212.53662,394.08405,210.23074,393.1301,207.82457,392.12976C207.79353,392.11685,207.76198,392.1071,207.73026,392.10034L207.72816,392.10034L207.70781,392.08536L207.70781,392.08536L218.24364,360.7724L218.24364,360.7724L224.27637,360.69687 Z"/> </g> <g style="fill:rgb(253,205,166); fill-opacity:1.0; stroke-linejoin: miter"> <path d="M356.41394,365.35245L366.9469,366.1214C366.96014,366.12238,366.97333,366.12283,366.98642,366.12283C367.13715,366.12283,367.2752,366.05963,367.37323,365.95682L367.37692,365.95682L376.38123,366.9377C376.4009,366.93985,376.42047,366.94092,376.43985,366.94092C376.5797,366.94092,376.70944,366.8862,376.80603,366.79526L376.8098,366.79526L394.95975,388.0553L394.95578,388.0553C391.261,390.54843,387.63635,392.9566,384.2804,394.28036C382.54022,394.96677,380.86432,395.3643,379.29245,395.73642C377.97412,396.04855,376.70886,396.34702,375.58704,396.7895C375.3856,396.86896,375.18854,396.9531,374.9949,397.0435L374.9949,397.04352C374.14996,397.43808,373.40738,397.936,372.73602,398.4986C371.6574,399.4025,370.75333,400.4828,369.90604,401.57065L369.90604,401.57065C366.62894,395.79477,363.43356,390.04688,361.2158,384.156C358.90488,378.0178,357.65042,371.71082,356.41037,365.35245 Z"/> </g> </g> </svg>