<svg width="315.953" height="22mm" clip-rule="evenodd" fill-rule="evenodd" image-rendering="optimizeQuality" shape-rendering="geometricPrecision" text-rendering="geometricPrecision" version="1.1" viewBox="0 0 2380 626" xml:space="preserve" xmlns="http://www.w3.org/2000/svg"><defs><style type="text/css">.fil1{fill:#283a7d}.fil0{fill:#5f5f5f}.fil2{fill:#adadad}.fil3{fill:#000;fill-rule:nonzero}</style></defs><path class="fil0" d="M571 0L431 244 210 626h-23L548 0z"/><path class="fil1" d="M651 626L431 244 571 0l360 626z"/><path class="fil2" d="M23 626H0L361 0h23zM431 0L70 626H47L407 0z"/><path class="fil0" d="M93 626L454 0h23L117 626zM163 626h-23L501 0h23z"/><path class="fil3" d="M1138 88h-17l-71 165h24l21-48h70l22 48h24l-74-165zm-9 36l27 60h-51l25-60zm252-35h-22v127L1248 89h-19v164h22V126l110 127h20V89zm36 164h64c54 0 87-40 87-82 0-39-27-82-88-82h-64v164zm24-143h36c46 0 67 28 67 61 0 20-12 61-66 61h-38V110zm250-21h-93v164h95v-21h-72v-51h67v-21h-67v-50h70V89zm28 0v164h24v-71h10c12 0 22 4 44 38l22 34h28c-11-16-15-21-22-33-13-20-22-36-37-46 18-7 27-21 27-40 0-28-21-46-54-46h-41zm24 20h15c23 0 32 9 32 25 0 14-7 27-32 27h-15v-52zm-522 260h-22l-55 68-54-68h-22v164h24V405l51 64h4l51-64v128h24V369zm105-1h-17l-71 165h24l21-48h70l22 48h24l-74-165zm-9 36l27 60h-51l25-60zm101-35v164h24v-71h10c12 0 22 4 44 38l22 34h28c-11-16-15-21-22-33-13-20-22-36-37-46 18-7 27-21 27-40 0-28-21-46-54-46h-41zm24 20h15c23 0 32 9 32 25 0 14-7 27-32 27h-15v-52zm172 58l72-78h-29l-69 75v-75h-24v164h24v-81l84 81h33l-89-87zm201-78h-93v164h95v-21h-72v-51h67v-21h-67v-50h70v-21zm151 0h-137v21h57v143h24V390h57v-21zm46 0h-24v164h24V369zm189 0h-22v127l-111-127h-19v164h22V406l110 127h20V369zm180 83h-55v21h32v34c-11 4-23 7-36 7-39 0-67-26-67-62s28-63 63-63c20 0 40 6 59 16v-24c-26-11-39-14-59-14-50 0-88 37-88 85s37 83 88 83c23 0 41-4 63-13v-70z"/></svg>