<?xml version="1.0" encoding="UTF-8"?>
<svg enable-background="new 0 0 864 864" version="1.1" viewBox="0 0 864 864" xmlns="http://www.w3.org/2000/svg">
 <style type="text/css">.st0{fill:#FFFFFF;} .st1{fill:#020202;} .st2{fill:#000091;}</style>
 <rect class="st0" width="864" height="864"/>
 <path class="st1" d="m512.7 291c-0.7-12.7-9.3-18-9.3-18-43.3-8.7-51.3-25.4-51.3-25.4l8 32c2.7 25.8-16.7 72-16.7 72l-10-68 8.6-15.6-9.7-0.3v-0.1h-2v0.1l-9.7 0.3 8.7 15.7-10 68s-19.3-46.2-16.6-72l8-32s-8 16.7-51.3 25.3c0 0-8.7 5.3-9.3 18l-24 73.3s-1.3 18 0 20.7l17.2 61.8c2.1 2.5 4.3 4.9 6.8 7 0-0.1 0.1-0.2 0.1-0.2v0.3s10.6 7.3 14.5 8.7c35.5 14 86.1-10.4 120.8-58.9-0.5-3.5-0.7-5.3-0.7-5.3-0.7-26 10-52.7 10-52.7l8.1 28.7c10.4-21.6 15.9-43.5 16.5-63.3l-6.7-20.1zm-134.8 107.3s-1.7 15.4-8.2 43.3l-1.7-2h-0.4 0.3l-8.7-63.3 8.7-30.7c0.1 0.1 10.7 26.7 10 52.7z"/>
 <path class="st1" d="m347 460.8l0.2 0.9s0-0.1 0.1-0.4c-0.1-0.2-0.2-0.4-0.3-0.5z"/>
 <circle class="st0" cx="431.3" cy="386.7" r="7"/>
 <circle class="st0" cx="431.3" cy="414.7" r="7"/>
 <circle class="st0" cx="431.3" cy="439.7" r="7"/>
 <path class="st2" d="m518.7 290.1c7.4 31-1.3 72.8-26 111-37.7 58.3-98.3 86.1-135.4 62.1-7.9-5.1-14-12.1-18.5-20.5 3.9 16.4 12.2 29.7 25.1 38 37.1 24 97.8-3.8 135.4-62.1 29.7-46 36.2-97.1 19.4-128.5z"/>
 <path class="st2" d="m420.6 268h21.4l-8.7 15.7 10 68-6.9 10.6c-2.2 3.3-7 3.5-9.3 0.2l-7.9-10.9 10-68-8.6-15.6z"/>
 <path class="st2" d="m530.3 307.4c7.7 32.3-1.4 75.8-27 115.5-39.1 60.7-102.1 89.6-140.7 64.7-8.2-5.3-14.6-12.6-19.3-21.4 4 17 12.7 31 26 39.6 38.6 25 101.6-4 140.7-64.7 31-47.8 37.7-101 20.3-133.7z"/>
 <path class="st2" d="m257.6 566.6l14 4.2c-0.9 3.9-2.4 7.2-4.4 9.8s-4.5 4.6-7.5 5.9-6.8 2-11.4 2c-5.6 0-10.2-0.8-13.7-2.4-3.6-1.6-6.6-4.5-9.2-8.6s-3.9-9.3-3.9-15.7c0-8.5 2.3-15.1 6.8-19.7s11-6.9 19.2-6.9c6.5 0 11.6 1.3 15.3 3.9s6.5 6.7 8.3 12.1l-14.1 3.1c-0.5-1.6-1-2.7-1.5-3.4-0.9-1.2-2-2.2-3.3-2.8-1.3-0.7-2.7-1-4.3-1-3.6 0-6.4 1.5-8.3 4.4-1.5 2.2-2.2 5.5-2.2 10.1 0 5.7 0.9 9.6 2.6 11.7s4.2 3.2 7.3 3.2c3 0 5.3-0.9 6.9-2.6 1.5-1.6 2.7-4.1 3.4-7.3z"/>
 <path class="st2" d="M279.3,536.1h15.9V575H320v12.7h-40.8V536.1z"/>
 <path class="st2" d="m324 561.9c0-8.4 2.3-15 7-19.7s11.2-7 19.6-7c8.6 0 15.2 2.3 19.8 6.9s7 11.1 7 19.4c0 6-1 11-3 14.8-2 3.9-5 6.9-8.8 9s-8.6 3.2-14.3 3.2c-5.8 0-10.6-0.9-14.4-2.8s-6.9-4.8-9.3-8.8c-2.4-3.9-3.6-8.9-3.6-15zm16 0.1c0 5.2 1 8.9 2.9 11.2s4.6 3.4 7.9 3.4c3.4 0 6.1-1.1 7.9-3.3 1.9-2.2 2.8-6.2 2.8-12 0-4.9-1-8.4-2.9-10.6-2-2.2-4.6-3.4-8-3.4-3.2 0-5.8 1.1-7.7 3.4-2 2.3-2.9 6.1-2.9 11.3z"/>
 <path class="st2" d="M380.5,536.1H429v12.7h-16.2v38.8h-15.9v-38.8h-16.2V536.1z"/>
 <path class="st2" d="m436.2 536.1h15.9v18h17.4v-18h16v51.5h-16v-20.8h-17.4v20.8h-15.9v-51.5z"/>
 <path class="st2" d="m496.8 536.1h16v51.5h-16v-51.5z"/>
 <path class="st2" d="m524.3 536.1h14.9l19.4 28.5v-28.5h15v51.5h-15l-19.3-28.3v28.3h-15v-51.5z"/>
 <path class="st2" d="m610 569v-10.7h24.6v22c-4.7 3.2-8.9 5.4-12.5 6.6s-7.9 1.7-12.9 1.7c-6.1 0-11.1-1-15-3.1s-6.8-5.2-9-9.3-3.2-8.9-3.2-14.2c0-5.6 1.2-10.5 3.5-14.7s5.7-7.3 10.2-9.5c3.5-1.7 8.2-2.5 14.1-2.5 5.7 0 10 0.5 12.8 1.5s5.2 2.6 7 4.8c1.9 2.2 3.3 4.9 4.2 8.2l-15.4 2.7c-0.6-1.9-1.7-3.4-3.2-4.5-1.5-1-3.4-1.5-5.8-1.5-3.5 0-6.3 1.2-8.3 3.6-2.1 2.4-3.1 6.3-3.1 11.5 0 5.6 1 9.6 3.1 12s5 3.6 8.8 3.6c1.8 0 3.5-0.3 5.1-0.8s3.5-1.4 5.6-2.6v-4.8h-10.6z"/>
 <path d="m232.3 601h6c1.2 0 2.1 0 2.7 0.1s1.1 0.3 1.6 0.6 0.8 0.7 1.2 1.3c0.3 0.5 0.5 1.1 0.5 1.8s-0.2 1.3-0.6 1.9-0.9 1-1.5 1.3c0.9 0.3 1.6 0.7 2.1 1.4 0.5 0.6 0.7 1.4 0.7 2.3 0 0.7-0.2 1.3-0.5 2-0.3 0.6-0.8 1.2-1.3 1.5-0.6 0.4-1.2 0.6-2 0.7-0.5 0.1-1.7 0.1-3.7 0.1h-5.1v-15zm3.1 2.5v3.5h2c1.2 0 1.9 0 2.2-0.1 0.5-0.1 0.9-0.2 1.2-0.5s0.4-0.7 0.4-1.2-0.1-0.8-0.4-1.1-0.6-0.5-1.1-0.5c-0.3 0-1.2-0.1-2.6-0.1h-1.7zm0 6v4h2.8c1.1 0 1.8 0 2.1-0.1 0.5-0.1 0.8-0.3 1.1-0.6s0.4-0.7 0.4-1.3c0-0.5-0.1-0.8-0.3-1.1s-0.5-0.5-0.9-0.7c-0.4-0.1-1.3-0.2-2.7-0.2h-2.5z"/>
 <path d="M255.9,616.1v-15H267v2.5h-8.1v3.3h7.5v2.5h-7.5v4.1h8.4v2.5H255.9z"/>
 <path d="m277.5 611.2l3-0.3c0.2 1 0.5 1.7 1.1 2.2 0.5 0.5 1.3 0.7 2.2 0.7 1 0 1.7-0.2 2.2-0.6s0.7-0.9 0.7-1.5c0-0.4-0.1-0.7-0.3-0.9-0.2-0.3-0.6-0.5-1.1-0.7-0.4-0.1-1.2-0.3-2.4-0.7-1.6-0.4-2.8-0.9-3.4-1.5-0.9-0.8-1.4-1.8-1.4-3 0-0.8 0.2-1.5 0.7-2.1 0.4-0.7 1.1-1.2 1.9-1.5s1.8-0.5 3-0.5c1.9 0 3.3 0.4 4.3 1.2s1.5 1.9 1.5 3.3l-3 0.1c-0.1-0.8-0.4-1.3-0.8-1.7-0.4-0.3-1.1-0.5-1.9-0.5-0.9 0-1.6 0.2-2.1 0.5-0.3 0.2-0.5 0.5-0.5 0.9s0.2 0.7 0.5 0.9c0.4 0.3 1.3 0.7 2.8 1s2.6 0.7 3.3 1.1 1.3 0.9 1.7 1.5 0.6 1.4 0.6 2.4c0 0.9-0.2 1.7-0.7 2.4-0.5 0.8-1.2 1.3-2 1.7-0.9 0.4-2 0.5-3.3 0.5-1.9 0-3.4-0.4-4.4-1.3-1.4-0.7-2-2-2.2-3.6z"/>
 <path d="m304.1 616.1v-12.5h-4.5v-2.6h11.9v2.5h-4.5v12.5h-2.9z"/>
 <path d="m336.1 616.1v-15h4.5l2.7 10.3 2.7-10.3h4.6v15h-2.8v-11.8l-3 11.8h-2.9l-3-11.8v11.8h-2.8z"/>
 <path d="m362.1 616.1v-15h11.1v2.5h-8.1v3.3h7.5v2.5h-7.5v4.1h8.4v2.5h-11.4z"/>
 <path d="m384.5 616.1v-15h3l6.2 10v-10h2.8v15h-3l-6.1-9.8v9.8h-2.9z"/>
 <path d="M408,606.4l-0.5-2.8V601h3.1v2.5l-0.5,2.8H408z"/>
 <path d="m420.7 611.2l3-0.3c0.2 1 0.5 1.7 1.1 2.2 0.5 0.5 1.3 0.7 2.2 0.7 1 0 1.7-0.2 2.2-0.6s0.7-0.9 0.7-1.5c0-0.4-0.1-0.7-0.3-0.9-0.2-0.3-0.6-0.5-1.1-0.7-0.4-0.1-1.2-0.3-2.4-0.7-1.6-0.4-2.8-0.9-3.4-1.5-0.9-0.8-1.4-1.8-1.4-3 0-0.8 0.2-1.5 0.7-2.1 0.4-0.7 1.1-1.2 1.9-1.5s1.8-0.5 3-0.5c1.9 0 3.3 0.4 4.3 1.2s1.5 1.9 1.5 3.3l-3 0.1c-0.1-0.8-0.4-1.3-0.8-1.7-0.4-0.3-1.1-0.5-1.9-0.5-0.9 0-1.6 0.2-2.1 0.5-0.3 0.2-0.5 0.5-0.5 0.9s0.2 0.7 0.5 0.9c0.4 0.3 1.3 0.7 2.8 1s2.6 0.7 3.3 1.1 1.3 0.9 1.7 1.5 0.6 1.4 0.6 2.4c0 0.9-0.2 1.7-0.7 2.4-0.5 0.8-1.2 1.3-2 1.7-0.9 0.4-2 0.5-3.3 0.5-1.9 0-3.4-0.4-4.4-1.3-1.4-0.7-2-2-2.2-3.6z"/>
 <path d="m467.7 610.5l2.9 0.9c-0.5 1.6-1.2 2.9-2.3 3.7-1 0.8-2.4 1.2-4 1.2-2 0-3.6-0.7-4.9-2-1.3-1.4-1.9-3.2-1.9-5.6 0-2.5 0.6-4.4 1.9-5.8s3-2.1 5.1-2.1c1.8 0 3.3 0.5 4.5 1.6 0.7 0.6 1.2 1.6 1.5 2.8l-3 0.7c-0.2-0.8-0.5-1.4-1.1-1.8-0.6-0.5-1.2-0.7-2.1-0.7-1.1 0-2 0.4-2.7 1.2s-1 2.1-1 3.9c0 1.9 0.3 3.3 1 4.1s1.6 1.2 2.7 1.2c0.8 0 1.5-0.3 2.1-0.8 0.6-0.6 1-1.4 1.3-2.5z"/>
 <path d="m481.7 616.1v-14.9h3v12.4h7.5v2.5h-10.5z"/>
 <path d="m502.2 608.6c0-1.5 0.2-2.8 0.7-3.9 0.3-0.8 0.8-1.5 1.4-2.1s1.2-1.1 1.9-1.4c0.9-0.4 2-0.6 3.2-0.6 2.2 0 4 0.7 5.3 2.1s2 3.3 2 5.7-0.7 4.3-2 5.7-3.1 2.1-5.3 2.1-4-0.7-5.3-2c-1.2-1.3-1.9-3.2-1.9-5.6zm3.2-0.1c0 1.7 0.4 3 1.2 3.9s1.8 1.3 3 1.3 2.2-0.4 3-1.3 1.2-2.2 1.2-3.9-0.4-3-1.1-3.9c-0.8-0.8-1.8-1.3-3-1.3-1.3 0-2.3 0.4-3 1.3-0.9 0.9-1.3 2.2-1.3 3.9z"/>
 <path d="M531,616.1v-12.5h-4.5V601h11.9v2.5H534v12.5H531z"/>
 <path d="m548.8 616.1v-15h3v5.9h5.9v-6h3v15h-3v-6.6h-5.9v6.6h-3z"/>
 <path d="m572.3 616.1v-15h3v15h-3z"/>
 <path d="m586.6 616.1v-15h3l6.2 10v-10h2.8v15h-3l-6.1-9.8v9.8h-2.9z"/>
 <path d="m617.2 610.5v-2.5h6.5v6c-0.6 0.6-1.6 1.2-2.8 1.6-1.2 0.5-2.4 0.7-3.7 0.7-1.6 0-2.9-0.3-4.1-1s-2-1.6-2.6-2.8-0.9-2.6-0.9-4c0-1.6 0.3-3 1-4.2s1.6-2.2 2.9-2.8c1-0.5 2.2-0.7 3.6-0.7 1.9 0 3.3 0.4 4.4 1.2 1 0.8 1.7 1.9 2 3.2l-3 0.6c-0.2-0.7-0.6-1.3-1.2-1.7s-1.3-0.6-2.2-0.6c-1.3 0-2.4 0.4-3.2 1.3-0.8 0.8-1.2 2.1-1.2 3.7 0 1.8 0.4 3.1 1.2 4s1.8 1.3 3.1 1.3c0.6 0 1.3-0.1 1.9-0.4 0.6-0.2 1.2-0.6 1.6-0.9v-1.9h-3.3z"/>
</svg>
